<?xml version="1.0" encoding="utf-8"?>
<!-- Generator: Adobe Illustrator 16.0.0, SVG Export Plug-In . SVG Version: 6.00 Build 0)  -->
<!DOCTYPE svg PUBLIC "-//W3C//DTD SVG 1.1//EN" "http://www.w3.org/Graphics/SVG/1.1/DTD/svg11.dtd">
<svg version="1.1" id="Layer_1" xmlns="http://www.w3.org/2000/svg" xmlns:xlink="http://www.w3.org/1999/xlink" x="0px" y="0px"
	 width="16px" height="264px" viewBox="0 0 16 264" enable-background="new 0 0 16 264" xml:space="preserve">
<g>
	<polygon fill="#56799B" points="13,75 0,66 13,57 	"/>
</g>
<g opacity="0.5">
	<polygon fill="#56799B" points="13,31 0,22 13,13 	"/>
</g>
<g>
	<polygon fill="#56799B" points="3,145.001 16,154.001 3,163.001 	"/>
</g>
<g opacity="0.5">
	<polygon fill="#56799B" points="3,101.001 16,110.001 3,119.001 	"/>
</g>
<g opacity="0.5">
	<path fill="#56799B" d="M16,204c0,1.1-0.9,2-2,2H2c-1.1,0-2-0.9-2-2v-12c0-1.1,0.9-2,2-2h12c1.1,0,2,0.9,2,2V204z"/>
</g>
<g>
	<path fill="#56799B" d="M16,248c0,1.1-0.9,2-2,2H2c-1.1,0-2-0.9-2-2v-12c0-1.1,0.9-2,2-2h12c1.1,0,2,0.9,2,2V248z"/>
</g>
</svg>
