<?xml version="1.0" encoding="utf-8"?>
<!-- Generator: Adobe Illustrator 16.0.0, SVG Export Plug-In . SVG Version: 6.00 Build 0)  -->
<!DOCTYPE svg PUBLIC "-//W3C//DTD SVG 1.1//EN" "http://www.w3.org/Graphics/SVG/1.1/DTD/svg11.dtd">
<svg version="1.1" id="Layer_1" xmlns="http://www.w3.org/2000/svg" xmlns:xlink="http://www.w3.org/1999/xlink" x="0px" y="0px"
	 width="4000px" height="1000px" viewBox="0 0 4000 1000" enable-background="new 0 0 4000 1000" xml:space="preserve">
<g>
	
		<linearGradient id="SVGID_1_" gradientUnits="userSpaceOnUse" x1="2416.5352" y1="-1648.5825" x2="2416.5352" y2="23.5792" gradientTransform="matrix(-4.371139e-08 -1 1 -4.371139e-08 1659.4805 2659.48)">
		<stop  offset="0" style="stop-color:#F6F6F1"/>
		<stop  offset="1" style="stop-color:#F7F6F1"/>
	</linearGradient>
	<path fill-rule="evenodd" clip-rule="evenodd" fill="url(#SVGID_1_)" d="M0,238.262V0h1700v417.284
		C1208.568,740.415,554.199-207.53,0,238.262z"/>
	
		<linearGradient id="SVGID_2_" gradientUnits="userSpaceOnUse" x1="2326.1143" y1="-807.0571" x2="2310.9207" y2="-1677.4949" gradientTransform="matrix(-4.371139e-08 -1 1 -4.371139e-08 1659.4805 2659.48)">
		<stop  offset="0" style="stop-color:#F6F6F0"/>
		<stop  offset="1" style="stop-color:#FFFFFF"/>
	</linearGradient>
	<path fill-rule="evenodd" clip-rule="evenodd" fill="url(#SVGID_2_)" d="M801.482,447.101
		C523.338,474.561,335.292,78.854,0.13,387.992v-55.445C338.822,44.07,571.33,458.608,801.482,447.101z"/>
	<path fill-rule="evenodd" clip-rule="evenodd" fill="none" stroke="#F6F6F1" stroke-width="0.4" d="M412.185,62.245
		C979.198-31.253,1118.207,635.277,1700,436.898"/>
	<g>
		<path fill-rule="evenodd" clip-rule="evenodd" fill="none" stroke="#F7F6F1" stroke-width="0.4" d="M412.185,62.245
			C979.198-31.383,1119.253,625.076,1700,424.083"/>
		<path fill-rule="evenodd" clip-rule="evenodd" fill="none" stroke="#F7F6F2" stroke-width="0.4" d="M412.185,62.245
			C979.198-31.253,1120.3,615.006,1700,411.268"/>
		<path fill-rule="evenodd" clip-rule="evenodd" fill="none" stroke="#F7F6F2" stroke-width="0.4" d="M412.185,62.245
			C979.198-31.253,1121.346,604.807,1700,398.453"/>
		<path fill-rule="evenodd" clip-rule="evenodd" fill="none" stroke="#F7F7F3" stroke-width="0.4" d="M412.185,62.245
			C979.198-31.253,1122.393,594.737,1700,385.638"/>
		<path fill-rule="evenodd" clip-rule="evenodd" fill="none" stroke="#F7F6F3" stroke-width="0.4" d="M412.185,62.245
			C979.198-31.253,1123.436,584.668,1700,372.952"/>
		<path fill-rule="evenodd" clip-rule="evenodd" fill="none" stroke="#F7F6F3" stroke-width="0.4" d="M412.185,62.245
			C979.198-31.253,1124.483,574.598,1700,360.138"/>
		<path fill-rule="evenodd" clip-rule="evenodd" fill="none" stroke="#F7F6F3" stroke-width="0.4" d="M412.185,62.245
			C979.198-31.253,1125.528,564.399,1700,347.321"/>
		<path fill-rule="evenodd" clip-rule="evenodd" fill="none" stroke="#F7F6F3" stroke-width="0.4" d="M412.185,62.245
			C979.198-31.253,1126.576,554.329,1700,334.506"/>
		<path fill-rule="evenodd" clip-rule="evenodd" fill="none" stroke="#F7F6F3" stroke-width="0.4" d="M412.185,62.245
			C979.198-31.253,1127.622,544.13,1700,321.691"/>
		<path fill-rule="evenodd" clip-rule="evenodd" fill="none" stroke="#F7F7F4" stroke-width="0.4" d="M412.185,62.245
			C979.198-31.383,1128.667,534.06,1700,308.877"/>
		<path fill-rule="evenodd" clip-rule="evenodd" fill="none" stroke="#F8F8F5" stroke-width="0.4" d="M412.185,62.245
			C979.198-31.253,1129.715,523.859,1700,296.062"/>
		<path fill-rule="evenodd" clip-rule="evenodd" fill="none" stroke="#F8F8F5" stroke-width="0.4" d="M412.185,62.245
			c567.014-93.499,718.578,451.546,1287.815,221"/>
		<path fill-rule="evenodd" clip-rule="evenodd" fill="none" stroke="#F8F8F5" stroke-width="0.4" d="M412.185,62.245
			C979.198-31.253,1131.808,503.59,1700,270.429"/>
		<path fill-rule="evenodd" clip-rule="evenodd" fill="none" stroke="#F8F8F5" stroke-width="0.4" d="M412.185,62.245
			C979.198-31.253,1132.851,493.522,1700,257.616"/>
		<path fill-rule="evenodd" clip-rule="evenodd" fill="none" stroke="#F8F8F5" stroke-width="0.4" d="M412.185,62.245
			C979.198-31.253,1133.897,483.321,1700,244.8"/>
		<path fill-rule="evenodd" clip-rule="evenodd" fill="none" stroke="#F8F8F5" stroke-width="0.4" d="M412.185,62.245
			C979.198-31.253,1134.947,473.253,1700,231.982"/>
		<path fill-rule="evenodd" clip-rule="evenodd" fill="none" stroke="#F8F8F5" stroke-width="0.4" d="M412.185,62.245
			C979.198-31.253,1135.99,463.054,1700,219.17"/>
		<path fill-rule="evenodd" clip-rule="evenodd" fill="none" stroke="#F8F8F5" stroke-width="0.4" d="M412.185,62.245
			C979.198-31.253,1137.036,452.984,1700,206.354"/>
		<path fill-rule="evenodd" clip-rule="evenodd" fill="none" stroke="#F9F9F6" stroke-width="0.4" d="M412.185,62.245
			C979.198-31.253,1138.083,442.783,1700,193.54"/>
		<path fill-rule="evenodd" clip-rule="evenodd" fill="none" stroke="#F9F9F6" stroke-width="0.4" d="M412.185,62.245
			C979.198-31.253,1139.13,432.715,1700,180.724"/>
	</g>
	<path fill-rule="evenodd" clip-rule="evenodd" fill="none" stroke="#F9F9F6" stroke-width="0.4" d="M412.185,62.245
		C979.198-31.253,1140.177,422.515,1700,167.907"/>
	
		<linearGradient id="SVGID_3_" gradientUnits="userSpaceOnUse" x1="2573.584" y1="-1634.8628" x2="2113.2649" y2="83.0703" gradientTransform="matrix(-4.371139e-08 -1 1 -4.371139e-08 1659.4805 2659.48)">
		<stop  offset="0" style="stop-color:#F6F6F1"/>
		<stop  offset="0.38" style="stop-color:#F7F6F2"/>
		<stop  offset="1" style="stop-color:#F6F6F0"/>
	</linearGradient>
	<path fill-rule="evenodd" clip-rule="evenodd" fill="url(#SVGID_3_)" d="M1700,335.423v156.53
		c-72.316,37.008-141.231,63.031-207.141,80.162c-385.896,35.832-512.874-317.507-780.169-204
		c243.103-77.155,292.531,220.346,562.7,229.498C733.747,584.408,404.469-2.877,0.13,249.901v-33.477
		C676.86-286.123,1325.605,621.416,1700,335.423z"/>
	
		<linearGradient id="SVGID_4_" gradientUnits="userSpaceOnUse" x1="2499.0303" y1="-1646.6074" x2="2101.3982" y2="-422.8223" gradientTransform="matrix(-4.371139e-08 -1 1 -4.371139e-08 1659.4805 2659.48)">
		<stop  offset="0" style="stop-color:#F6F6F1"/>
		<stop  offset="0.39" style="stop-color:#F9F9F6"/>
		<stop  offset="1" style="stop-color:#FFFFFF"/>
	</linearGradient>
	<path fill-rule="evenodd" clip-rule="evenodd" fill="url(#SVGID_4_)" d="M1275.39,597.613
		C733.747,584.408,404.469-2.877,0.13,249.901v-33.477C571.069,9.546,627.823,527.653,1275.39,597.613z"/>
	
		<linearGradient id="SVGID_5_" gradientUnits="userSpaceOnUse" x1="2361.2559" y1="-1459.2729" x2="2361.2559" y2="72.6018" gradientTransform="matrix(-4.371139e-08 -1 1 -4.371139e-08 1659.4805 2659.48)">
		<stop  offset="0" style="stop-color:#F6F6F0"/>
		<stop  offset="0.54" style="stop-color:#F6F6F0"/>
		<stop  offset="1" style="stop-color:#FFFFFF"/>
	</linearGradient>
	<path fill-rule="evenodd" clip-rule="evenodd" fill="url(#SVGID_5_)" d="M1700,445.005
		c-671.501,344.97-984.824-601.404-1499.793-279.581C658.291-196.546,1308.997,653.716,1700,445.005z"/>
	
		<linearGradient id="SVGID_6_" gradientUnits="userSpaceOnUse" x1="2390.7549" y1="-863.4443" x2="2092.3086" y2="55.0784" gradientTransform="matrix(-4.371139e-08 -1 1 -4.371139e-08 1659.4805 2659.48)">
		<stop  offset="0" style="stop-color:#F6F6F1"/>
		<stop  offset="0.62" style="stop-color:#F7F6F2"/>
		<stop  offset="1" style="stop-color:#F6F6F0"/>
	</linearGradient>
	<path fill-rule="evenodd" clip-rule="evenodd" fill="url(#SVGID_6_)" d="M1700,453.114v36.353
		c-461.616,274.617-688.238-376.744-1133.77-186.083C1160.314,47.6,1320.246,661.428,1700,453.114z"/>
	
		<linearGradient id="SVGID_7_" gradientUnits="userSpaceOnUse" x1="2263.6357" y1="-880.3145" x2="2263.6357" y2="15.9254" gradientTransform="matrix(-4.371139e-08 -1 1 -4.371139e-08 1659.4805 2659.48)">
		<stop  offset="0" style="stop-color:#F6F6F0"/>
		<stop  offset="1" style="stop-color:#FFFFFF"/>
	</linearGradient>
	<path fill-rule="evenodd" clip-rule="evenodd" fill="url(#SVGID_7_)" d="M1684.438,477.046
		c-386.553,240.222-653.846-307.961-893.023-208.053C1031.638,159.014,1381.056,664.961,1684.438,477.046z"/>
	
		<linearGradient id="SVGID_8_" gradientUnits="userSpaceOnUse" x1="2074.6895" y1="-672.8955" x2="2291.3425" y2="-1183.2981" gradientTransform="matrix(-4.371139e-08 -1 1 -4.371139e-08 1659.4805 2659.48)">
		<stop  offset="0" style="stop-color:#F6F6F1"/>
		<stop  offset="1" style="stop-color:#F6F6F1"/>
	</linearGradient>
	<path fill-rule="evenodd" clip-rule="evenodd" fill="url(#SVGID_8_)" d="M64.077,520.305
		c332.022-48.777,596.438-454.945,1086.297-211.716C598.792-46.448,378.577,462.634,67.869,519.39
		c196.546-47.078,270.562-282.593,601.014-321.823C258.792,205.935,229.892,507.617,0,525.932v1.697
		C22.884,527.365,44.068,524.883,64.077,520.305z"/>
	
		<linearGradient id="SVGID_9_" gradientUnits="userSpaceOnUse" x1="2572.9824" y1="-679.1895" x2="2335.0876" y2="11.7072" gradientTransform="matrix(-4.371139e-08 -1 1 -4.371139e-08 1659.4805 2659.48)">
		<stop  offset="0" style="stop-color:#F6F6F0"/>
		<stop  offset="1" style="stop-color:#FFFFFF"/>
	</linearGradient>
	<path fill-rule="evenodd" clip-rule="evenodd" fill="url(#SVGID_9_)" d="M1690.322,324.045
		c-232.507,122.531-330.714-344.314-537.07-221.913c129.985-75.324,202.169,195.499,364.979,221.913
		c-188.57-31.253-289.133-348.629-702.362-199.161C1229.097-24.584,1363.531,502.414,1690.322,324.045z"/>
	<path fill-rule="evenodd" clip-rule="evenodd" fill="none" stroke="#F6F6F0" stroke-width="0.4" d="M27.422,216.424
		C167.084,112.592,305.699,69.045,440.915,62.639"/>
	<g>
		<path fill-rule="evenodd" clip-rule="evenodd" fill="none" stroke="#F6F6F0" stroke-width="0.4" d="M27.422,221.915
			C166.43,115.731,305.699,69.045,440.915,62.639"/>
		<path fill-rule="evenodd" clip-rule="evenodd" fill="none" stroke="#F6F6F0" stroke-width="0.4" d="M27.422,227.275
			C165.645,118.87,305.699,69.045,440.915,62.639"/>
		<path fill-rule="evenodd" clip-rule="evenodd" fill="none" stroke="#F6F6F0" stroke-width="0.4" d="M27.422,232.771
			C164.861,122.007,305.699,69.045,440.915,62.639"/>
		<path fill-rule="evenodd" clip-rule="evenodd" fill="none" stroke="#F6F6F0" stroke-width="0.4" d="M27.422,238.262
			C164.076,125.016,305.699,69.045,440.915,62.639"/>
		<path fill-rule="evenodd" clip-rule="evenodd" fill="none" stroke="#F6F6F0" stroke-width="0.4" d="M27.422,243.753
			C163.291,128.155,305.699,69.045,440.915,62.639"/>
		<path fill-rule="evenodd" clip-rule="evenodd" fill="none" stroke="#F6F6F0" stroke-width="0.4" d="M27.422,249.244
			C162.638,131.292,305.699,69.045,440.915,62.639"/>
		<path fill-rule="evenodd" clip-rule="evenodd" fill="none" stroke="#F6F6F0" stroke-width="0.4" d="M27.422,254.608
			C161.853,134.431,305.699,69.045,440.915,62.639"/>
		<path fill-rule="evenodd" clip-rule="evenodd" fill="none" stroke="#F6F6F0" stroke-width="0.4" d="M27.422,260.099
			C161.068,137.57,305.699,69.045,440.915,62.639"/>
		<path fill-rule="evenodd" clip-rule="evenodd" fill="none" stroke="#F6F6F0" stroke-width="0.4" d="M27.422,265.59
			C160.285,140.578,305.699,69.045,440.915,62.639"/>
		<path fill-rule="evenodd" clip-rule="evenodd" fill="none" stroke="#F6F6F0" stroke-width="0.4" d="M27.422,271.085
			C159.499,143.714,305.699,69.045,440.915,62.639"/>
		<path fill-rule="evenodd" clip-rule="evenodd" fill="none" stroke="#F6F6F0" stroke-width="0.4" d="M27.422,276.576
			C158.845,146.854,305.699,69.045,440.915,62.639"/>
		<path fill-rule="evenodd" clip-rule="evenodd" fill="none" stroke="#F6F6F0" stroke-width="0.4" d="M27.422,281.937
			C158.061,149.993,305.699,69.045,440.915,62.639"/>
		<path fill-rule="evenodd" clip-rule="evenodd" fill="none" stroke="#F6F6F0" stroke-width="0.4" d="M27.422,287.431
			C157.276,153.129,305.699,69.045,440.915,62.639"/>
		<path fill-rule="evenodd" clip-rule="evenodd" fill="none" stroke="#F6F6F0" stroke-width="0.4" d="M27.422,292.923
			C156.491,156.137,305.699,69.045,440.915,62.639"/>
		<path fill-rule="evenodd" clip-rule="evenodd" fill="none" stroke="#F6F6F0" stroke-width="0.4" d="M27.422,298.417
			C155.707,159.276,305.699,69.045,440.915,62.639"/>
		<path fill-rule="evenodd" clip-rule="evenodd" fill="none" stroke="#F6F6F0" stroke-width="0.4" d="M27.422,303.777
			C155.052,162.416,305.699,69.045,440.915,62.639"/>
		<path fill-rule="evenodd" clip-rule="evenodd" fill="none" stroke="#F6F6F0" stroke-width="0.4" d="M27.422,309.269
			C154.269,165.556,305.699,69.045,440.915,62.639"/>
		<path fill-rule="evenodd" clip-rule="evenodd" fill="none" stroke="#F6F6F0" stroke-width="0.4" d="M27.422,314.764
			C153.484,168.691,305.699,69.045,440.915,62.639"/>
		<path fill-rule="evenodd" clip-rule="evenodd" fill="none" stroke="#F6F6F0" stroke-width="0.4" d="M27.422,320.255
			C152.699,171.699,305.699,69.045,440.915,62.639"/>
		<path fill-rule="evenodd" clip-rule="evenodd" fill="none" stroke="#F6F6F0" stroke-width="0.4" d="M27.422,325.746
			C151.915,174.839,305.699,69.045,440.915,62.639"/>
	</g>
	<path fill-rule="evenodd" clip-rule="evenodd" fill="none" stroke="#F6F6F0" stroke-width="0.4" d="M27.422,331.109
		C151.13,177.978,305.699,69.045,440.915,62.639"/>
	
		<linearGradient id="SVGID_10_" gradientUnits="userSpaceOnUse" x1="2416.5352" y1="-2492.8511" x2="2416.5352" y2="-820.6893" gradientTransform="matrix(4.375628e-08 -1 -1 -4.375628e-08 1496.251 2659.48)">
		<stop  offset="0" style="stop-color:#F6F6F1"/>
		<stop  offset="1" style="stop-color:#F7F6F1"/>
	</linearGradient>
	<path fill-rule="evenodd" clip-rule="evenodd" fill="url(#SVGID_10_)" d="M4000,238.262V0H2300v417.284
		C2791.432,740.415,3445.803-207.53,4000,238.262z"/>
	
		<linearGradient id="SVGID_11_" gradientUnits="userSpaceOnUse" x1="2326.1133" y1="-1651.3257" x2="2310.9197" y2="-2521.7629" gradientTransform="matrix(4.375628e-08 -1 -1 -4.375628e-08 1496.251 2659.48)">
		<stop  offset="0" style="stop-color:#F6F6F0"/>
		<stop  offset="1" style="stop-color:#FFFFFF"/>
	</linearGradient>
	<path fill-rule="evenodd" clip-rule="evenodd" fill="url(#SVGID_11_)" d="M3198.518,447.1
		c278.145,27.46,466.191-368.246,801.352-59.108v-55.446C3661.178,44.071,3428.67,458.608,3198.518,447.1z"/>
	<path fill-rule="evenodd" clip-rule="evenodd" fill="none" stroke="#F6F6F1" stroke-width="0.4" d="M3587.814,62.245
		C3020.803-31.253,2881.793,635.276,2300,436.897"/>
	<g>
		<path fill-rule="evenodd" clip-rule="evenodd" fill="none" stroke="#F7F6F1" stroke-width="0.4" d="M3587.814,62.245
			C3020.803-31.383,2880.746,625.076,2300,424.083"/>
		<path fill-rule="evenodd" clip-rule="evenodd" fill="none" stroke="#F7F6F2" stroke-width="0.4" d="M3587.814,62.245
			C3020.803-31.253,2879.699,615.006,2300,411.268"/>
		<path fill-rule="evenodd" clip-rule="evenodd" fill="none" stroke="#F7F6F2" stroke-width="0.4" d="M3587.814,62.245
			C3020.803-31.253,2878.654,604.808,2300,398.452"/>
		<path fill-rule="evenodd" clip-rule="evenodd" fill="none" stroke="#F7F7F3" stroke-width="0.4" d="M3587.814,62.245
			C3020.803-31.253,2877.607,594.738,2300,385.638"/>
		<path fill-rule="evenodd" clip-rule="evenodd" fill="none" stroke="#F7F6F3" stroke-width="0.4" d="M3587.814,62.245
			C3020.803-31.253,2876.564,584.668,2300,372.952"/>
		<path fill-rule="evenodd" clip-rule="evenodd" fill="none" stroke="#F7F6F3" stroke-width="0.4" d="M3587.814,62.245
			C3020.803-31.253,2875.516,574.598,2300,360.138"/>
		<path fill-rule="evenodd" clip-rule="evenodd" fill="none" stroke="#F7F6F3" stroke-width="0.4" d="M3587.814,62.245
			C3020.803-31.253,2874.471,564.399,2300,347.321"/>
		<path fill-rule="evenodd" clip-rule="evenodd" fill="none" stroke="#F7F6F3" stroke-width="0.4" d="M3587.814,62.245
			C3020.803-31.253,2873.424,554.33,2300,334.507"/>
		<path fill-rule="evenodd" clip-rule="evenodd" fill="none" stroke="#F7F6F3" stroke-width="0.4" d="M3587.814,62.245
			C3020.803-31.253,2872.379,544.129,2300,321.691"/>
		<path fill-rule="evenodd" clip-rule="evenodd" fill="none" stroke="#F7F7F4" stroke-width="0.4" d="M3587.814,62.245
			C3020.803-31.383,2871.332,534.06,2300,308.877"/>
		<path fill-rule="evenodd" clip-rule="evenodd" fill="none" stroke="#F8F8F5" stroke-width="0.4" d="M3587.814,62.245
			C3020.803-31.253,2870.287,523.858,2300,296.062"/>
		<path fill-rule="evenodd" clip-rule="evenodd" fill="none" stroke="#F8F8F5" stroke-width="0.4" d="M3587.814,62.245
			c-567.012-93.499-718.576,451.546-1287.814,221"/>
		<path fill-rule="evenodd" clip-rule="evenodd" fill="none" stroke="#F8F8F5" stroke-width="0.4" d="M3587.814,62.245
			C3020.803-31.253,2868.192,503.59,2300,270.429"/>
		<path fill-rule="evenodd" clip-rule="evenodd" fill="none" stroke="#F8F8F5" stroke-width="0.4" d="M3587.814,62.245
			C3020.803-31.253,2867.148,493.522,2300,257.616"/>
		<path fill-rule="evenodd" clip-rule="evenodd" fill="none" stroke="#F8F8F5" stroke-width="0.4" d="M3587.814,62.245
			C3020.803-31.253,2866.104,483.321,2300,244.799"/>
		<path fill-rule="evenodd" clip-rule="evenodd" fill="none" stroke="#F8F8F5" stroke-width="0.4" d="M3587.814,62.245
			C3020.803-31.253,2865.053,473.253,2300,231.982"/>
		<path fill-rule="evenodd" clip-rule="evenodd" fill="none" stroke="#F8F8F5" stroke-width="0.4" d="M3587.814,62.245
			C3020.803-31.253,2864.012,463.053,2300,219.17"/>
		<path fill-rule="evenodd" clip-rule="evenodd" fill="none" stroke="#F8F8F5" stroke-width="0.4" d="M3587.814,62.245
			C3020.803-31.253,2862.963,452.984,2300,206.354"/>
		<path fill-rule="evenodd" clip-rule="evenodd" fill="none" stroke="#F9F9F6" stroke-width="0.4" d="M3587.814,62.245
			C3020.803-31.253,2861.917,442.783,2300,193.54"/>
		<path fill-rule="evenodd" clip-rule="evenodd" fill="none" stroke="#F9F9F6" stroke-width="0.4" d="M3587.814,62.245
			C3020.803-31.253,2860.871,432.715,2300,180.724"/>
	</g>
	<path fill-rule="evenodd" clip-rule="evenodd" fill="none" stroke="#F9F9F6" stroke-width="0.4" d="M3587.814,62.245
		C3020.803-31.253,2859.823,422.515,2300,167.907"/>
	
		<linearGradient id="SVGID_12_" gradientUnits="userSpaceOnUse" x1="2573.584" y1="-2479.1309" x2="2113.2651" y2="-761.1986" gradientTransform="matrix(4.375628e-08 -1 -1 -4.375628e-08 1496.251 2659.48)">
		<stop  offset="0" style="stop-color:#F6F6F1"/>
		<stop  offset="0.38" style="stop-color:#F7F6F2"/>
		<stop  offset="1" style="stop-color:#F6F6F0"/>
	</linearGradient>
	<path fill-rule="evenodd" clip-rule="evenodd" fill="url(#SVGID_12_)" d="M2300,335.424v156.529
		c72.316,37.008,141.231,63.031,207.142,80.16c385.896,35.834,512.872-317.505,780.168-203.998
		c-243.103-77.155-292.53,220.347-562.7,229.498c541.645-13.205,870.922-600.49,1275.26-347.712v-33.477
		C3323.14-286.123,2674.395,621.417,2300,335.424z"/>
	
		<linearGradient id="SVGID_13_" gradientUnits="userSpaceOnUse" x1="2499.0303" y1="-2490.874" x2="2101.3984" y2="-1267.0898" gradientTransform="matrix(4.375628e-08 -1 -1 -4.375628e-08 1496.251 2659.48)">
		<stop  offset="0" style="stop-color:#F6F6F1"/>
		<stop  offset="0.39" style="stop-color:#F9F9F6"/>
		<stop  offset="1" style="stop-color:#FFFFFF"/>
	</linearGradient>
	<path fill-rule="evenodd" clip-rule="evenodd" fill="url(#SVGID_13_)" d="M2724.609,597.613
		c541.645-13.205,870.922-600.49,1275.26-347.712v-33.477C3428.93,9.546,3372.177,527.653,2724.609,597.613z"/>
	
		<linearGradient id="SVGID_14_" gradientUnits="userSpaceOnUse" x1="2361.2559" y1="-2303.5435" x2="2361.2559" y2="-771.6667" gradientTransform="matrix(4.375628e-08 -1 -1 -4.375628e-08 1496.251 2659.48)">
		<stop  offset="0" style="stop-color:#F6F6F0"/>
		<stop  offset="0.54" style="stop-color:#F6F6F0"/>
		<stop  offset="1" style="stop-color:#FFFFFF"/>
	</linearGradient>
	<path fill-rule="evenodd" clip-rule="evenodd" fill="url(#SVGID_14_)" d="M2300,445.005
		c671.501,344.97,984.822-601.403,1499.795-279.581C3341.709-196.546,2691.002,653.716,2300,445.005z"/>
	
		<linearGradient id="SVGID_15_" gradientUnits="userSpaceOnUse" x1="2390.7559" y1="-1707.7129" x2="2092.3096" y2="-789.1901" gradientTransform="matrix(4.375628e-08 -1 -1 -4.375628e-08 1496.251 2659.48)">
		<stop  offset="0" style="stop-color:#F6F6F1"/>
		<stop  offset="0.62" style="stop-color:#F7F6F2"/>
		<stop  offset="1" style="stop-color:#F6F6F0"/>
	</linearGradient>
	<path fill-rule="evenodd" clip-rule="evenodd" fill="url(#SVGID_15_)" d="M2300,453.114v36.353
		c461.617,274.616,688.238-376.743,1133.77-186.084C2839.686,47.6,2679.754,661.427,2300,453.114z"/>
	
		<linearGradient id="SVGID_16_" gradientUnits="userSpaceOnUse" x1="2263.6357" y1="-1724.5835" x2="2263.6357" y2="-828.3431" gradientTransform="matrix(4.375628e-08 -1 -1 -4.375628e-08 1496.251 2659.48)">
		<stop  offset="0" style="stop-color:#F6F6F0"/>
		<stop  offset="1" style="stop-color:#FFFFFF"/>
	</linearGradient>
	<path fill-rule="evenodd" clip-rule="evenodd" fill="url(#SVGID_16_)" d="M2315.562,477.046
		c386.555,240.221,653.846-307.961,893.023-208.053C2968.362,159.015,2618.945,664.961,2315.562,477.046z"/>
	
		<linearGradient id="SVGID_17_" gradientUnits="userSpaceOnUse" x1="2074.6914" y1="-1517.1631" x2="2291.3442" y2="-2027.5653" gradientTransform="matrix(4.375628e-08 -1 -1 -4.375628e-08 1496.251 2659.48)">
		<stop  offset="0" style="stop-color:#F6F6F1"/>
		<stop  offset="1" style="stop-color:#F6F6F1"/>
	</linearGradient>
	<path fill-rule="evenodd" clip-rule="evenodd" fill="url(#SVGID_17_)" d="M3935.922,520.305
		c-332.021-48.777-596.437-454.945-1086.296-211.716c551.583-355.037,771.796,154.045,1082.505,210.802
		c-196.546-47.078-270.562-282.594-601.013-321.824c410.091,8.369,438.989,310.051,668.882,328.365v1.697
		C3977.117,527.365,3955.932,524.883,3935.922,520.305z"/>
	
		<linearGradient id="SVGID_18_" gradientUnits="userSpaceOnUse" x1="2572.9834" y1="-1523.458" x2="2335.0886" y2="-832.5614" gradientTransform="matrix(4.375628e-08 -1 -1 -4.375628e-08 1496.251 2659.48)">
		<stop  offset="0" style="stop-color:#F6F6F0"/>
		<stop  offset="1" style="stop-color:#FFFFFF"/>
	</linearGradient>
	<path fill-rule="evenodd" clip-rule="evenodd" fill="url(#SVGID_18_)" d="M2309.678,324.045
		c232.508,122.531,330.715-344.314,537.07-221.913c-129.984-75.324-202.17,195.499-364.979,221.913
		c188.57-31.253,289.133-348.63,702.362-199.161C2770.902-24.585,2636.471,502.414,2309.678,324.045z"/>
	<path fill-rule="evenodd" clip-rule="evenodd" fill="none" stroke="#F6F6F0" stroke-width="0.4" d="M3999.869,216.424
		c-139.66-103.832-278.277-147.379-413.49-153.786"/>
	<g>
		<path fill-rule="evenodd" clip-rule="evenodd" fill="none" stroke="#F6F6F0" stroke-width="0.4" d="M3999.869,221.915
			c-139.005-106.184-278.277-152.87-413.49-159.276"/>
		<path fill-rule="evenodd" clip-rule="evenodd" fill="none" stroke="#F6F6F0" stroke-width="0.4" d="M3999.869,227.275
			c-138.223-108.406-278.277-158.23-413.49-164.637"/>
		<path fill-rule="evenodd" clip-rule="evenodd" fill="none" stroke="#F6F6F0" stroke-width="0.4" d="M3999.869,232.771
			c-137.438-110.763-278.277-163.725-413.49-170.132"/>
		<path fill-rule="evenodd" clip-rule="evenodd" fill="none" stroke="#F6F6F0" stroke-width="0.4" d="M3999.869,238.262
			c-136.653-113.246-278.277-169.217-413.49-175.624"/>
		<path fill-rule="evenodd" clip-rule="evenodd" fill="none" stroke="#F6F6F0" stroke-width="0.4" d="M3999.869,243.753
			c-135.867-115.598-278.277-174.708-413.49-181.114"/>
		<path fill-rule="evenodd" clip-rule="evenodd" fill="none" stroke="#F6F6F0" stroke-width="0.4" d="M3999.869,249.244
			c-135.215-117.953-278.277-180.199-413.49-186.605"/>
		<path fill-rule="evenodd" clip-rule="evenodd" fill="none" stroke="#F6F6F0" stroke-width="0.4" d="M3999.869,254.608
			c-134.43-120.177-278.277-185.562-413.49-191.969"/>
		<path fill-rule="evenodd" clip-rule="evenodd" fill="none" stroke="#F6F6F0" stroke-width="0.4" d="M3999.869,260.099
			c-133.646-122.528-278.277-191.053-413.49-197.46"/>
		<path fill-rule="evenodd" clip-rule="evenodd" fill="none" stroke="#F6F6F0" stroke-width="0.4" d="M3999.869,265.59
			c-132.86-125.011-278.277-196.544-413.49-202.951"/>
		<path fill-rule="evenodd" clip-rule="evenodd" fill="none" stroke="#F6F6F0" stroke-width="0.4" d="M3999.869,271.085
			c-132.076-127.371-278.277-202.04-413.49-208.446"/>
		<path fill-rule="evenodd" clip-rule="evenodd" fill="none" stroke="#F6F6F0" stroke-width="0.4" d="M3999.869,276.576
			c-131.422-129.722-278.277-207.53-413.49-213.937"/>
		<path fill-rule="evenodd" clip-rule="evenodd" fill="none" stroke="#F6F6F0" stroke-width="0.4" d="M3999.869,281.937
			c-130.638-131.943-278.277-212.891-413.49-219.298"/>
		<path fill-rule="evenodd" clip-rule="evenodd" fill="none" stroke="#F6F6F0" stroke-width="0.4" d="M3999.869,287.431
			c-129.852-134.303-278.277-218.385-413.49-224.792"/>
		<path fill-rule="evenodd" clip-rule="evenodd" fill="none" stroke="#F6F6F0" stroke-width="0.4" d="M3999.869,292.923
			c-129.068-136.786-278.277-223.878-413.49-230.285"/>
		<path fill-rule="evenodd" clip-rule="evenodd" fill="none" stroke="#F6F6F0" stroke-width="0.4" d="M3999.869,298.417
			c-128.284-139.14-278.277-229.371-413.49-235.778"/>
		<path fill-rule="evenodd" clip-rule="evenodd" fill="none" stroke="#F6F6F0" stroke-width="0.4" d="M3999.869,303.777
			c-127.631-141.362-278.277-234.732-413.49-241.139"/>
		<path fill-rule="evenodd" clip-rule="evenodd" fill="none" stroke="#F6F6F0" stroke-width="0.4" d="M3999.869,309.269
			c-126.848-143.712-278.277-240.223-413.49-246.63"/>
		<path fill-rule="evenodd" clip-rule="evenodd" fill="none" stroke="#F6F6F0" stroke-width="0.4" d="M3999.869,314.764
			c-126.062-146.073-278.277-245.718-413.49-252.125"/>
		<path fill-rule="evenodd" clip-rule="evenodd" fill="none" stroke="#F6F6F0" stroke-width="0.4" d="M3999.869,320.255
			c-125.275-148.556-278.277-251.209-413.49-257.616"/>
		<path fill-rule="evenodd" clip-rule="evenodd" fill="none" stroke="#F6F6F0" stroke-width="0.4" d="M3999.869,325.746
			c-124.493-150.907-278.277-256.7-413.49-263.107"/>
	</g>
	<path fill-rule="evenodd" clip-rule="evenodd" fill="none" stroke="#F6F6F0" stroke-width="0.4" d="M3999.869,331.109
		c-123.707-153.131-278.277-262.064-413.49-268.471"/>
</g>
</svg>
