<?xml version="1.0" encoding="utf-8"?>
<!-- Generator: Adobe Illustrator 16.0.0, SVG Export Plug-In . SVG Version: 6.00 Build 0)  -->
<!DOCTYPE svg PUBLIC "-//W3C//DTD SVG 1.1//EN" "http://www.w3.org/Graphics/SVG/1.1/DTD/svg11.dtd">
<svg version="1.1" xmlns="http://www.w3.org/2000/svg" xmlns:xlink="http://www.w3.org/1999/xlink" x="0px" y="0px" width="21px"
	 height="24px" viewBox="0 0 21 24" enable-background="new 0 0 21 24" xml:space="preserve">
<g id="Layer_7" display="none">
</g>
<g id="Content">
	<g>
		<g>
			<path fill="#001948" d="M18.804,21.15c-0.545,0.533-1.393,0.492-1.884-0.092l-3.826-4.551c-0.491-0.584-0.446-1.498,0.099-2.031
				l1.014-0.992c0.545-0.533,1.393-0.492,1.884,0.092l3.826,4.552c0.491,0.584,0.446,1.498-0.099,2.031L18.804,21.15z"/>
			<path fill="#001948" d="M1.5,8.052c0-0.809,0.123-1.629,0.379-2.431c1.243-3.883,5.162-5.939,8.752-4.597
				c2.845,1.062,4.631,3.944,4.631,7.028c0,0.806-0.123,1.628-0.379,2.432c-1.243,3.882-5.159,5.94-8.75,4.597
				C3.286,14.014,1.5,11.136,1.5,8.052 M3.365,8.052c0,2.311,1.356,4.37,3.376,5.121c1.268,0.476,2.625,0.388,3.833-0.245
				c1.203-0.632,2.107-1.737,2.547-3.104c0.184-0.574,0.275-1.172,0.275-1.772c0-2.311-1.356-4.366-3.376-5.125
				C8.756,2.456,7.396,2.543,6.19,3.175c-1.206,0.634-2.11,1.738-2.55,3.102l0,0C3.457,6.854,3.365,7.452,3.365,8.052L3.365,8.052z"
				/>
		</g>
		<g>
			<g>
				<g>
					<g>
						<g>
							<path fill="#FFFFFF" d="M18.804,22.537c-0.545,0.533-1.393,0.492-1.884-0.092l-3.826-4.551
								c-0.491-0.584-0.446-1.498,0.099-2.031l1.014-0.992c0.545-0.533,1.393-0.492,1.884,0.092l3.826,4.552
								c0.491,0.584,0.446,1.498-0.099,2.031L18.804,22.537z"/>
						</g>
					</g>
				</g>
				<g>
					<path fill="#FFFFFF" d="M1.5,9.438c0-0.809,0.123-1.629,0.379-2.431c1.243-3.883,5.162-5.939,8.752-4.597
						c2.845,1.062,4.631,3.944,4.631,7.028c0,0.806-0.123,1.628-0.379,2.432c-1.243,3.882-5.159,5.94-8.75,4.597
						C3.286,15.401,1.5,12.522,1.5,9.438 M3.365,9.438c0,2.311,1.356,4.37,3.376,5.121c1.268,0.476,2.625,0.388,3.833-0.245
						c1.203-0.632,2.107-1.737,2.547-3.104c0.184-0.574,0.275-1.172,0.275-1.772c0-2.311-1.356-4.366-3.376-5.125
						C8.756,3.842,7.396,3.93,6.19,4.562c-1.206,0.634-2.11,1.738-2.55,3.102l0,0C3.457,8.24,3.365,8.839,3.365,9.438L3.365,9.438z"
						/>
				</g>
			</g>
		</g>
	</g>
</g>
<g id="Golden_Section_Guides" display="none">
</g>
<g id="_x31_2-column_x2C__962_Guides" display="none">
</g>
<g id="LESS_Guides">
</g>
<g id="Horizontal_9px_guides">
</g>
</svg>
