<svg version="1.1" xmlns="http://www.w3.org/2000/svg" width="345px" height="30px" viewBox="0 0 345 30" >
<defs>
  <filter id="shadow" x="-50%" y="-50%" width="200%" height="200%">
    <feOffset result="offOut" in="SourceGraphic" dx="0" dy="0" />
    <feColorMatrix result="matrixOut" in="offOut" type="matrix"
      values="0.0 0 0 0 0 0 0.098 0 0 0 0 0 0.2812 0 0 0 0 0 1 0" />
    <feGaussianBlur result="blurOut" in="matrixOut" stdDeviation="5" />
    <feBlend in="SourceGraphic" in2="blurOut" mode="normal" />
  </filter>
  
  <filter id="shadow2" x="-50%" y="-50%" width="200%" height="200%">
    <feOffset result="offOut" in="SourceGraphic" dx="0" dy="0" />
    <feColorMatrix result="matrixOut" in="offOut" type="matrix"
      values="0.0 0 0 0 0 0 0.098 0 0 0 0 0 0.28125 0 0 0 0 0 .4 0" />
    <feGaussianBlur result="blurOut" in="matrixOut" stdDeviation="3" />
    <feBlend in="SourceGraphic" in2="blurOut" mode="normal" />
  </filter>
</defs>

<g id="BYU">
	<path fill="#FFFFFF" filter="url(#shadow2)" d="M67.033,25.375c-8.778,0-10.621-4.85-10.621-8.916V6.596c0-0.544-0.089-0.803-0.351-1.022
		c-0.224-0.195-0.418-0.293-0.724-0.364l-0.042-0.042L55.21,5.024l0.012-0.112l0.146-0.037h9.59l0.048,0.147l0.014,0.11
		l-0.125,0.073c-0.596,0.132-0.856,0.202-1.324,0.433c-0.281,0.143-0.326,0.4-0.326,0.96l-0.001,10.032
		c0,2.416,1.452,3.918,3.79,3.918c2.335,0,3.786-1.502,3.786-3.918V6.593c0-0.537-0.032-0.807-0.329-0.959
		c-0.459-0.226-0.723-0.296-1.305-0.424l-0.11-0.025L69.06,5.021l0.014-0.109l0.141-0.035h10.149l0.047,0.139l0.017,0.105
		l-0.119,0.083c-0.604,0.134-0.865,0.204-1.334,0.435c-0.278,0.143-0.324,0.398-0.324,0.955v9.866
		C77.649,20.525,75.808,25.375,67.033,25.375z"/>
	<path fill="#FFFFFF" filter="url(#shadow2)" d="M7.636,25.012l-0.041-0.154L7.587,24.74l0.136-0.057c0.551-0.123,0.822-0.195,1.306-0.428
		c0.292-0.15,0.325-0.424,0.325-0.969L9.358,6.593c0-0.539-0.032-0.809-0.324-0.959C8.568,5.407,8.306,5.336,7.729,5.209H7.583
		l0.02-0.195l0.016-0.106l0.139-0.033h13.001c5.707,0,8.035,1.463,8.035,5.052c0,2.189-0.911,3.643-2.709,4.324
		c2.249,0.678,3.386,2.309,3.386,4.852c0,2.695-1.425,5.908-8.214,5.908H7.636z M18.762,20.922c2.322,0,3.499-0.779,3.499-2.316
		c0-2.312-2.015-2.312-3.793-2.312h-2.524v4.629H18.762L18.762,20.922z M18.954,12.968c1.93,0,2.95-0.727,2.95-2.101
		c0-1.683-1.021-1.99-3.032-1.99h-2.928v4.091H18.954z"/>
	<path fill="#FFFFFF" filter="url(#shadow2)"  d="M36.639,25.014l-0.041-0.154l-0.008-0.115l0.133-0.061c0.568-0.123,0.835-0.203,1.312-0.428
		c0.279-0.145,0.325-0.402,0.325-0.967l-0.002-6.377L31.5,6.796c-0.385-0.568-0.613-0.842-0.905-1.083
		c-0.049-0.043-0.175-0.129-0.22-0.15c-0.467-0.228-0.654-0.276-1.067-0.353h-0.145l0.012-0.195l0.016-0.107l0.139-0.033h9.865
		l0.045,0.142l0.015,0.108l-0.124,0.078c-0.327,0.009-0.568,0.092-0.708,0.238c-0.108,0.112-0.159,0.265-0.15,0.454
		c0.019,0.559,1.831,3.232,3.029,5.001c0.299,0.441,0.579,0.854,0.815,1.209c0.193-0.313,0.563-0.869,1.01-1.539
		c1.058-1.583,2.824-4.234,2.843-4.671c0.012-0.244-0.035-0.422-0.138-0.529c-0.136-0.142-0.362-0.154-0.565-0.154l-0.117-0.02
		l-0.036-0.175l0.014-0.11l0.142-0.033h9.295l0.045,0.14l0.016,0.107l-0.122,0.081c-0.34,0.078-0.472,0.142-0.758,0.326
		c-0.069,0.044-0.181,0.137-0.229,0.181c-0.299,0.249-0.526,0.523-0.906,1.09l-6.891,10.224l0.021,6.271
		c0,0.541,0.031,0.811,0.326,0.963c0.474,0.225,0.742,0.303,1.307,0.426h0.134l-0.015,0.291l-0.15,0.041H36.639V25.014z"/>
</g>
		
<g id="Brigham-Young-University">
	<path fill="#FFFFFF" filter="url(#shadow)" d="M99.486,19.002c-0.301,0-0.522-0.007-0.735-0.014l-0.103-0.003c-0.186-0.005-0.33-0.011-0.498-0.011
		c-0.189,0-0.739,0.014-0.739,0.014c-0.292,0.007-0.6,0.014-0.907,0.014l-0.102-0.008l-0.11-0.071l-0.058-0.153
		c-0.026-0.193,0.067-0.351,0.224-0.389c0.497-0.052,0.784-0.091,0.894-0.154c0.052-0.047,0.146-0.467,0.146-2.726V13.61
		c0-2.257-0.092-2.677-0.146-2.728c-0.114-0.064-0.402-0.104-0.859-0.147l-0.181-0.019l-0.082-0.313
		c0.021-0.208,0.153-0.296,0.274-0.296c0.307,0,0.614,0.008,0.906,0.015c0,0,0.559,0.012,0.74,0.012
		c0.211,0,0.382-0.006,0.557-0.012c0.259-0.008,0.477-0.015,0.778-0.015c1.989,0,2.711,1.248,2.711,2.088
		c0,0.703-0.387,1.357-1.089,1.841c1.182,0.312,1.867,1.155,1.867,2.228C102.975,17.527,102.061,19.002,99.486,19.002z M99.33,14.6
		c-0.323,0-0.496,0.008-0.583,0.015c0.053,0.108,0.056,0.468,0.055,1.317v0.293c0,1.627,0.105,1.871,0.11,1.881
		c0.027,0.015,0.365,0.127,0.948,0.127c0.998,0,1.669-0.66,1.669-1.644C101.529,15.398,100.645,14.6,99.33,14.6z M98.802,10.918
		c0.009,0.059,0.007,0.229,0.005,0.631l-0.005,1.309c0,0.64,0.011,0.91,0.019,1.021c0.086-0.023,0.2-0.027,0.354-0.027
		c0.087,0,0.186,0.002,0.3,0.002c0.841,0,1.304-0.496,1.304-1.397c-0.001-1.044-0.665-1.591-1.319-1.591
		C99.127,10.864,98.893,10.898,98.802,10.918z"/>
	<path fill="#FFFFFF" filter="url(#shadow)" d="M106.083,19.002l-0.107-0.234c-0.027-0.191,0.066-0.348,0.223-0.387c0.527-0.057,0.719-0.093,0.829-0.154
		c0.039-0.037,0.148-0.385,0.148-2.726V13.61c0-2.341-0.111-2.691-0.159-2.733c-0.098-0.055-0.305-0.093-0.783-0.142l-0.181-0.02
		l-0.082-0.312c0.021-0.208,0.154-0.297,0.275-0.297c0.271,0,0.535,0.006,0.787,0.012c0.326,0.009,0.565,0.015,0.792,0.015
		s0.463-0.006,0.709-0.013c0.324-0.008,0.585-0.014,0.857-0.014c2.08,0,3.01,1.16,3.01,2.309c0,0.967-0.531,1.85-1.497,2.486
		c1.644,2.34,2.66,3.367,3.412,3.367c0.135,0,0.269,0,0.356-0.012l0.106-0.004l0.123,0.062l0.08,0.178
		c0.03,0.167-0.019,0.352-0.189,0.406c-0.307,0.062-0.51,0.074-0.826,0.074c-0.832,0-1.254-0.112-1.809-0.48
		c-0.659-0.453-1.336-1.346-2.416-3.182c-0.184,0.028-0.397,0.03-0.602,0.03c-0.256,0-0.496-0.003-0.728-0.013l0.052,0.169
		c0,2.343,0.11,2.687,0.157,2.726c0.092,0.049,0.39,0.08,0.735,0.117l0.286,0.031c0.199,0.039,0.286,0.212,0.272,0.363
		l-0.085,0.197l-0.166,0.065h-3.579V19.002z M108.534,14.527c0.137,0.019,0.457,0.062,0.979,0.062c0.95,0,1.447-0.847,1.447-1.683
		c0-0.969-0.414-2.004-1.575-2.004c-0.378,0-0.748,0.047-0.864,0.072c0.01,0.03,0.006,0.141-0.005,0.405
		c-0.018,0.42-0.048,1.15-0.048,2.229c0,0.639,0.02,0.847,0.031,0.912L108.534,14.527z"/>
	<path fill="#FFFFFF" filter="url(#shadow)" d="M116.484,19.002l-0.103-0.238c-0.018-0.168,0.063-0.349,0.25-0.385c0.371-0.04,0.786-0.084,0.905-0.152
		c0.053-0.047,0.148-0.467,0.148-2.726V13.61c0-2.257-0.092-2.677-0.147-2.727c-0.127-0.073-0.563-0.116-0.882-0.148
		c-0.204-0.04-0.293-0.216-0.277-0.366l0.087-0.198l0.142-0.057l3.578-0.007l0.107,0.231c0.023,0.164-0.047,0.345-0.223,0.39
		c-0.404,0.043-0.817,0.088-0.932,0.154c-0.039,0.036-0.148,0.387-0.148,2.728v1.891c0,2.342,0.111,2.69,0.159,2.731
		c0.107,0.062,0.537,0.105,0.882,0.143l0.181,0.02l0.085,0.308c-0.019,0.212-0.151,0.301-0.274,0.301L116.484,19.002
		L116.484,19.002z"/>
	<path fill="#FFFFFF" filter="url(#shadow)" d="M127.833,19.081c-2.617,0-4.746-1.983-4.746-4.423c0-2.301,1.612-4.628,4.694-4.628
		c0.795,0,1.391,0.149,1.826,0.261c0.26,0.064,0.459,0.115,0.604,0.115l0.101-0.012l0.123-0.002l0.226,0.186l0.062,0.624
		c0.019,0.399,0.042,0.874,0.042,1.344l-0.007,0.103l-0.073,0.121c-0.21,0.069-0.211,0.069-0.22,0.069
		c-0.189,0-0.328-0.104-0.352-0.269c-0.034-0.318-0.21-0.687-0.429-0.896c-0.445-0.417-1.247-0.838-2.032-0.838
		c-2.162,0-3.13,1.73-3.13,3.444c0,1.9,1.315,3.923,3.753,3.923c0.443,0,0.95-0.088,1.322-0.229
		c-0.054-2.198-0.114-2.645-0.149-2.709c-0.059-0.018-0.423-0.062-0.809-0.109c-0.174-0.008-0.303-0.145-0.303-0.328l0.067-0.215
		l0.153-0.075l3.247-0.011l0.095,0.289c0.001,0.106-0.032,0.195-0.092,0.255c-0.053,0.053-0.124,0.082-0.2,0.082
		c-0.455,0.06-0.6,0.079-0.69,0.14c0.001,0.01-0.072,0.27-0.046,2.693v0.119C130.011,18.758,128.969,19.081,127.833,19.081z"/>
	<path fill="#FFFFFF" filter="url(#shadow)" d="M140.729,19.002l-0.106-0.234c-0.025-0.191,0.068-0.349,0.224-0.387c0.514-0.055,0.708-0.091,0.836-0.158
		c0.026-0.028,0.139-0.33,0.139-2.722v-0.669l-4.589,0.05l0.05,0.619c0,2.256,0.092,2.677,0.147,2.726
		c0.11,0.062,0.309,0.103,0.78,0.148l0.178,0.02l0.085,0.309c-0.02,0.211-0.152,0.3-0.274,0.3h-3.313l-0.105-0.235
		c-0.021-0.162,0.05-0.344,0.226-0.387c0.454-0.048,0.703-0.084,0.825-0.154c0.031-0.029,0.148-0.324,0.148-2.725V13.61
		c0-2.341-0.11-2.691-0.157-2.733c-0.097-0.055-0.304-0.093-0.782-0.142c-0.209-0.05-0.282-0.228-0.265-0.37l0.088-0.192
		l0.14-0.058l3.358-0.008l0.107,0.231c0.023,0.164-0.047,0.345-0.222,0.39c-0.507,0.054-0.704,0.091-0.818,0.155
		c-0.051,0.048-0.146,0.468-0.146,2.727v0.485l4.589-0.05l-0.05-0.437c0-2.34-0.11-2.691-0.157-2.733
		c-0.111-0.057-0.312-0.094-0.784-0.142l-0.182-0.021l-0.081-0.312c0.021-0.208,0.152-0.295,0.274-0.295h3.31l0.109,0.23
		c0.023,0.164-0.047,0.346-0.222,0.389c-0.514,0.056-0.708,0.093-0.838,0.16c-0.034,0.034-0.139,0.385-0.139,2.723V15.5
		c0,2.4,0.117,2.695,0.152,2.729c0.114,0.061,0.314,0.098,0.789,0.146l0.179,0.02l0.084,0.309c-0.019,0.211-0.152,0.3-0.275,0.3
		L140.729,19.002L140.729,19.002z"/>
	<path fill="#FFFFFF" filter="url(#shadow)" d="M151.73,19.002l-0.113-0.243c-0.026-0.188,0.062-0.34,0.214-0.377l0.134-0.016
		c0.099-0.011,0.397-0.038,0.44-0.067c-0.037-0.189-0.774-2.035-1.016-2.642l-2.31,0.053c-0.529,1.531-0.797,2.369-0.797,2.603
		c0.041,0.013,0.449,0.05,0.602,0.063l0.185,0.019l0.074,0.306c-0.019,0.187-0.132,0.304-0.282,0.304h-2.598l-0.119-0.252
		c-0.023-0.188,0.072-0.337,0.23-0.37c0.392-0.042,0.576-0.075,0.716-0.179c0.171-0.119,0.578-1.057,1.211-2.786l0.867-2.38
		c0.341-0.923,0.693-1.877,0.955-2.727c0.066-0.156,0.185-0.243,0.329-0.243c0.152,0,0.277,0.098,0.32,0.249
		c0.405,1.172,0.736,2.07,1.182,3.205l0.727,1.892c0.692,1.747,1.098,2.715,1.263,2.821c0.151,0.089,0.308,0.104,0.592,0.135
		c0.342,0.062,0.339,0.297,0.33,0.367l-0.079,0.187l-0.173,0.081L151.73,19.002z M149.388,14.956l1.79-0.065l-0.926-2.33
		L149.388,14.956z"/>
	<path fill="#FFFFFF" filter="url(#shadow)" d="M162.125,19.064l-0.188-0.104l-2.93-5.698l-0.061,2.193c-0.226,2.516-0.06,2.773-0.025,2.8
		c0.066,0.054,0.42,0.091,0.591,0.107l0.294,0.032l0.078,0.299c-0.018,0.188-0.132,0.309-0.283,0.309h-2.899l-0.1-0.229
		c-0.021-0.161,0.056-0.351,0.235-0.395c0.357-0.037,0.742-0.076,0.833-0.162c0.046-0.039,0.205-0.352,0.374-2.734l0.132-1.891
		l0.044-0.734c0.054-0.903,0.103-1.725,0.123-2.481c0.031-0.187,0.167-0.301,0.346-0.301l0.163,0.038l0.099,0.089l3.488,6.879
		l3.13-6.887c0.237-0.116,0.237-0.116,0.25-0.116c0.207,0,0.357,0.128,0.357,0.305c0.06,1.047,0.125,1.994,0.245,3.203
		l0.194,1.891c0.117,1.053,0.295,2.645,0.413,2.746c0.125,0.066,0.324,0.104,0.813,0.152c0.203,0.047,0.3,0.232,0.281,0.387
		l-0.101,0.198l-0.136,0.039l-3.224,0.003l-0.117-0.254c-0.022-0.189,0.074-0.337,0.232-0.368l0.181-0.021
		c0.182-0.02,0.426-0.045,0.476-0.086c0.021-0.03,0.097-0.35-0.169-2.744l-0.229-2.326l-2.602,5.755l-0.235,0.106H162.125
		L162.125,19.064z"/>
			
	<path fill="#FFFFFF" filter="url(#shadow)" d="M177.433,19.002l-0.105-0.234c-0.021-0.164,0.051-0.345,0.228-0.388c0.384-0.041,0.812-0.086,0.929-0.151
		c0.031-0.03,0.148-0.326,0.148-2.739v-0.377l-0.188-0.272c-0.211-0.354-0.436-0.728-0.695-1.152l-1.077-1.709
		c-0.49-0.78-0.714-1.138-0.787-1.162c-0.147-0.062-0.265-0.066-0.478-0.078l-0.389-0.023l-0.104-0.253
		c-0.004-0.12,0.031-0.22,0.096-0.284c0.05-0.052,0.116-0.078,0.188-0.078h2.953l0.101,0.289c0.002,0.138-0.048,0.215-0.089,0.256
		c-0.051,0.053-0.121,0.082-0.192,0.082l-0.134,0.006c-0.125,0.005-0.297,0.012-0.401,0.024c0.156,0.177,0.572,0.927,0.976,1.656
		l1.106,1.87l1.167-2.096c0.6-0.953,0.754-1.31,0.793-1.433c-0.013,0.001-0.027,0.001-0.043,0.001
		c-0.139,0-0.383-0.018-0.55-0.029l-0.224-0.094l-0.057-0.181c-0.002-0.119,0.031-0.213,0.094-0.276
		c0.049-0.051,0.117-0.078,0.188-0.078h2.643l0.101,0.291c0.002,0.138-0.048,0.213-0.089,0.256
		c-0.051,0.052-0.121,0.08-0.192,0.08c-0.366,0.026-0.589,0.041-0.731,0.1c-0.096,0.047-0.615,0.892-1.11,1.711l-0.7,1.152
		c-0.312,0.507-0.621,1.008-0.906,1.498l0.034,0.297c0,2.361,0.111,2.712,0.159,2.753c0.107,0.062,0.539,0.104,0.885,0.142
		l0.182,0.02l0.084,0.31c-0.021,0.211-0.152,0.299-0.275,0.299h-3.535V19.002z"/>
	<path fill="#FFFFFF" filter="url(#shadow)" d="M189.804,19.081c-2.51,0-4.475-1.942-4.475-4.423c0-2.227,1.779-4.628,4.654-4.628
		c2.508,0,4.473,1.94,4.473,4.421c0,1.173-0.463,2.338-1.271,3.197C192.313,18.572,191.112,19.081,189.804,19.081z M189.737,10.893
		c-2.056,0-2.977,1.703-2.977,3.393c0,1.9,1.328,3.938,3.303,3.938c2.045,0,2.963-1.703,2.963-3.393
		C193.026,12.928,191.704,10.893,189.737,10.893z"/>
	<path fill="#FFFFFF" filter="url(#shadow)" d="M201.401,19.081c-2.061,0-3.5-1.344-3.5-3.269V13.61c0-2.341-0.111-2.691-0.158-2.733
		c-0.102-0.057-0.303-0.094-0.785-0.142l-0.182-0.019l-0.08-0.314c0.021-0.207,0.152-0.295,0.273-0.295h3.377l0.111,0.244
		c0.023,0.191-0.074,0.345-0.234,0.379c-0.471,0.049-0.744,0.087-0.863,0.153c-0.051,0.048-0.145,0.468-0.145,2.727v1.97
		c0,1.518,0.975,2.497,2.482,2.497c1.336,0,2.199-0.925,2.199-2.356v-2.108c0-2.365-0.107-2.679-0.141-2.718
		c-0.096-0.088-0.527-0.129-0.814-0.157l-0.176-0.019l-0.086-0.283c0.014-0.2,0.129-0.326,0.287-0.326h2.922l0.113,0.244
		c0.025,0.191-0.062,0.341-0.217,0.377c-0.471,0.048-0.707,0.084-0.795,0.164c-0.039,0.047-0.141,0.41-0.141,2.717v2.175
		C204.853,17.383,203.642,19.081,201.401,19.081z"/>
	<path fill="#FFFFFF" filter="url(#shadow)" d="M217.013,19.066c-0.115,0-0.223-0.041-0.291-0.112l-6.078-6.481l0.131,3.024
		c0.023,2.039,0.162,2.58,0.275,2.676c0.039,0.024,0.449,0.149,0.791,0.162l0.105,0.013l0.113,0.08l0.055,0.201
		c0.002,0.129-0.033,0.23-0.098,0.296c-0.049,0.05-0.113,0.076-0.186,0.076h-3.143l-0.113-0.264
		c-0.023-0.207,0.068-0.364,0.229-0.397c0.607-0.063,0.793-0.148,0.85-0.195c0.033-0.033,0.15-0.338,0.127-2.642l-0.031-2.499
		c-0.01-0.902-0.02-1.816-0.07-2.634c0-0.087,0.027-0.158,0.084-0.216c0.07-0.07,0.178-0.11,0.297-0.11
		c0.141,0,0.256,0.06,0.316,0.16l6.053,6.472l-0.129-3.062c-0.01-1.644-0.098-2.541-0.26-2.672
		c-0.066-0.052-0.275-0.123-0.885-0.167c-0.184-0.036-0.285-0.187-0.264-0.381l0.066-0.184l0.145-0.086l3.242-0.018l0.111,0.264
		c0.025,0.209-0.062,0.361-0.225,0.398c-0.447,0.048-0.691,0.106-0.799,0.194c-0.033,0.034-0.154,0.336-0.143,2.644l0.02,2.777
		c0.006,0.754,0.01,1.606,0.059,2.352l-0.053,0.186C217.247,19.018,217.136,19.066,217.013,19.066z"/>
	<path fill="#FFFFFF" filter="url(#shadow)" d="M226.021,19.081c-2.615,0-4.744-1.983-4.744-4.423c0-2.301,1.611-4.628,4.693-4.628
		c0.793,0,1.389,0.149,1.824,0.261c0.266,0.066,0.463,0.115,0.605,0.115l0.1-0.012l0.123-0.002l0.227,0.187l0.061,0.594
		c0.02,0.409,0.043,0.896,0.043,1.373l-0.008,0.103l-0.072,0.119c-0.209,0.071-0.211,0.071-0.219,0.071
		c-0.189,0-0.328-0.104-0.354-0.271c-0.035-0.318-0.213-0.686-0.432-0.894c-0.443-0.417-1.244-0.838-2.027-0.838
		c-2.164,0-3.135,1.73-3.135,3.444c0,1.9,1.316,3.923,3.756,3.923c0.443,0,0.951-0.088,1.322-0.229
		c-0.055-2.091-0.107-2.631-0.148-2.709c-0.061-0.018-0.422-0.062-0.807-0.109c-0.176-0.006-0.307-0.145-0.307-0.328l0.066-0.215
		l0.152-0.075l3.248-0.011l0.092,0.289c0.002,0.199-0.121,0.337-0.293,0.337c-0.455,0.06-0.594,0.077-0.689,0.141
		c0.002,0.009-0.068,0.267-0.045,2.692v0.119C228.198,18.758,227.155,19.081,226.021,19.081z"/>
		
	<path fill="#FFFFFF" filter="url(#shadow)" d="M243.2,19.085c-2.076,0-3.582-1.375-3.582-3.271v-2.202c0-2.078-0.074-2.585-0.139-2.646
		c-0.104-0.062-0.266-0.136-0.791-0.191c-0.215-0.057-0.283-0.244-0.262-0.408l0.08-0.186l0.139-0.065l3.574-0.011l0.105,0.237
		c0.033,0.206-0.055,0.378-0.213,0.423c-0.467,0.056-0.754,0.117-0.889,0.195c-0.041,0.036-0.148,0.373-0.148,2.65v1.865
		c0,1.496,0.975,2.502,2.42,2.502c1.578,0,2.141-1.217,2.141-2.355v-2.012c0-2.192-0.094-2.603-0.15-2.651
		c-0.062-0.052-0.258-0.127-0.82-0.187c-0.184-0.047-0.279-0.202-0.254-0.396l0.072-0.179l0.141-0.08l3.135-0.016l0.119,0.271
		c0.025,0.205-0.068,0.36-0.23,0.396c-0.182,0.021-0.652,0.072-0.777,0.187c-0.045,0.041-0.15,0.381-0.15,2.654v2.177
		C246.72,17.387,245.485,19.085,243.2,19.085z"/>
	<path fill="#FFFFFF" filter="url(#shadow)" d="M258.552,19.071c-0.076,0-0.219-0.015-0.314-0.112l-6.045-6.312l0.131,2.851
		c0.018,1.649,0.105,2.55,0.266,2.672c0.041,0.026,0.447,0.155,0.795,0.172l0.102,0.013l0.111,0.078l0.061,0.194
		c0.002,0.134-0.033,0.237-0.1,0.306c-0.051,0.051-0.115,0.076-0.188,0.076h-3.236l-0.117-0.277
		c-0.02-0.204,0.078-0.356,0.24-0.387c0.605-0.062,0.789-0.147,0.842-0.192c0.033-0.033,0.152-0.335,0.133-2.646l-0.033-2.478
		c-0.01-0.858-0.02-1.819-0.072-2.655c0.098-0.226,0.236-0.326,0.424-0.326c0.205,0,0.299,0.089,0.342,0.163l6.018,6.299
		l-0.131-2.891c-0.008-1.645-0.096-2.544-0.26-2.678c-0.066-0.051-0.275-0.12-0.871-0.164c-0.184-0.036-0.287-0.182-0.27-0.369
		l0.062-0.182l0.148-0.098l3.34-0.021l0.117,0.271c0.021,0.203-0.068,0.357-0.229,0.393c-0.436,0.05-0.697,0.111-0.781,0.188
		c-0.08,0.069-0.17,0.583-0.15,2.644l0.012,1.898c0,1.102,0,2.24,0.064,3.242C258.962,18.895,258.853,19.071,258.552,19.071z"/>
	<path fill="#FFFFFF" filter="url(#shadow)" d="M262.808,19.008l-0.104-0.249c-0.021-0.179,0.041-0.37,0.229-0.413c0.682-0.07,0.879-0.166,0.924-0.192
		c0.057-0.048,0.152-0.454,0.152-2.65v-1.891c0-2.271-0.104-2.609-0.146-2.649c-0.084-0.049-0.316-0.125-0.9-0.188
		c-0.186-0.047-0.287-0.208-0.262-0.405l0.08-0.187l0.141-0.066l3.721-0.01l0.111,0.257c0.021,0.209-0.076,0.373-0.24,0.405
		c-0.596,0.066-0.822,0.142-0.908,0.191c-0.062,0.047-0.162,0.45-0.162,2.65v1.891c0,2.085,0.082,2.589,0.152,2.645
		c0.096,0.058,0.324,0.138,0.893,0.194c0.178,0.031,0.287,0.188,0.271,0.38l-0.07,0.189l-0.176,0.098H262.808z"/>
	<path fill="#FFFFFF" filter="url(#shadow)" d="M273.313,19.051c-0.344,0-0.439-0.156-0.463-0.251c-0.406-1.134-0.76-2.062-1.223-3.202l-0.764-1.894
		c-0.908-2.187-1.152-2.636-1.307-2.735c-0.146-0.1-0.369-0.156-0.742-0.193c-0.184-0.043-0.281-0.195-0.258-0.391l0.072-0.18
		l0.143-0.083l3.275-0.017l0.117,0.271c0.023,0.204-0.068,0.359-0.229,0.394c-0.48,0.058-0.547,0.129-0.549,0.132
		c0.008,0.235,0.32,1.124,0.938,2.614l1.229,3.242l1.182-3.238c0.541-1.367,0.805-2.211,0.805-2.577
		c0-0.041-0.113-0.123-0.541-0.167c-0.18-0.036-0.281-0.185-0.264-0.369l0.064-0.184l0.146-0.097l2.896-0.021l0.113,0.256
		c0.029,0.209-0.055,0.365-0.213,0.406c-0.395,0.041-0.539,0.103-0.682,0.207c-0.074,0.059-0.301,0.235-1.303,2.729l-0.949,2.392
		c-0.365,0.928-0.736,1.866-1.029,2.721C273.714,18.973,273.556,19.051,273.313,19.051z"/>
	<path fill="#FFFFFF" filter="url(#shadow)" d="M285.14,19.02c-0.318,0-0.643-0.006-0.984-0.013c-0.611-0.014-1.115-0.024-1.701-0.024
		c-0.578,0-0.955,0.007-1.441,0.015l-0.885,0.015l-0.107-0.25c-0.023-0.179,0.039-0.371,0.225-0.416
		c0.535-0.056,0.713-0.125,0.826-0.193c0.057-0.047,0.15-0.454,0.15-2.65V13.61c0-2.328-0.111-2.617-0.146-2.649
		c-0.107-0.062-0.287-0.134-0.799-0.188c-0.184-0.045-0.287-0.207-0.262-0.404l0.08-0.186l0.139-0.067
		c1.07,0.006,2.559,0.017,3.402,0.017c1.131,0,1.541-0.014,1.91-0.062l0.186-0.024l0.162,0.263l-0.012,0.418
		c-0.029,0.379-0.062,0.802-0.131,1.336l-0.102,0.196c-0.182,0.05-0.182,0.05-0.188,0.05c-0.18,0-0.377-0.137-0.377-0.318
		c0-0.339-0.045-0.525-0.154-0.645c-0.184-0.191-0.59-0.273-1.361-0.273c-0.367,0-0.719,0.009-0.932,0.018
		c0.037,0.133,0.023,0.495,0.023,1.225v1.685l0.816-0.05c1.164,0,1.186-0.127,1.23-0.403l0.104-0.188
		c0.029-0.017,0.211-0.051,0.213-0.051c0.268,0,0.361,0.151,0.361,0.28c-0.008,0.239-0.018,0.439-0.025,0.631
		c-0.021,0.438-0.039,0.78-0.039,1.25l-0.01,0.116l-0.084,0.112c-0.033,0.02-0.223,0.046-0.223,0.046
		c-0.176,0-0.361-0.109-0.361-0.287c0-0.221-0.064-0.393-0.109-0.432c-0.047-0.047-0.148-0.15-1.068-0.15h-0.854l0.049,0.632
		c0,2.125,0.207,2.355,0.217,2.364c0.084,0.093,0.264,0.177,1.016,0.177c0.656,0,1.109-0.112,1.311-0.323
		c0.146-0.172,0.262-0.422,0.355-0.787l0.098-0.162c0,0,0.166-0.058,0.17-0.058c0.15,0,0.258,0.048,0.322,0.127l0.064,0.132
		c-0.018,0.34-0.105,1.377-0.293,1.694C285.772,18.908,285.524,19.02,285.14,19.02z"/>
	<path fill="#FFFFFF" filter="url(#shadow)" d="M289.437,19.007l-0.109-0.265c-0.02-0.209,0.076-0.366,0.244-0.399c0.518-0.054,0.693-0.126,0.797-0.189
		c0.104-0.08,0.152-0.972,0.152-2.651V13.61c0-2.188-0.088-2.599-0.141-2.647c-0.104-0.06-0.268-0.133-0.789-0.189
		c-0.182-0.036-0.285-0.189-0.268-0.383l0.07-0.188l0.143-0.083c0.148-0.009,0.271-0.011,0.393-0.011
		c0.199,0,0.391,0.005,0.574,0.01c0,0,0.557,0.013,0.746,0.013c0.191,0,0.713-0.013,0.713-0.013
		c0.271-0.008,0.559-0.016,0.855-0.016c2.123,0,3.088,1.199,3.088,2.312c0,0.975-0.531,1.87-1.496,2.523
		c1.578,2.258,2.627,3.296,3.416,3.296c0.129,0,0.266-0.001,0.34-0.013l0.109-0.008l0.125,0.063l0.08,0.186
		c0.033,0.173,0.006,0.372-0.17,0.437c-0.33,0.068-0.605,0.082-0.918,0.082c-0.857,0-1.33-0.121-1.875-0.482
		c-0.705-0.488-1.408-1.393-2.428-3.118c-0.166,0.031-0.352,0.034-0.523,0.034c-0.229,0-0.436-0.005-0.652-0.014l0.053,0.099
		c0,2.194,0.094,2.603,0.148,2.649c0.18,0.111,0.809,0.169,1.014,0.188c0.195,0.042,0.303,0.202,0.277,0.399l-0.078,0.188
		l-0.17,0.081L289.437,19.007L289.437,19.007z M292.011,14.391c0,0,0.166,0.127,0.924,0.127c0.957,0,1.387-0.807,1.387-1.604
		c0-0.711-0.197-1.903-1.516-1.903c-0.42,0-0.701,0.086-0.73,0.104c-0.086,0.567-0.107,1.673-0.107,2.5
		C291.968,14.229,291.993,14.364,292.011,14.391L292.011,14.391z"/>
	<path fill="#FFFFFF" filter="url(#shadow)" d="M302.235,19.073c-1.34,0-2.195-0.681-2.266-0.972c-0.096-0.434-0.105-1.127-0.031-1.858l0.092-0.201
		c0.215-0.065,0.215-0.065,0.225-0.065c0.211,0,0.361,0.129,0.361,0.308c0.035,0.399,0.172,0.813,0.357,1.075
		c0.252,0.354,0.705,0.775,1.432,0.775c0.801,0,1.318-0.519,1.318-1.32c0-0.808-0.752-1.321-1.547-1.866
		c-0.938-0.64-1.902-1.298-1.902-2.528c0-1.566,1.324-2.413,2.57-2.413c0.549,0,0.877,0.104,1.117,0.179
		c0.139,0.043,0.242,0.078,0.342,0.078c0.039,0,0.082-0.007,0.127-0.018l0.135-0.004l0.217,0.189l0.041,0.549
		c0.006,0.381,0.014,0.824-0.006,1.309l-0.012,0.105l-0.08,0.11c-0.031,0.021-0.23,0.058-0.23,0.058
		c-0.17,0-0.357-0.123-0.357-0.301c-0.035-0.352-0.199-0.729-0.408-0.938c-0.254-0.265-0.59-0.404-0.977-0.404
		c-0.676,0-1.111,0.416-1.111,1.062c0,0.625,0.729,1.142,1.504,1.687c0.973,0.687,2.076,1.462,2.076,2.722
		C305.22,18.15,303.718,19.073,302.235,19.073z"/>
	<path fill="#FFFFFF" filter="url(#shadow)" d="M308.642,19.008l-0.102-0.246c-0.021-0.178,0.039-0.371,0.227-0.416c0.684-0.07,0.883-0.166,0.926-0.192
		c0.057-0.048,0.152-0.454,0.152-2.65v-1.891c0-2.327-0.111-2.616-0.146-2.649c-0.084-0.048-0.314-0.124-0.902-0.188
		c-0.211-0.055-0.279-0.245-0.258-0.41l0.082-0.188l0.137-0.062l3.723-0.009l0.107,0.26c0.023,0.21-0.072,0.369-0.236,0.402
		c-0.65,0.071-0.855,0.158-0.91,0.191c-0.061,0.043-0.162,0.444-0.162,2.65v1.891c0,2.087,0.084,2.591,0.154,2.646
		c0.094,0.056,0.322,0.135,0.891,0.191c0.182,0.032,0.287,0.186,0.27,0.379l-0.066,0.188l-0.176,0.101H308.642z"/>
	<path fill="#FFFFFF" filter="url(#shadow)" d="M317.149,19.008l-0.102-0.249c-0.025-0.213,0.066-0.376,0.229-0.413c0.621-0.064,0.85-0.149,0.93-0.195
		c0.055-0.047,0.146-0.454,0.146-2.647V12.34c0-0.273,0-0.962-0.027-1.272c-0.059,0.028-0.166,0.032-0.297,0.032
		c-0.041,0-0.082,0-0.127,0c-1.172,0-1.797,0.109-2.088,0.368c-0.152,0.13-0.264,0.46-0.309,0.73l-0.102,0.188
		c-0.186,0.055-0.186,0.055-0.193,0.055c-0.186,0-0.385-0.122-0.385-0.305c0.078-0.688,0.156-1.396,0.184-1.832
		c0-0.158,0.148-0.285,0.34-0.285c0.594,0.095,1.842,0.142,3.723,0.142c2.871,0,3.482-0.078,3.703-0.153L322.923,10l0.225,0.198
		c0.039,0.438,0.021,1.224-0.068,1.989l-0.021,0.101l-0.084,0.101c-0.031,0.019-0.205,0.045-0.207,0.045
		c-0.252,0-0.367-0.154-0.367-0.299c0-0.31-0.064-0.576-0.166-0.682c-0.129-0.132-0.568-0.354-2.061-0.354
		c-0.176,0-0.305,0.006-0.406,0.013c0.02,0.268,0.02,0.955,0.02,1.229v3.162c0,2.193,0.096,2.603,0.15,2.649
		c0.08,0.044,0.307,0.13,0.895,0.188c0.209,0.046,0.281,0.233,0.266,0.399l-0.08,0.189l-0.164,0.077L317.149,19.008
		L317.149,19.008z"/>
	<path fill="#FFFFFF" filter="url(#shadow)" d="M327.835,19.008l-0.105-0.249c-0.025-0.214,0.068-0.376,0.229-0.413c0.635-0.063,0.852-0.147,0.928-0.192
		c0.055-0.048,0.148-0.456,0.148-2.661v-0.376c-0.184-0.273-0.389-0.611-0.621-0.997l-0.262-0.43l-0.727-1.147
		c-0.904-1.446-1.096-1.616-1.223-1.671c-0.182-0.062-0.34-0.096-0.688-0.109l-0.107-0.013l-0.109-0.08l-0.055-0.204
		c-0.002-0.129,0.033-0.229,0.098-0.296c0.049-0.049,0.111-0.075,0.184-0.075h2.918c0.168,0,0.289,0.146,0.289,0.348l-0.059,0.209
		l-0.162,0.097c-0.27,0.021-0.41,0.05-0.48,0.071c0.041,0.035,0.107,0.144,0.234,0.352c0.131,0.212,0.326,0.526,0.617,0.979
		l1.139,1.932l1.074-1.896c0.719-1.141,0.721-1.363,0.719-1.386c-0.018,0.005-0.037,0.007-0.062,0.007
		c-0.092,0-0.238-0.024-0.463-0.043l-0.207-0.092l-0.059-0.191c-0.002-0.135,0.033-0.238,0.1-0.307
		c0.053-0.051,0.115-0.076,0.188-0.076h2.658c0.168,0,0.289,0.146,0.289,0.349l-0.061,0.209l-0.162,0.095
		c-0.396,0.042-0.621,0.085-0.789,0.155c-0.07,0.034-0.297,0.146-1.191,1.637l-0.703,1.151c-0.34,0.556-0.633,1.035-0.9,1.5
		l0.031,0.297c0,2.211,0.094,2.621,0.15,2.67c0.062,0.033,0.285,0.125,0.895,0.188c0.18,0.032,0.287,0.186,0.271,0.379
		l-0.07,0.189l-0.176,0.098h-3.717V19.008z"/>
</g>


</svg>
