<svg version="1.1" xmlns="http://www.w3.org/2000/svg" viewBox="0 0 270 80" >
<defs>

  <radialGradient id="SVGID_1_" cx="-378.8394" cy="934.5" r="84.8605" gradientTransform="matrix(0.9545 0 0 -1 497.6023 981)" gradientUnits="userSpaceOnUse">
  	<stop  offset="0" style="stop-color:#F9FCFE"/>
  	<stop  offset="0.25" style="stop-color:#F3F8FC;stop-opacity:0.85"/>
  	<stop  offset="0.5" style="stop-color:#E4EEF7;stop-opacity:0.65"/>
  	<stop  offset="0.75" style="stop-color:#CADCEE;stop-opacity:0.45"/>
  	<stop  offset="1" style="stop-color:#ABC8E4;stop-opacity:0.25"/>
  </radialGradient>

  <filter id="shadow" x="-50%" y="-50%" width="200%" height="200%">
    <feOffset result="offOut" in="SourceGraphic" dx="0" dy="0" />
    <feColorMatrix result="matrixOut" in="offOut" type="matrix"
      values="0.0 0 0 0 0 0 0.098 0 0 0 0 0 0.2812 0 0 0 0 0 1 0" />
    <feGaussianBlur result="blurOut" in="matrixOut" stdDeviation="5" />
    <feBlend in="SourceGraphic" in2="blurOut" mode="normal" />
  </filter>
  
  <filter id="shadow2" x="-50%" y="-50%" width="200%" height="200%">
    <feOffset result="offOut" in="SourceGraphic" dx="0" dy="0" />
    <feColorMatrix result="matrixOut" in="offOut" type="matrix"
      values="0.0 0 0 0 0 0 0.098 0 0 0 0 0 0.28125 0 0 0 0 0 .4 0" />
    <feGaussianBlur result="blurOut" in="matrixOut" stdDeviation="3" />
    <feBlend in="SourceGraphic" in2="blurOut" mode="normal" />
  </filter>
</defs>

<g id="BYU">
	<path fill="#FFFFFF" filter="url(#shadow2)" d="M163.791,37.573c-10.622,0-12.852-5.875-12.852-10.804v-11.84c0-0.629-0.094-0.909-0.385-1.152
		c-0.255-0.224-0.479-0.336-0.825-0.416l-0.023-0.005l-0.081-0.068l-0.116-0.205c0.009-0.211,0.129-0.321,0.277-0.321h11.584
		l0.079,0.243c0.024,0.171-0.06,0.31-0.197,0.348c-0.724,0.161-1.024,0.241-1.577,0.514c-0.283,0.145-0.334,0.404-0.334,1.063
		l-0.001,12.043c0,2.84,1.705,4.605,4.449,4.605c2.742,0,4.445-1.765,4.445-4.605V14.924c0-0.654-0.052-0.913-0.342-1.062
		c-0.543-0.267-0.854-0.35-1.54-0.5l-0.205-0.045l-0.026-0.27c0.02-0.174,0.14-0.285,0.286-0.285h12.259l0.077,0.237
		c0.027,0.169-0.057,0.311-0.195,0.353c-0.728,0.163-1.029,0.244-1.58,0.516c-0.25,0.127-0.324,0.337-0.333,0.935l0.004,0.118
		v11.849C176.639,33.736,172.076,37.573,163.791,37.573z"/>
	<path fill="#FFFFFF" filter="url(#shadow2)" d="M92.408,37.134l-0.07-0.259l-0.018-0.229l0.227-0.097c0.671-0.151,0.995-0.237,1.568-0.512
		c0.285-0.146,0.333-0.396,0.333-1.072l0.004-20.04c0-0.667-0.048-0.915-0.335-1.062c-0.549-0.268-0.859-0.35-1.542-0.5
		l-0.266,0.002l0.037-0.347c0.024-0.152,0.142-0.255,0.286-0.255h15.604c6.922,0,9.746,1.786,9.746,6.164
		c0,2.567-1.028,4.309-3.058,5.181c2.569,0.872,3.871,2.834,3.871,5.835c0,3.281-1.728,7.192-9.961,7.192H92.408z M105.842,32.024
		c2.722,0,4.102-0.902,4.102-2.68c0-2.678-2.265-2.678-4.455-2.678h-2.93v5.358H105.842z M106.072,22.477
		c1.57,0,3.442-0.42,3.442-2.422c0-1.947-1.142-2.289-3.541-2.289h-3.414v4.711H106.072z"/>
	<path fill="#FFFFFF" filter="url(#shadow2)" d="M127.224,37.138l-0.07-0.26c-0.016-0.177,0.084-0.314,0.229-0.336c0.665-0.144,0.983-0.237,1.549-0.505
		c0.282-0.146,0.333-0.407,0.333-1.069l-0.002-7.655l-8.215-12.089c-0.45-0.668-0.719-0.991-1.066-1.281
		c-0.056-0.047-0.199-0.145-0.244-0.166c-0.57-0.278-0.797-0.328-1.256-0.414l-0.262,0.002l0.021-0.342
		c0.021-0.154,0.141-0.261,0.285-0.261h11.916L130.519,13c0.025,0.171-0.06,0.312-0.199,0.351c-0.383,0.014-0.653,0.102-0.803,0.259
		c-0.11,0.115-0.162,0.273-0.153,0.472c0.022,0.643,2.273,3.967,3.619,5.953c0.342,0.505,0.637,0.94,0.892,1.322
		c0.246-0.389,0.65-0.994,1.127-1.709c1.183-1.774,3.381-5.069,3.402-5.566c0.011-0.261-0.037-0.455-0.139-0.562
		c-0.136-0.141-0.384-0.153-0.606-0.153h-0.039l-0.087-0.026l-0.145-0.013h-0.154l0.149-0.333c0.009-0.122,0.128-0.231,0.275-0.231
		h11.229l0.077,0.234c0.028,0.167-0.051,0.31-0.186,0.354c-0.405,0.093-0.561,0.168-0.893,0.381
		c-0.081,0.052-0.208,0.16-0.266,0.209c-0.35,0.292-0.628,0.628-1.067,1.286l-8.272,12.274l0.043,7.471
		c0,0.67,0.049,0.918,0.338,1.067c0.555,0.265,0.872,0.357,1.542,0.501l0.245-0.002l-0.014,0.315
		c-0.01,0.163-0.134,0.284-0.289,0.284H127.224z"/>
</g>

<rect id="divider" x="55" y="46" opacity="0.5" fill="url(#SVGID_1_)" enable-background="new    " width="162" height="1"/>

<g id="Brigham-Young-University">
	<path fill="#FFFFFF" filter="url(#shadow)" d="M19.788,67.172c-0.301,0-0.522-0.007-0.735-0.014l-0.103-0.003c-0.186-0.005-0.33-0.01-0.498-0.01
		c-0.189,0-0.739,0.013-0.739,0.013c-0.292,0.007-0.6,0.014-0.907,0.014l-0.102-0.008l-0.11-0.071l-0.058-0.154
		c-0.026-0.193,0.067-0.35,0.224-0.388c0.497-0.052,0.784-0.091,0.894-0.154c0.052-0.047,0.146-0.467,0.146-2.726V61.78
		c0-2.256-0.092-2.677-0.146-2.727c-0.114-0.065-0.402-0.104-0.859-0.148l-0.181-0.018l-0.082-0.314
		c0.021-0.208,0.153-0.295,0.274-0.295c0.307,0,0.614,0.007,0.906,0.014c0,0,0.559,0.012,0.74,0.012
		c0.211,0,0.382-0.006,0.557-0.012c0.259-0.008,0.477-0.014,0.778-0.014c1.989,0,2.711,1.248,2.711,2.087
		c0,0.704-0.387,1.357-1.089,1.841c1.182,0.312,1.867,1.156,1.867,2.228C23.277,65.697,22.363,67.172,19.788,67.172z M19.632,62.769
		c-0.323,0-0.496,0.008-0.583,0.015c0.053,0.108,0.056,0.468,0.055,1.318v0.293c0,1.626,0.105,1.87,0.11,1.88
		c0.027,0.015,0.365,0.127,0.948,0.127c0.998,0,1.669-0.66,1.669-1.643C21.831,63.568,20.947,62.769,19.632,62.769z M19.104,59.088
		c0.009,0.058,0.007,0.229,0.005,0.631l-0.005,1.309c0,0.639,0.011,0.909,0.019,1.021c0.086-0.023,0.2-0.028,0.354-0.028
		c0.087,0,0.186,0.002,0.3,0.002c0.841,0,1.304-0.496,1.304-1.397c-0.001-1.044-0.665-1.591-1.319-1.591
		C19.429,59.034,19.195,59.068,19.104,59.088z"/>
	<path fill="#FFFFFF" filter="url(#shadow)" d="M26.386,67.172l-0.107-0.234c-0.027-0.192,0.066-0.348,0.223-0.387c0.527-0.057,0.719-0.093,0.829-0.155
		c0.039-0.036,0.148-0.384,0.148-2.725V61.78c0-2.341-0.111-2.691-0.159-2.733c-0.098-0.055-0.305-0.093-0.783-0.142l-0.181-0.019
		l-0.082-0.312c0.021-0.208,0.154-0.296,0.275-0.296c0.271,0,0.535,0.005,0.787,0.011c0.326,0.009,0.565,0.015,0.792,0.015
		s0.463-0.006,0.709-0.013c0.324-0.008,0.585-0.013,0.857-0.013c2.08,0,3.01,1.159,3.01,2.308c0,0.967-0.531,1.85-1.497,2.486
		c1.644,2.34,2.66,3.368,3.412,3.368c0.135,0,0.269-0.001,0.356-0.012l0.106-0.004l0.123,0.062l0.08,0.178
		c0.03,0.167-0.019,0.352-0.189,0.406c-0.307,0.063-0.51,0.074-0.826,0.074c-0.832,0-1.254-0.112-1.809-0.48
		c-0.659-0.453-1.336-1.345-2.416-3.181c-0.184,0.028-0.397,0.03-0.602,0.03c-0.256,0-0.496-0.003-0.728-0.013l0.052,0.169
		c0,2.343,0.11,2.686,0.157,2.725c0.092,0.049,0.39,0.081,0.735,0.118l0.286,0.031c0.199,0.039,0.286,0.212,0.272,0.363
		l-0.085,0.198l-0.166,0.065H26.386z M28.836,62.697c0.137,0.019,0.457,0.062,0.979,0.062c0.95,0,1.447-0.847,1.447-1.683
		c0-0.969-0.414-2.004-1.575-2.004c-0.378,0-0.748,0.047-0.864,0.072c0.01,0.031,0.006,0.141-0.005,0.406
		c-0.018,0.42-0.048,1.15-0.048,2.229c0,0.639,0.02,0.847,0.031,0.913L28.836,62.697z"/>
	<path fill="#FFFFFF" filter="url(#shadow)" d="M36.786,67.172l-0.103-0.239c-0.018-0.167,0.063-0.348,0.25-0.384c0.371-0.04,0.786-0.084,0.905-0.152
		c0.053-0.047,0.148-0.467,0.148-2.726V61.78c0-2.256-0.092-2.676-0.147-2.726c-0.127-0.074-0.563-0.117-0.882-0.149
		c-0.204-0.04-0.293-0.215-0.277-0.366l0.087-0.198l0.142-0.057l3.578-0.006l0.107,0.231c0.023,0.164-0.047,0.345-0.223,0.389
		c-0.404,0.044-0.817,0.088-0.932,0.155c-0.039,0.036-0.148,0.386-0.148,2.727v1.891c0,2.342,0.111,2.691,0.159,2.732
		c0.107,0.062,0.537,0.105,0.882,0.142l0.181,0.02l0.085,0.307c-0.019,0.212-0.151,0.301-0.274,0.301H36.786z"/>
	<path fill="#FFFFFF" filter="url(#shadow)" d="M48.136,67.251c-2.617,0-4.746-1.984-4.746-4.423c0-2.3,1.612-4.628,4.694-4.628
		c0.795,0,1.391,0.15,1.826,0.261c0.26,0.065,0.459,0.115,0.604,0.115l0.101-0.011l0.123-0.002l0.226,0.185l0.062,0.624
		c0.019,0.4,0.042,0.874,0.042,1.344l-0.007,0.103l-0.073,0.12c-0.21,0.07-0.211,0.07-0.22,0.07c-0.189,0-0.328-0.105-0.352-0.269
		c-0.034-0.318-0.21-0.686-0.429-0.895c-0.445-0.417-1.247-0.838-2.032-0.838c-2.162,0-3.13,1.73-3.13,3.444
		c0,1.901,1.315,3.923,3.753,3.923c0.443,0,0.95-0.088,1.322-0.229c-0.054-2.199-0.114-2.645-0.149-2.709
		c-0.059-0.018-0.423-0.062-0.809-0.11c-0.174-0.007-0.303-0.145-0.303-0.328l0.067-0.215l0.153-0.075l3.247-0.011l0.095,0.289
		c0.001,0.107-0.032,0.195-0.092,0.255c-0.053,0.053-0.124,0.082-0.2,0.082c-0.455,0.06-0.6,0.079-0.69,0.14
		c0.001,0.01-0.072,0.27-0.046,2.693v0.119C50.313,66.928,49.271,67.251,48.136,67.251z"/>
	<path fill="#FFFFFF" filter="url(#shadow)" d="M61.031,67.172l-0.106-0.234c-0.025-0.192,0.068-0.349,0.224-0.387c0.514-0.055,0.708-0.091,0.836-0.158
		c0.026-0.029,0.139-0.33,0.139-2.722v-0.669l-4.589,0.05l0.05,0.619c0,2.256,0.092,2.676,0.147,2.726
		c0.11,0.062,0.309,0.102,0.78,0.148l0.178,0.02l0.085,0.308c-0.02,0.211-0.152,0.3-0.274,0.3h-3.313l-0.105-0.235
		c-0.021-0.163,0.05-0.344,0.226-0.387c0.454-0.048,0.703-0.084,0.825-0.154c0.031-0.03,0.148-0.325,0.148-2.725V61.78
		c0-2.341-0.11-2.691-0.157-2.733c-0.097-0.055-0.304-0.093-0.782-0.142c-0.209-0.05-0.282-0.227-0.265-0.37l0.088-0.192l0.14-0.058
		l3.358-0.007l0.107,0.231c0.023,0.164-0.047,0.345-0.222,0.389c-0.507,0.054-0.704,0.091-0.818,0.156
		c-0.051,0.047-0.146,0.467-0.146,2.726v0.486l4.589-0.05l-0.05-0.437c0-2.34-0.11-2.691-0.157-2.733
		c-0.111-0.057-0.312-0.094-0.784-0.142l-0.182-0.02l-0.081-0.312c0.021-0.208,0.152-0.295,0.274-0.295h3.31l0.109,0.231
		c0.023,0.164-0.047,0.345-0.222,0.389c-0.514,0.055-0.708,0.092-0.838,0.16c-0.034,0.034-0.139,0.385-0.139,2.722v1.891
		c0,2.4,0.117,2.695,0.152,2.729c0.114,0.06,0.314,0.097,0.789,0.146l0.179,0.02l0.084,0.308c-0.019,0.211-0.152,0.3-0.275,0.3
		H61.031z"/>
	<path fill="#FFFFFF" filter="url(#shadow)" d="M72.032,67.172l-0.113-0.243c-0.026-0.188,0.062-0.34,0.214-0.377l0.134-0.016
		c0.099-0.01,0.397-0.038,0.44-0.067c-0.037-0.19-0.774-2.035-1.016-2.642l-2.31,0.053c-0.529,1.531-0.797,2.369-0.797,2.603
		c0.041,0.012,0.449,0.049,0.602,0.063l0.185,0.018l0.074,0.306c-0.019,0.187-0.132,0.304-0.282,0.304h-2.598l-0.119-0.252
		c-0.023-0.188,0.072-0.337,0.23-0.37c0.392-0.042,0.576-0.075,0.716-0.179c0.171-0.119,0.578-1.057,1.211-2.786l0.867-2.38
		c0.341-0.923,0.693-1.877,0.955-2.726c0.066-0.157,0.185-0.244,0.329-0.244c0.152,0,0.277,0.098,0.32,0.249
		c0.405,1.172,0.736,2.071,1.182,3.205l0.727,1.892c0.692,1.747,1.098,2.715,1.263,2.821c0.151,0.089,0.308,0.105,0.592,0.135
		c0.342,0.062,0.339,0.297,0.33,0.367l-0.079,0.187l-0.173,0.081L72.032,67.172z M69.69,63.126l1.79-0.066l-0.926-2.33L69.69,63.126
		z"/>
	<path fill="#FFFFFF" filter="url(#shadow)" d="M82.428,67.234l-0.189-0.104l-2.93-5.698l-0.061,2.193c-0.226,2.515-0.06,2.773-0.025,2.8
		c0.066,0.053,0.42,0.09,0.591,0.107l0.294,0.033l0.078,0.298c-0.018,0.189-0.132,0.309-0.283,0.309h-2.899l-0.1-0.228
		c-0.021-0.162,0.056-0.351,0.235-0.395c0.357-0.037,0.742-0.077,0.833-0.162c0.046-0.039,0.205-0.352,0.374-2.734l0.132-1.891
		l0.044-0.734c0.054-0.904,0.103-1.725,0.123-2.482c0.031-0.186,0.167-0.301,0.346-0.301l0.163,0.038l0.099,0.089l3.488,6.879
		l3.13-6.887c0.237-0.116,0.237-0.116,0.25-0.116c0.207,0,0.357,0.128,0.357,0.305c0.06,1.047,0.125,1.994,0.245,3.203l0.194,1.891
		c0.117,1.052,0.295,2.644,0.413,2.746c0.125,0.066,0.324,0.104,0.813,0.152c0.203,0.047,0.3,0.233,0.281,0.387l-0.101,0.198
		l-0.136,0.039l-3.224,0.003l-0.117-0.254c-0.022-0.189,0.074-0.337,0.232-0.368l0.181-0.021c0.182-0.019,0.426-0.045,0.476-0.085
		c0.021-0.031,0.097-0.35-0.169-2.745l-0.229-2.326l-2.602,5.755l-0.235,0.107H82.428z"/>
	<path fill="#FFFFFF" filter="url(#shadow)" d="M97.735,67.172l-0.106-0.235c-0.021-0.163,0.051-0.344,0.228-0.387c0.384-0.041,0.812-0.086,0.929-0.152
		c0.031-0.03,0.148-0.326,0.148-2.739v-0.377l-0.188-0.272c-0.211-0.354-0.435-0.728-0.694-1.152l-1.078-1.71
		c-0.49-0.78-0.714-1.137-0.787-1.162c-0.148-0.061-0.265-0.066-0.477-0.078l-0.389-0.023l-0.103-0.253
		c-0.004-0.12,0.031-0.22,0.095-0.284c0.05-0.052,0.116-0.079,0.188-0.079h2.953l0.1,0.29c0.002,0.137-0.047,0.214-0.088,0.256
		c-0.051,0.052-0.122,0.081-0.193,0.081l-0.134,0.006c-0.125,0.005-0.297,0.012-0.401,0.025c0.156,0.177,0.572,0.927,0.976,1.656
		l1.106,1.87l1.167-2.096c0.599-0.953,0.753-1.309,0.793-1.432c-0.013,0.001-0.027,0.001-0.043,0.001
		c-0.139,0-0.383-0.018-0.55-0.03l-0.223-0.093l-0.057-0.181c-0.002-0.119,0.031-0.213,0.093-0.276
		c0.05-0.051,0.117-0.078,0.188-0.078h2.643l0.1,0.291c0.002,0.137-0.047,0.213-0.088,0.255c-0.051,0.052-0.122,0.081-0.193,0.081
		c-0.366,0.026-0.589,0.041-0.732,0.099c-0.095,0.047-0.615,0.892-1.11,1.711l-0.7,1.153c-0.312,0.506-0.621,1.007-0.906,1.497
		l0.034,0.297c0,2.361,0.111,2.712,0.159,2.753c0.108,0.062,0.539,0.105,0.885,0.142l0.181,0.02l0.084,0.309
		c-0.02,0.211-0.152,0.299-0.275,0.299H97.735z"/>
	<path fill="#FFFFFF" filter="url(#shadow)" d="M110.105,67.251c-2.509,0-4.474-1.942-4.474-4.423c0-2.226,1.78-4.628,4.655-4.628
		c2.508,0,4.473,1.941,4.473,4.421c0,1.173-0.463,2.338-1.273,3.197C112.616,66.742,111.415,67.251,110.105,67.251z M110.04,59.062
		c-2.056,0-2.977,1.704-2.977,3.393c0,1.901,1.327,3.938,3.302,3.938c2.046,0,2.963-1.704,2.963-3.393
		C113.328,61.098,112.007,59.062,110.04,59.062z"/>
	<path fill="#FFFFFF" filter="url(#shadow)" d="M121.703,67.251c-2.061,0-3.5-1.344-3.5-3.269V61.78c0-2.34-0.11-2.691-0.157-2.733
		c-0.103-0.057-0.303-0.094-0.785-0.142l-0.182-0.018l-0.081-0.315c0.021-0.207,0.153-0.294,0.274-0.294h3.377l0.111,0.243
		c0.023,0.192-0.074,0.345-0.234,0.379c-0.471,0.049-0.745,0.087-0.863,0.154c-0.051,0.047-0.145,0.467-0.145,2.726v1.97
		c0,1.517,0.974,2.497,2.482,2.497c1.336,0,2.199-0.925,2.199-2.356v-2.109c0-2.365-0.107-2.679-0.141-2.718
		c-0.094-0.087-0.527-0.129-0.814-0.157l-0.175-0.018l-0.087-0.283c0.014-0.201,0.13-0.327,0.287-0.327h2.922l0.114,0.245
		c0.025,0.191-0.062,0.34-0.217,0.377c-0.471,0.047-0.707,0.083-0.794,0.164c-0.04,0.046-0.141,0.41-0.141,2.716v2.175
		C125.154,65.553,123.944,67.251,121.703,67.251z"/>
	<path fill="#FFFFFF" filter="url(#shadow)" d="M137.314,67.236c-0.114,0-0.221-0.041-0.29-0.112l-6.079-6.482l0.131,3.025
		c0.023,2.039,0.163,2.58,0.275,2.676c0.039,0.024,0.45,0.149,0.792,0.162l0.106,0.012l0.112,0.08l0.055,0.202
		c0.002,0.129-0.032,0.23-0.097,0.296c-0.05,0.05-0.113,0.076-0.185,0.076h-3.143l-0.113-0.264
		c-0.025-0.207,0.067-0.364,0.227-0.397c0.609-0.064,0.794-0.149,0.851-0.195c0.032-0.034,0.15-0.339,0.127-2.642l-0.032-2.499
		c-0.01-0.903-0.019-1.816-0.07-2.634c-0.001-0.087,0.028-0.158,0.084-0.216c0.07-0.07,0.178-0.11,0.297-0.11
		c0.141,0,0.256,0.059,0.316,0.16l6.052,6.472l-0.129-3.062c-0.009-1.643-0.096-2.541-0.258-2.672
		c-0.067-0.052-0.277-0.123-0.886-0.167c-0.184-0.036-0.285-0.186-0.264-0.38l0.068-0.184l0.144-0.086l3.241-0.017l0.112,0.263
		c0.026,0.209-0.062,0.362-0.224,0.398c-0.448,0.048-0.692,0.107-0.799,0.195c-0.034,0.034-0.154,0.336-0.143,2.644l0.02,2.777
		c0.005,0.753,0.01,1.606,0.058,2.351l-0.052,0.186C137.549,67.188,137.438,67.236,137.314,67.236z"/>
	<path fill="#FFFFFF" filter="url(#shadow)" d="M146.322,67.251c-2.615,0-4.743-1.984-4.743-4.423c0-2.3,1.611-4.628,4.692-4.628
		c0.793,0,1.39,0.15,1.825,0.261c0.266,0.066,0.462,0.115,0.605,0.115l0.101-0.011l0.123-0.002l0.225,0.186l0.061,0.594
		c0.02,0.409,0.043,0.895,0.043,1.373l-0.007,0.102l-0.072,0.12c-0.21,0.071-0.211,0.071-0.22,0.071
		c-0.19,0-0.328-0.105-0.353-0.271c-0.035-0.318-0.213-0.685-0.431-0.893c-0.444-0.417-1.244-0.838-2.029-0.838
		c-2.164,0-3.133,1.73-3.133,3.444c0,1.901,1.315,3.923,3.754,3.923c0.444,0,0.952-0.088,1.324-0.229
		c-0.056-2.091-0.109-2.632-0.15-2.709c-0.059-0.018-0.422-0.062-0.806-0.11c-0.176-0.006-0.307-0.144-0.307-0.328l0.066-0.215
		l0.153-0.075l3.248-0.011l0.093,0.289c0.001,0.199-0.122,0.337-0.293,0.337c-0.456,0.06-0.595,0.077-0.69,0.141
		c0.002,0.009-0.069,0.267-0.046,2.692v0.119C148.5,66.928,147.458,67.251,146.322,67.251z"/>
	<path fill="#FFFFFF" filter="url(#shadow)" d="M163.503,67.255c-2.076,0-3.583-1.375-3.583-3.271v-2.202c0-2.078-0.075-2.585-0.138-2.645
		c-0.104-0.062-0.267-0.136-0.791-0.192c-0.215-0.056-0.284-0.244-0.262-0.408l0.08-0.185l0.138-0.066l3.574-0.01l0.106,0.237
		c0.033,0.206-0.055,0.378-0.212,0.423c-0.467,0.055-0.755,0.117-0.889,0.195c-0.042,0.036-0.148,0.373-0.148,2.65v1.866
		c0,1.496,0.973,2.501,2.42,2.501c1.577,0,2.14-1.217,2.14-2.355v-2.012c0-2.192-0.094-2.602-0.15-2.651
		c-0.063-0.052-0.258-0.127-0.821-0.186c-0.184-0.048-0.28-0.203-0.253-0.396l0.072-0.179l0.141-0.08l3.134-0.015l0.118,0.27
		c0.026,0.205-0.067,0.36-0.229,0.395c-0.183,0.021-0.653,0.073-0.777,0.187c-0.046,0.041-0.151,0.381-0.151,2.654v2.177
		C167.021,65.557,165.788,67.255,163.503,67.255z"/>
	<path fill="#FFFFFF" filter="url(#shadow)" d="M178.853,67.241c-0.076,0-0.217-0.015-0.313-0.112l-6.045-6.312l0.131,2.85
		c0.017,1.65,0.105,2.55,0.265,2.672c0.04,0.026,0.447,0.155,0.794,0.172l0.102,0.012l0.112,0.078l0.06,0.195
		c0.002,0.134-0.033,0.237-0.1,0.305c-0.05,0.051-0.114,0.077-0.186,0.077h-3.237l-0.117-0.277c-0.02-0.205,0.078-0.357,0.24-0.387
		c0.606-0.063,0.788-0.148,0.842-0.193c0.033-0.033,0.152-0.335,0.133-2.646l-0.034-2.478c-0.009-0.858-0.019-1.819-0.071-2.655
		c0.096-0.225,0.236-0.326,0.422-0.326c0.206,0,0.3,0.089,0.342,0.163l6.018,6.299l-0.131-2.891
		c-0.008-1.644-0.095-2.544-0.259-2.677c-0.067-0.051-0.275-0.121-0.872-0.165c-0.184-0.036-0.287-0.181-0.269-0.369l0.063-0.182
		l0.147-0.097l3.341-0.021l0.116,0.271c0.023,0.203-0.068,0.357-0.228,0.393c-0.436,0.049-0.696,0.111-0.781,0.188
		c-0.079,0.069-0.17,0.583-0.15,2.644l0.012,1.898c0,1.102,0,2.24,0.064,3.242C179.263,67.065,179.155,67.241,178.853,67.241z"/>
	<path fill="#FFFFFF" filter="url(#shadow)" d="M183.11,67.178l-0.104-0.249c-0.021-0.179,0.041-0.371,0.229-0.413c0.681-0.071,0.879-0.166,0.923-0.193
		c0.057-0.047,0.152-0.454,0.152-2.65v-1.891c0-2.27-0.102-2.609-0.146-2.649c-0.084-0.049-0.316-0.125-0.9-0.188
		c-0.185-0.046-0.287-0.208-0.262-0.405l0.081-0.187l0.139-0.066l3.721-0.01l0.111,0.257c0.023,0.209-0.075,0.373-0.239,0.406
		c-0.596,0.066-0.822,0.141-0.908,0.191c-0.062,0.047-0.163,0.45-0.163,2.65v1.891c0,2.085,0.083,2.589,0.153,2.644
		c0.095,0.058,0.324,0.138,0.892,0.195c0.178,0.031,0.287,0.187,0.271,0.38l-0.069,0.189l-0.177,0.098H183.11z"/>
	<path fill="#FFFFFF" filter="url(#shadow)" d="M193.615,67.221c-0.344,0-0.438-0.157-0.462-0.251c-0.406-1.134-0.761-2.063-1.224-3.203l-0.763-1.893
		c-0.908-2.186-1.152-2.636-1.306-2.735c-0.146-0.1-0.369-0.157-0.743-0.194c-0.184-0.043-0.281-0.195-0.257-0.39l0.071-0.18
		l0.143-0.083l3.276-0.016l0.118,0.27c0.023,0.204-0.069,0.359-0.23,0.394c-0.479,0.057-0.546,0.128-0.548,0.131
		c0.007,0.235,0.32,1.124,0.937,2.615l1.229,3.242l1.182-3.239c0.541-1.367,0.804-2.21,0.804-2.577c0-0.041-0.114-0.123-0.541-0.167
		c-0.179-0.036-0.282-0.184-0.263-0.369l0.064-0.184l0.147-0.096l2.896-0.02l0.113,0.255c0.029,0.209-0.055,0.365-0.212,0.406
		c-0.396,0.042-0.539,0.103-0.683,0.208c-0.073,0.058-0.301,0.235-1.302,2.729l-0.949,2.392c-0.366,0.927-0.737,1.866-1.03,2.72
		C194.016,67.143,193.857,67.221,193.615,67.221z"/>
	<path fill="#FFFFFF" filter="url(#shadow)" d="M205.441,67.19c-0.318,0-0.642-0.006-0.983-0.013c-0.612-0.014-1.115-0.024-1.701-0.024
		c-0.579,0-0.955,0.006-1.443,0.014l-0.885,0.014l-0.107-0.25c-0.022-0.178,0.039-0.37,0.226-0.415
		c0.534-0.056,0.712-0.126,0.825-0.194c0.056-0.047,0.15-0.454,0.15-2.65V61.78c0-2.328-0.111-2.617-0.146-2.649
		c-0.108-0.063-0.286-0.134-0.798-0.188c-0.185-0.045-0.287-0.207-0.262-0.404l0.079-0.186l0.14-0.067
		c1.069,0.006,2.558,0.017,3.401,0.017c1.131,0,1.542-0.014,1.911-0.063l0.186-0.024l0.162,0.262l-0.013,0.419
		c-0.028,0.378-0.061,0.801-0.13,1.336l-0.102,0.196c-0.182,0.049-0.182,0.049-0.188,0.049c-0.178,0-0.376-0.136-0.376-0.318
		c0-0.339-0.045-0.525-0.154-0.644c-0.184-0.192-0.591-0.274-1.362-0.274c-0.366,0-0.719,0.009-0.931,0.018
		c0.037,0.133,0.024,0.495,0.024,1.224v1.685l0.815-0.05c1.165,0,1.186-0.127,1.231-0.403l0.104-0.188
		c0.028-0.017,0.211-0.051,0.213-0.051c0.267,0,0.36,0.151,0.36,0.28c-0.007,0.239-0.016,0.439-0.025,0.631
		c-0.021,0.438-0.038,0.78-0.038,1.25l-0.01,0.116l-0.085,0.112c-0.033,0.02-0.222,0.046-0.223,0.046
		c-0.174,0-0.361-0.109-0.361-0.287c0-0.221-0.063-0.392-0.109-0.431c-0.047-0.047-0.149-0.151-1.069-0.151h-0.853l0.05,0.632
		c0,2.125,0.206,2.355,0.215,2.364c0.084,0.093,0.265,0.177,1.016,0.177c0.656,0,1.109-0.112,1.312-0.324
		c0.146-0.171,0.26-0.421,0.354-0.786l0.098-0.163c0,0,0.167-0.057,0.17-0.057c0.151,0,0.258,0.047,0.323,0.127l0.063,0.132
		c-0.017,0.339-0.105,1.377-0.292,1.694C206.075,67.078,205.826,67.19,205.441,67.19z"/>
	<path fill="#FFFFFF" filter="url(#shadow)" d="M209.738,67.177l-0.108-0.265c-0.021-0.209,0.076-0.366,0.243-0.399c0.518-0.054,0.693-0.126,0.798-0.19
		c0.102-0.08,0.152-0.972,0.152-2.651V61.78c0-2.188-0.088-2.598-0.141-2.647c-0.104-0.06-0.268-0.133-0.79-0.19
		c-0.18-0.036-0.285-0.189-0.267-0.382l0.07-0.188l0.143-0.083c0.149-0.009,0.271-0.011,0.392-0.011c0.2,0,0.391,0.005,0.575,0.01
		c0,0,0.557,0.013,0.746,0.013c0.191,0,0.713-0.013,0.713-0.013c0.271-0.008,0.558-0.015,0.856-0.015
		c2.122,0,3.088,1.198,3.088,2.312c0,0.975-0.531,1.87-1.496,2.523c1.577,2.258,2.626,3.296,3.415,3.296
		c0.129,0,0.265-0.001,0.34-0.012l0.11-0.008l0.124,0.063l0.08,0.186c0.034,0.173,0.006,0.372-0.17,0.436
		c-0.329,0.069-0.604,0.083-0.917,0.083c-0.857,0-1.331-0.122-1.875-0.483c-0.706-0.489-1.409-1.392-2.428-3.118
		c-0.166,0.031-0.351,0.034-0.524,0.034c-0.228,0-0.435-0.005-0.651-0.014l0.052,0.099c0,2.194,0.094,2.602,0.149,2.649
		c0.179,0.111,0.807,0.169,1.013,0.188c0.196,0.042,0.302,0.202,0.277,0.399l-0.078,0.188l-0.169,0.081H209.738z M212.312,62.561
		c0.001,0,0.167,0.126,0.925,0.126c0.957,0,1.386-0.806,1.386-1.604c0-0.711-0.197-1.903-1.515-1.903
		c-0.42,0-0.702,0.085-0.73,0.104c-0.086,0.567-0.108,1.673-0.108,2.5C212.269,62.398,212.295,62.534,212.312,62.561L212.312,62.561
		z"/>
	<path fill="#FFFFFF" filter="url(#shadow)" d="M222.537,67.243c-1.34,0-2.195-0.681-2.266-0.971c-0.094-0.434-0.104-1.128-0.03-1.859l0.092-0.201
		c0.214-0.065,0.215-0.065,0.223-0.065c0.211,0,0.363,0.129,0.363,0.307c0.035,0.4,0.171,0.813,0.356,1.075
		c0.252,0.354,0.705,0.776,1.432,0.776c0.802,0,1.319-0.519,1.319-1.32c0-0.808-0.752-1.322-1.547-1.867
		c-0.937-0.639-1.902-1.298-1.902-2.528c0-1.567,1.323-2.413,2.569-2.413c0.55,0,0.878,0.103,1.118,0.178
		c0.138,0.044,0.243,0.078,0.342,0.078c0.039,0,0.081-0.006,0.126-0.017l0.135-0.004l0.218,0.189l0.04,0.549
		c0.006,0.381,0.013,0.825-0.006,1.309l-0.012,0.105l-0.08,0.111c-0.031,0.02-0.229,0.058-0.229,0.058
		c-0.17,0-0.359-0.123-0.359-0.301c-0.035-0.352-0.199-0.73-0.408-0.939c-0.253-0.265-0.59-0.404-0.977-0.404
		c-0.675,0-1.111,0.416-1.111,1.061c0,0.626,0.73,1.142,1.505,1.687c0.973,0.686,2.075,1.462,2.075,2.722
		C225.521,66.32,224.02,67.243,222.537,67.243z"/>
	<path fill="#FFFFFF" filter="url(#shadow)" d="M228.944,67.178l-0.102-0.246c-0.021-0.178,0.04-0.371,0.226-0.416c0.685-0.071,0.883-0.166,0.927-0.193
		c0.057-0.047,0.152-0.454,0.152-2.65v-1.891c0-2.327-0.111-2.616-0.146-2.649c-0.084-0.048-0.316-0.124-0.903-0.188
		c-0.211-0.055-0.279-0.245-0.258-0.41l0.083-0.187l0.135-0.062l3.724-0.009l0.107,0.26c0.023,0.21-0.072,0.369-0.237,0.403
		c-0.65,0.071-0.854,0.158-0.91,0.191c-0.06,0.043-0.162,0.444-0.162,2.65v1.891c0,2.087,0.084,2.591,0.154,2.646
		c0.094,0.056,0.323,0.135,0.892,0.192c0.181,0.032,0.286,0.185,0.269,0.379l-0.066,0.188l-0.177,0.101H228.944z"/>
	<path fill="#FFFFFF" filter="url(#shadow)" d="M237.452,67.178l-0.102-0.249c-0.025-0.213,0.067-0.376,0.229-0.413c0.621-0.065,0.849-0.15,0.93-0.196
		c0.053-0.046,0.146-0.454,0.146-2.647V60.51c0-0.274,0-0.962-0.027-1.273c-0.059,0.029-0.167,0.033-0.298,0.033
		c-0.04,0-0.082-0.001-0.126-0.001c-1.172,0-1.797,0.11-2.089,0.369c-0.151,0.129-0.264,0.459-0.308,0.73l-0.101,0.189
		c-0.187,0.054-0.187,0.054-0.194,0.054c-0.186,0-0.385-0.122-0.385-0.305c0.079-0.687,0.156-1.395,0.184-1.832
		c0-0.158,0.148-0.284,0.339-0.284c0.594,0.094,1.843,0.141,3.723,0.141c2.871,0,3.483-0.078,3.703-0.153l0.148-0.008l0.226,0.198
		c0.038,0.438,0.021,1.224-0.069,1.989l-0.021,0.101l-0.085,0.101c-0.03,0.018-0.205,0.045-0.206,0.045
		c-0.253,0-0.368-0.155-0.368-0.299c0-0.31-0.064-0.577-0.165-0.682c-0.129-0.132-0.569-0.354-2.062-0.354
		c-0.175,0-0.303,0.006-0.406,0.013c0.021,0.268,0.021,0.955,0.021,1.229v3.162c0,2.193,0.094,2.602,0.149,2.649
		c0.08,0.044,0.307,0.13,0.896,0.189c0.209,0.046,0.281,0.233,0.264,0.399l-0.08,0.19l-0.164,0.077H237.452z"/>
	<path fill="#FFFFFF" filter="url(#shadow)" d="M248.137,67.178l-0.106-0.249c-0.024-0.214,0.068-0.376,0.23-0.413c0.633-0.064,0.851-0.148,0.926-0.193
		c0.055-0.047,0.149-0.456,0.149-2.661v-0.376c-0.183-0.273-0.388-0.611-0.621-0.997l-0.261-0.43l-0.727-1.147
		c-0.905-1.447-1.095-1.616-1.222-1.671c-0.183-0.062-0.34-0.096-0.689-0.109l-0.106-0.013l-0.11-0.08l-0.054-0.204
		c-0.002-0.129,0.032-0.23,0.097-0.296c0.049-0.049,0.112-0.075,0.184-0.075h2.917c0.168,0,0.289,0.146,0.289,0.348l-0.058,0.208
		l-0.163,0.097c-0.269,0.021-0.409,0.05-0.48,0.071c0.041,0.036,0.107,0.144,0.235,0.352c0.131,0.212,0.325,0.526,0.616,0.979
		l1.14,1.931l1.074-1.896c0.719-1.141,0.721-1.364,0.719-1.386c-0.018,0.004-0.038,0.006-0.063,0.006
		c-0.092,0-0.238-0.024-0.462-0.042l-0.207-0.092l-0.059-0.192c-0.002-0.134,0.033-0.238,0.1-0.306
		c0.051-0.051,0.114-0.077,0.186-0.077h2.658c0.168,0,0.289,0.146,0.289,0.349l-0.059,0.209l-0.163,0.095
		c-0.397,0.042-0.621,0.085-0.789,0.155c-0.071,0.035-0.296,0.146-1.192,1.637l-0.703,1.152c-0.34,0.555-0.633,1.034-0.9,1.499
		l0.032,0.297c0,2.211,0.094,2.621,0.15,2.67c0.062,0.033,0.285,0.125,0.895,0.187c0.18,0.033,0.286,0.186,0.27,0.379l-0.069,0.19
		l-0.176,0.098H248.137z"/>
</g>

</svg>
