<svg version="1.1" xmlns="http://www.w3.org/2000/svg" viewBox="0 0 84 30" >
<defs>  
  <filter id="shadow" x="-50%" y="-50%" width="200%" height="200%">
    <feOffset result="offOut" in="SourceGraphic" dx="0" dy="0" />
    <feColorMatrix result="matrixOut" in="offOut" type="matrix"
      values="0.0 0 0 0 0 0 0.098 0 0 0 0 0 0.28125 0 0 0 0 0 .4 0" />
    <feGaussianBlur result="blurOut" in="matrixOut" stdDeviation="3" />
    <feBlend in="SourceGraphic" in2="blurOut" mode="normal" />
  </filter>
</defs>
<g id="BYU">
	<path fill="#FFFFFF" filter="url(#shadow)" d="M66.745,25.375c-8.778,0-10.621-4.849-10.621-8.916V6.596c0-0.544-0.089-0.803-0.351-1.023
		c-0.223-0.195-0.418-0.293-0.723-0.364l-0.042-0.042l-0.086-0.143l0.012-0.112l0.145-0.037h9.59l0.048,0.147l0.014,0.11
		l-0.126,0.073c-0.595,0.132-0.856,0.202-1.324,0.433C63,5.78,62.955,6.038,62.955,6.598L62.954,16.63
		c0,2.417,1.452,3.919,3.79,3.919c2.335,0,3.786-1.502,3.786-3.919V6.593c0-0.537-0.032-0.807-0.329-0.959
		c-0.459-0.226-0.723-0.296-1.304-0.424l-0.111-0.025l-0.015-0.165l0.014-0.109l0.141-0.035h10.149l0.047,0.139l0.017,0.105
		l-0.12,0.083c-0.603,0.134-0.865,0.204-1.334,0.435c-0.278,0.142-0.323,0.398-0.323,0.955v9.866
		C77.361,20.526,75.52,25.375,66.745,25.375z"/>
	<path fill="#FFFFFF" filter="url(#shadow)" d="M7.348,25.011l-0.041-0.154l-0.008-0.117l0.136-0.057c0.551-0.123,0.822-0.195,1.306-0.427
		c0.292-0.151,0.325-0.425,0.325-0.97L9.07,6.593c0-0.539-0.032-0.809-0.324-0.959C8.28,5.406,8.018,5.336,7.441,5.209H7.295
		l0.02-0.195l0.016-0.106L7.47,4.875h13.001c5.707,0,8.035,1.463,8.035,5.052c0,2.189-0.911,3.643-2.709,4.324
		c2.249,0.678,3.386,2.309,3.386,4.853c0,2.695-1.425,5.907-8.214,5.907H7.348z M18.474,20.921c2.322,0,3.499-0.779,3.499-2.315
		c0-2.314-2.015-2.314-3.793-2.314h-2.524v4.63H18.474z M18.666,12.968c1.93,0,2.95-0.727,2.95-2.101c0-1.683-1.021-1.99-3.032-1.99
		h-2.928v4.091H18.666z"/>
	<path fill="#FFFFFF" filter="url(#shadow)" d="M36.351,25.014l-0.041-0.155l-0.008-0.116l0.133-0.06c0.568-0.123,0.835-0.202,1.312-0.428
		c0.279-0.144,0.325-0.402,0.325-0.966l-0.002-6.377L31.212,6.796c-0.385-0.568-0.613-0.842-0.905-1.083
		c-0.049-0.043-0.175-0.129-0.22-0.15C29.62,5.335,29.433,5.287,29.02,5.21h-0.145l0.012-0.195l0.016-0.107l0.139-0.033h9.865
		l0.045,0.142l0.015,0.108l-0.124,0.078c-0.327,0.009-0.568,0.092-0.708,0.238c-0.108,0.112-0.159,0.265-0.15,0.454
		c0.019,0.559,1.831,3.232,3.029,5.001c0.299,0.441,0.579,0.854,0.815,1.209c0.193-0.313,0.563-0.869,1.01-1.539
		c1.057-1.583,2.824-4.234,2.843-4.671c0.011-0.244-0.035-0.422-0.138-0.529c-0.136-0.142-0.363-0.154-0.565-0.154l-0.118-0.02
		l-0.036-0.175l0.014-0.11l0.141-0.033h9.296l0.044,0.14l0.016,0.107l-0.122,0.081c-0.34,0.078-0.472,0.142-0.758,0.326
		c-0.069,0.044-0.18,0.137-0.229,0.181c-0.299,0.249-0.527,0.523-0.907,1.09l-6.89,10.225l0.021,6.271
		c0,0.54,0.032,0.811,0.327,0.963c0.473,0.225,0.741,0.303,1.306,0.425h0.134l-0.015,0.292l-0.15,0.04H36.351z"/>
</g>
</svg>
