
<svg version="1.1" xmlns="http://www.w3.org/2000/svg" viewBox="0 0 600 60" width="600" height="60" >


<g id="byu">
	<path fill="#4D463A" d="M460.588,13.514l-0.033-0.078c-0.01-0.043-0.028-0.259,0.051-0.298c0.479-0.046,0.785-0.11,0.928-0.193
		c0.142-0.061,0.215-0.461,0.215-2.406V7.763c0-0.712,0-1.183-0.041-1.304c0.002,0.023-0.024,0.029-0.064,0.029
		c-0.019,0-0.042-0.001-0.065-0.003c-0.11-0.007-0.252-0.016-0.408-0.016c-1.208,0-1.553,0.122-1.829,0.377
		c-0.146,0.129-0.263,0.382-0.355,0.776l-0.009,0.038l-0.099,0.019c-0.098,0-0.271-0.014-0.271-0.112
		c0.045-0.405,0.089-0.855,0.126-1.231l0.051-0.508l0.111-0.045c0.57,0.087,1.728,0.131,3.446,0.131
		c2.891,0,3.292-0.067,3.493-0.149l0.068-0.028l0.064,0.119c0,0.363-0.014,1.075-0.108,1.761c0,0.053-0.071,0.058-0.157,0.058
		c-0.198,0-0.225-0.042-0.225-0.084c0-0.33-0.074-0.603-0.203-0.748c-0.215-0.195-0.52-0.374-1.827-0.374
		c-0.157,0-0.273,0.009-0.365,0.016c-0.061,0.004-0.11,0.008-0.154,0.008c0.019,0.052-0.017,0.347-0.017,1.271v2.775
		c0,1.919,0.088,2.343,0.229,2.403c0.15,0.086,0.458,0.15,0.919,0.191c0.097,0.045,0.076,0.265,0.066,0.307l-0.01,0.039
		l-0.062,0.035H460.588z"/>
	<path fill="#4D463A" d="M472.226,13.514l-0.033-0.078c-0.01-0.043-0.028-0.259,0.052-0.298c0.485-0.047,0.677-0.111,0.82-0.194
		c0.147-0.063,0.235-0.486,0.235-2.406V9.843l-4.308,0.05l0.05,0.646c0,1.92,0.088,2.343,0.229,2.403
		c0.147,0.085,0.339,0.149,0.81,0.191c0.1,0.046,0.08,0.296,0.073,0.329l-3.351,0.052l-0.021-0.083c0-0.002-0.04-0.259,0.07-0.295
		c0.481-0.045,0.672-0.108,0.813-0.191c0.141-0.061,0.214-0.46,0.214-2.406V8.847c0-1.943-0.073-2.344-0.209-2.403
		c-0.145-0.084-0.328-0.148-0.81-0.213l0,0c-0.061,0-0.086-0.112-0.086-0.179c0-0.18,0.048-0.18,0.071-0.18h3.301l0.015,0.146
		c0,0.077-0.01,0.213-0.086,0.213c-0.475,0.065-0.658,0.128-0.799,0.21c-0.147,0.064-0.235,0.488-0.235,2.406v0.52l4.308-0.05
		l-0.05-0.47c0-1.917-0.088-2.341-0.23-2.403c-0.146-0.084-0.331-0.148-0.811-0.213l0,0c-0.049,0-0.076-0.06-0.076-0.179
		s0.028-0.18,0.083-0.18h3.23c0.036,0,0.08,0.027,0.08,0.159c0,0.125-0.038,0.2-0.103,0.2c-0.408,0.059-0.642,0.12-0.799,0.21
		c-0.111,0.057-0.213,0.387-0.213,2.406v1.691c0,2.022,0.101,2.351,0.21,2.404c0.169,0.098,0.401,0.152,0.807,0.19
		c0.104,0.033,0.103,0.223,0.093,0.289l-0.007,0.042l-0.068,0.05H472.226z"/>
	<path fill="#4D463A" d="M481.391,13.535c-0.341,0-0.709-0.009-1.106-0.019c-0.461-0.011-0.96-0.024-1.496-0.024
		c-0.779,0-1.256,0-2.102,0.021l-0.04,0.001l-0.032-0.075c-0.01-0.042-0.03-0.262,0.049-0.302c0.441-0.043,0.682-0.099,0.818-0.192
		c0.151-0.064,0.239-0.488,0.239-2.408V8.847c0-1.917-0.089-2.341-0.23-2.403c-0.141-0.094-0.373-0.154-0.812-0.213l0,0
		c-0.048,0-0.074-0.059-0.074-0.179c0-0.121,0.026-0.18,0.081-0.18c0.934,0.021,2.407,0.021,3.188,0.021
		c0.996,0,1.559-0.021,1.905-0.043l0.053-0.003l0.086,0.096c-0.021,0.187-0.036,0.405-0.054,0.648
		c-0.02,0.281-0.042,0.593-0.076,0.918c-0.022,0.071-0.106,0.083-0.174,0.083c-0.085,0-0.229-0.026-0.229-0.11
		c0-0.326-0.076-0.578-0.227-0.748c-0.203-0.203-0.595-0.286-1.35-0.286c-0.312,0-0.56,0.009-0.729,0.016l-0.204,0.006
		c0.007,0.089,0.007,0.487,0.007,1.21v1.623l0.838-0.05c1.134,0,1.258-0.25,1.316-0.63c0.013-0.03,0.036-0.073,0.21-0.073
		c0.134,0,0.193,0.025,0.193,0.081c-0.021,0.329-0.065,1.713-0.065,2.016c0,0.057-0.063,0.083-0.201,0.083s-0.201-0.026-0.201-0.083
		c0-0.229-0.048-0.5-0.155-0.588c-0.096-0.077-0.256-0.206-1.118-0.206h-0.866l0.05,0.687c0,1.584,0.135,2.071,0.247,2.2
		c0.14,0.119,0.286,0.2,0.981,0.2c0.646,0,1.092-0.133,1.329-0.396c0.185-0.185,0.301-0.425,0.378-0.78l0.009-0.039l0.102-0.027
		c0.06,0,0.164,0.028,0.195,0.079c-0.03,0.601-0.135,1.322-0.233,1.519C481.788,13.446,481.705,13.535,481.391,13.535z"/>
	<path fill="#4D463A" d="M491.64,13.623c-2.436,0-4.343-1.688-4.343-3.843c0-1.976,1.616-4.019,4.32-4.019
		c0.785,0,1.354,0.143,1.77,0.248c0.247,0.062,0.441,0.111,0.6,0.111c0.04,0,0.078-0.003,0.114-0.01h0.05l0.074,0.092
		c0.021,0.41,0.043,1.04,0.043,1.67c0,0.033-0.021,0.089-0.165,0.089c-0.087,0-0.237-0.023-0.237-0.11
		c-0.021-0.285-0.207-0.664-0.44-0.898c-0.44-0.417-1.147-0.657-1.938-0.657c-2.616,0-2.898,2.209-2.898,3.159
		c0,1.766,1.149,3.593,3.073,3.593c0.936,0,1.471-0.177,1.849-0.612c0.196-0.249,0.352-0.568,0.487-1.002l0.011-0.035l0.109-0.027
		c0.057,0,0.26,0.029,0.26,0.122c-0.041,0.571-0.189,1.395-0.312,1.566C493.912,13.277,493.119,13.623,491.64,13.623z"/>
	<path fill="#4D463A" d="M501.244,13.514l-0.033-0.078c-0.01-0.043-0.028-0.259,0.052-0.298c0.486-0.047,0.677-0.111,0.819-0.194
		c0.147-0.062,0.235-0.485,0.235-2.406V9.843l-4.307,0.05l0.05,0.646c0,1.92,0.088,2.343,0.229,2.403
		c0.149,0.085,0.341,0.149,0.809,0.191c0.104,0.046,0.079,0.306,0.075,0.326l-3.352,0.055l-0.021-0.083
		c-0.001-0.003-0.041-0.258,0.07-0.295c0.48-0.045,0.671-0.108,0.813-0.191c0.141-0.06,0.214-0.46,0.214-2.406V8.847
		c0-1.943-0.073-2.344-0.209-2.403c-0.146-0.084-0.329-0.148-0.81-0.213l0,0c-0.062,0-0.087-0.113-0.087-0.18
		c0-0.179,0.051-0.179,0.072-0.179h3.301l0.015,0.146c0,0.077-0.01,0.213-0.087,0.213c-0.472,0.064-0.656,0.128-0.798,0.21
		c-0.147,0.064-0.235,0.488-0.235,2.406v0.52l4.307-0.05l-0.05-0.47c0-1.918-0.088-2.342-0.229-2.403
		c-0.146-0.084-0.33-0.148-0.811-0.213l0,0c-0.049,0-0.076-0.06-0.076-0.179s0.028-0.18,0.083-0.18h3.229
		c0.036,0,0.08,0.027,0.08,0.159c0,0.125-0.038,0.2-0.103,0.2c-0.407,0.059-0.641,0.12-0.798,0.21
		c-0.112,0.058-0.214,0.388-0.214,2.406v1.691c0,2.021,0.102,2.35,0.211,2.404c0.169,0.098,0.401,0.152,0.806,0.19
		c0.104,0.033,0.103,0.223,0.093,0.289l-0.007,0.042l-0.068,0.05H501.244z"/>
	<path fill="#4D463A" d="M509.736,13.623c-1.832,0-3.214-1.205-3.214-2.804V8.847c0-1.918-0.089-2.341-0.231-2.403
		c-0.146-0.084-0.329-0.148-0.81-0.213l0,0c-0.049,0-0.076-0.06-0.076-0.179s0.028-0.18,0.083-0.18h3.295
		c0.023,0,0.071,0,0.071,0.181c0,0.148-0.051,0.179-0.094,0.179c-0.443,0.063-0.697,0.126-0.842,0.21
		c-0.147,0.065-0.235,0.489-0.235,2.406v1.67c0,1.44,0.895,2.335,2.335,2.335c1.346,0,2.118-0.804,2.118-2.206V8.847
		c0-2.059-0.103-2.312-0.198-2.389c-0.113-0.094-0.363-0.16-0.864-0.228l0,0c-0.049,0-0.068-0.094-0.068-0.149
		c0-0.209,0.051-0.209,0.075-0.209h2.752c0.085,0,0.092,0.152,0.092,0.199c0,0.062-0.03,0.161-0.092,0.161
		c-0.451,0.062-0.667,0.123-0.791,0.227c-0.097,0.077-0.199,0.331-0.199,2.389v1.951C512.843,12.187,511.681,13.623,509.736,13.623z
		"/>
	<path fill="#4D463A" d="M514.743,13.514l-0.032-0.092c-0.01-0.066-0.011-0.256,0.082-0.286c0.41-0.04,0.651-0.097,0.814-0.191
		c0.112-0.056,0.214-0.384,0.214-2.406V8.847c0-2.019-0.102-2.349-0.211-2.405c-0.159-0.092-0.394-0.153-0.809-0.212h-0.001
		c-0.057,0-0.095-0.075-0.095-0.2c0-0.132,0.044-0.159,0.08-0.159c0.283,0,0.59,0.006,0.884,0.011
		c0.268,0.005,0.524,0.01,0.742,0.01c0.204,0,0.418-0.005,0.645-0.01c0.253-0.005,0.521-0.011,0.808-0.011
		c1.863,0,2.868,1.008,2.868,1.956c0,1.143-0.98,1.89-1.564,2.234c1.609,2.23,2.458,3.007,3.378,3.007c0,0,0.348,0,0.349,0
		c0.109,0,0.12,0.283,0.12,0.286c-0.312,0.117-0.53,0.138-0.814,0.138c-0.869,0-1.416-0.126-1.828-0.421
		c-0.66-0.408-1.334-1.229-2.247-2.745c-0.126,0.03-0.263,0.033-0.384,0.033c-0.227,0-0.393-0.009-0.605-0.021l-0.206-0.011
		l0.053,0.212c0,1.92,0.088,2.343,0.229,2.403c0.102,0.058,0.355,0.136,1.024,0.191c0.104,0.047,0.08,0.307,0.075,0.328
		l-0.057,0.053H514.743z M517.843,6.404c-0.443,0-0.646,0.076-0.67,0.123c-0.057,0.06-0.19,0.586-0.19,2.319
		c0,0.665,0.041,0.758,0.094,0.81c0.091,0.076,0.286,0.181,0.897,0.181c0.811,0,1.445-0.712,1.445-1.62
		C519.419,7.065,518.845,6.404,517.843,6.404z"/>
	<path fill="#4D463A" d="M526.967,13.623c-2.435,0-4.341-1.688-4.341-3.843c0-1.976,1.615-4.019,4.319-4.019
		c0.785,0,1.354,0.143,1.77,0.248c0.247,0.062,0.441,0.111,0.6,0.111c0.04,0,0.078-0.003,0.114-0.01h0.05l0.074,0.092
		c0.021,0.41,0.044,1.04,0.044,1.67c0,0.033-0.021,0.089-0.165,0.089c-0.088,0-0.238-0.023-0.238-0.11
		c-0.021-0.284-0.206-0.663-0.44-0.898c-0.439-0.417-1.146-0.657-1.938-0.657c-2.616,0-2.898,2.209-2.898,3.159
		c0,1.766,1.149,3.593,3.071,3.593c0.936,0,1.471-0.177,1.849-0.612c0.195-0.249,0.355-0.577,0.488-1.002l0.011-0.035l0.108-0.027
		c0.058,0,0.26,0.029,0.26,0.122c-0.04,0.569-0.188,1.392-0.312,1.566C529.24,13.277,528.447,13.623,526.967,13.623z"/>
	<path fill="#4D463A" d="M536.485,13.514l-0.032-0.076c-0.01-0.043-0.03-0.26,0.05-0.3c0.486-0.047,0.673-0.108,0.822-0.194
		c0.146-0.063,0.234-0.486,0.234-2.406V9.843l-4.308,0.05l0.05,0.646c0,1.92,0.088,2.343,0.229,2.403
		c0.149,0.085,0.341,0.149,0.81,0.191c0.104,0.047,0.078,0.306,0.074,0.327l-3.353,0.054l-0.021-0.085
		c-0.001-0.002-0.04-0.257,0.07-0.293c0.481-0.045,0.672-0.108,0.814-0.191c0.14-0.06,0.213-0.459,0.213-2.406V8.847
		c0-1.944-0.073-2.344-0.208-2.403c-0.146-0.084-0.329-0.148-0.811-0.213l0,0c-0.061,0-0.087-0.111-0.087-0.178
		c0-0.181,0.051-0.181,0.072-0.181h3.302l0.015,0.147c0,0.077-0.01,0.212-0.086,0.212c-0.473,0.064-0.657,0.128-0.799,0.21
		c-0.147,0.064-0.235,0.488-0.235,2.406v0.52l4.308-0.05l-0.05-0.47c0-1.917-0.088-2.341-0.23-2.403
		c-0.147-0.084-0.332-0.148-0.811-0.213l0,0c-0.049,0-0.075-0.059-0.075-0.179c0-0.121,0.026-0.18,0.082-0.18h3.229
		c0.053,0,0.08,0.054,0.08,0.161c0,0.126-0.037,0.199-0.101,0.199c-0.409,0.059-0.643,0.119-0.799,0.21
		c-0.13,0.065-0.215,0.5-0.215,2.406v1.691c0,2.021,0.102,2.35,0.212,2.404c0.168,0.098,0.4,0.152,0.807,0.19
		c0.103,0.033,0.102,0.224,0.091,0.29l-0.007,0.042l-0.068,0.049H536.485z"/>
	<path fill="#4D463A" d="M548.355,13.623c-2.276,0-4.06-1.688-4.06-3.843c0-1.941,1.692-4.019,4.211-4.019
		c2.276,0,4.06,1.688,4.06,3.845C552.566,11.546,550.874,13.623,548.355,13.623z M548.269,6.338c-2.487,0-2.681,2.385-2.681,3.116
		c0,1.785,1.032,3.593,3.005,3.593c2.487,0,2.681-2.385,2.681-3.116C551.273,8.146,550.241,6.338,548.269,6.338z"/>
	<path fill="#4D463A" d="M553.665,13.514l-0.032-0.093c-0.011-0.065-0.012-0.255,0.08-0.285c0.416-0.041,0.649-0.095,0.815-0.191
		c0.112-0.056,0.213-0.385,0.213-2.406V8.847c0-1.657-0.062-2.396-0.21-2.469c-0.169-0.098-0.402-0.152-0.808-0.19
		c-0.088-0.028-0.105-0.152-0.093-0.228l0.007-0.042l0.07-0.047c0.933,0.021,2.471,0.021,3.229,0.021
		c1.019,0,1.711-0.021,2.078-0.043l0.053-0.003l0.065,0.096c-0.021,0.394-0.065,0.914-0.13,1.544c0,0.073-0.123,0.073-0.163,0.073
		c-0.057,0-0.24-0.009-0.24-0.121c0-0.302-0.076-0.53-0.225-0.68c-0.153-0.172-0.524-0.376-1.438-0.376
		c-0.48,0-0.91,0.022-1.032,0.042c0.021,0.062-0.002,0.509-0.002,1.253v1.709l0.796-0.05c1.142,0,1.257-0.122,1.315-0.499
		c0.024-0.052,0.074-0.067,0.176-0.067c0.228,0,0.228,0.047,0.228,0.075c-0.021,0.329-0.065,1.497-0.065,1.822
		c0,0.059-0.069,0.064-0.16,0.064c-0.086,0-0.242-0.001-0.242-0.087c0-0.251-0.057-0.443-0.156-0.526
		c-0.093-0.092-0.232-0.161-1.116-0.161h-0.824l0.05,0.579c0,1.92,0.088,2.343,0.229,2.403c0.102,0.058,0.357,0.136,1.025,0.191
		c0.101,0.046,0.081,0.296,0.074,0.329l-0.057,0.052H553.665z"/>
	<path fill="#4D463A" d="M431.678,41.286c-0.088,0-0.193-0.146-0.228-0.246c-0.035-0.104,0.003-0.152,0.028-0.172
		c2.014-1.465,3.064-2.455,3.064-7.298v-6.23c0-3.879-0.176-4.76-0.459-4.926c-0.264-0.154-0.838-0.222-1.751-0.315
		c-0.134-0.033-0.121-0.358-0.111-0.437c0.005-0.04,0.018-0.147,0.093-0.147h6.464c0.057,0,0.09,0.06,0.103,0.19
		c0.002,0.015,0.035,0.363-0.116,0.393c-0.901,0.093-1.465,0.16-1.732,0.316c-0.321,0.172-0.521,1.075-0.458,4.925l0.068,6.231
		c0.048,4.175-1.058,5.904-4.928,7.708L431.678,41.286z"/>
	<path fill="#4D463A" d="M449.424,36.541c-0.635,0-1.129-0.014-1.663-0.03c-0.627-0.019-1.309-0.039-2.34-0.039
		c-1.226,0-2.188,0.015-3.396,0.033l-0.835,0.012c-0.076,0-0.089-0.111-0.094-0.153c-0.01-0.083-0.02-0.399,0.105-0.428
		c0.815-0.084,1.41-0.155,1.687-0.316c0.284-0.165,0.46-1.045,0.46-4.924v-3.357c0-3.88-0.176-4.761-0.46-4.925
		c-0.273-0.162-0.843-0.23-1.68-0.316c-0.134-0.033-0.122-0.359-0.112-0.438c0.006-0.041,0.019-0.146,0.093-0.146
		c1.794,0.023,4.808,0.045,6.303,0.045c1.986,0,2.712-0.025,3.375-0.115c0.001,0,0.001,0,0.001,0c0.169,0,0.192,0.089,0.192,0.143
		c-0.051,0.922-0.121,2.021-0.252,3.203c-0.021,0.084-0.142,0.1-0.239,0.1c-0.082,0-0.165-0.012-0.229-0.033
		c-0.114-0.039-0.138-0.098-0.138-0.141c0-0.583-0.198-1.171-0.518-1.533c-0.434-0.434-0.931-0.671-2.309-0.671
		c-0.896,0-1.743,0-1.944,0.044c-0.024,0.175-0.053,0.95-0.053,2.48v3.266l1.836-0.05c2.09,0,2.183-0.565,2.31-1.348
		c0.027-0.129,0.123-0.163,0.296-0.163c0.119,0,0.318,0.014,0.318,0.111c-0.011,0.321-0.102,3.829-0.112,4.142
		c0,0.025,0,0.097-0.275,0.097c-0.076,0-0.148-0.007-0.203-0.019c-0.032-0.007-0.129-0.029-0.129-0.104
		c0-0.428-0.12-1.182-0.308-1.39c-0.201-0.202-0.329-0.332-1.919-0.332h-1.863l0.05,1.493c0,3.624,0.207,4.371,0.33,4.494
		c0.193,0.195,0.906,0.287,2.242,0.287c1.481,0,1.965-0.378,2.333-0.766c0.271-0.294,0.543-0.958,0.746-1.818
		c0.009-0.041,0.047-0.09,0.183-0.09c0.124,0,0.422,0.056,0.422,0.195c-0.113,1.438-0.366,3.139-0.396,3.195
		C451.091,36.417,450.33,36.541,449.424,36.541z"/>
	<path fill="#4D463A" d="M458.739,36.818c-1.884,0-3.483-0.832-3.722-1.171c-0.042-0.086-0.258-2.517-0.146-3.647
		c0-0.102,0.175-0.139,0.324-0.139c0.084,0,0.283,0.013,0.304,0.136c0.047,0.884,0.496,2.057,0.798,2.512
		c0.614,0.934,1.626,1.427,2.925,1.427c1.511,0,2.412-0.997,2.412-2.665c0-1.727-1.381-2.658-2.843-3.645
		c-1.577-1.064-3.207-2.165-3.207-4.359c0-2.311,1.86-4.12,4.236-4.12c0.936,0,1.453,0.158,1.869,0.286
		c0.29,0.089,0.54,0.166,0.857,0.166c0.08,0,0.165-0.005,0.257-0.016c0.007,0,0.014,0,0.021,0c0.13,0,0.174,0.06,0.174,0.119
		c0,0.24,0.004,0.528,0.009,0.847c0.011,0.756,0.023,1.685-0.009,2.559c-0.02,0.067-0.108,0.095-0.267,0.095
		c-0.101,0-0.337-0.013-0.36-0.132c-0.077-1.017-0.313-1.757-0.703-2.208c-0.549-0.601-1.216-0.881-2.1-0.881
		c-1.218,0-2.137,1.057-2.137,2.458c0,1.43,1.343,2.365,2.764,3.354c1.661,1.156,3.378,2.351,3.378,4.492
		C463.573,35.229,461.083,36.818,458.739,36.818z"/>
	<path fill="#4D463A" d="M473.829,36.654c-3.429,0-5.823-2.224-5.823-5.407v-3.908c0-3.881-0.175-4.762-0.458-4.925
		c-0.303-0.164-0.729-0.23-1.567-0.316c-0.133-0.034-0.12-0.358-0.11-0.437c0.005-0.04,0.019-0.147,0.093-0.147h6.21
		c0.074,0,0.088,0.107,0.093,0.147c0.01,0.079,0.022,0.403-0.103,0.436c-0.926,0.095-1.384,0.163-1.669,0.318
		c-0.281,0.164-0.456,1.045-0.456,4.925v3.494c0,2.778,1.795,4.573,4.573,4.573c2.873,0,4.182-2.239,4.182-4.319v-3.748
		c0-4.005-0.212-4.703-0.396-4.863c-0.249-0.226-0.798-0.291-1.674-0.378c-0.143-0.036-0.099-0.4-0.098-0.404
		c0.009-0.078,0.03-0.18,0.103-0.18h5.152c0.061,0,0.1,0.078,0.115,0.232c0.008,0.076,0.022,0.325-0.105,0.351
		c-0.897,0.092-1.345,0.159-1.587,0.379c-0.186,0.161-0.374,0.864-0.374,4.863V31.2C479.929,33.911,477.834,36.654,473.829,36.654z"
		/>
	<path fill="#4D463A" d="M487.953,36.818c-1.884,0-3.482-0.832-3.721-1.171c-0.042-0.083-0.26-2.505-0.147-3.647
		c0-0.102,0.175-0.139,0.324-0.139c0.085,0,0.284,0.013,0.305,0.136c0.047,0.887,0.496,2.059,0.798,2.512
		c0.613,0.934,1.625,1.427,2.925,1.427c1.51,0,2.411-0.997,2.411-2.665c0-1.727-1.381-2.658-2.843-3.645
		c-1.577-1.064-3.207-2.165-3.207-4.359c0-2.311,1.86-4.12,4.236-4.12c0.937,0,1.453,0.158,1.869,0.286
		c0.29,0.089,0.54,0.166,0.858,0.166c0.08,0,0.165-0.005,0.257-0.016c0.007,0,0.014,0,0.021,0c0.129,0,0.174,0.061,0.174,0.119
		c0,0.24,0.004,0.528,0.009,0.847c0.011,0.756,0.023,1.685-0.009,2.559c-0.021,0.068-0.11,0.095-0.268,0.095
		c-0.101,0-0.337-0.013-0.36-0.132c-0.078-1.018-0.314-1.758-0.703-2.208c-0.55-0.601-1.218-0.881-2.101-0.881
		c-1.217,0-2.135,1.057-2.135,2.458c0,1.43,1.343,2.365,2.764,3.354c1.66,1.156,3.377,2.351,3.377,4.492
		C492.787,35.229,490.297,36.818,487.953,36.818z"/>
	<path fill="#4D463A" d="M510.699,36.84c-4.667,0-8.055-3.214-8.055-7.642c0-3.882,2.807-8.007,8.008-8.007
		c1.479,0,2.544,0.284,3.322,0.492c0.467,0.125,0.836,0.223,1.142,0.223c0.088,0,0.166-0.008,0.24-0.025c0.004,0,0.009,0,0.014,0
		c0.13,0,0.185,0.074,0.185,0.143l0.017,0.518c0.029,0.864,0.072,2.168,0.053,3.187c-0.023,0.1-0.183,0.113-0.275,0.113
		c-0.158,0-0.334-0.04-0.353-0.152c-0.095-0.972-0.399-1.722-0.931-2.299c-0.735-0.76-2.233-1.292-3.643-1.292
		c-4.067,0-5.517,3.325-5.517,6.437c0,3.515,2.232,7.31,5.839,7.31c1.631,0,2.758-0.456,3.549-1.433
		c0.519-0.64,0.783-1.383,0.957-1.959c0.005-0.034,0.039-0.101,0.188-0.101c0.124,0,0.415,0.062,0.415,0.183
		c-0.066,0.925-0.473,3.106-0.537,3.204C515.252,35.844,513.731,36.84,510.699,36.84z"/>
	<path fill="#4D463A" d="M529.421,36.518c-0.024,0-0.098,0-0.098-0.264c0-0.073,0.007-0.142,0.019-0.193
		c0.019-0.083,0.054-0.125,0.103-0.125c0.941-0.097,1.298-0.193,1.565-0.318c0.279-0.162,0.454-1.046,0.454-4.945v-1.404
		l-8.414,0.05l0.05,1.354c0,3.921,0.176,4.783,0.479,4.946c0.289,0.145,0.708,0.23,1.546,0.316c0,0,0,0,0.001,0
		c0.044,0,0.078,0.042,0.098,0.124c0.012,0.052,0.019,0.121,0.019,0.193c0,0.265-0.074,0.265-0.099,0.265h-6.096
		c-0.024,0-0.1,0-0.1-0.265c0-0.073,0.007-0.142,0.02-0.193c0.02-0.083,0.054-0.124,0.104-0.124
		c0.843-0.087,1.282-0.176,1.564-0.317c0.28-0.163,0.456-1.048,0.456-4.945v-3.334c0-4.299-0.227-4.791-0.459-4.925
		c-0.274-0.161-0.705-0.228-1.566-0.316c-0.134-0.033-0.121-0.358-0.111-0.437c0.005-0.04,0.018-0.147,0.093-0.147h6.096
		c0.074,0,0.087,0.106,0.093,0.146c0.01,0.079,0.022,0.405-0.104,0.437c-0.851,0.088-1.273,0.154-1.552,0.317
		c-0.306,0.165-0.481,1.022-0.481,4.926v1.08l8.414-0.05l-0.05-1.03c0-3.898-0.168-4.758-0.458-4.925
		c-0.302-0.164-0.728-0.23-1.566-0.316c-0.134-0.034-0.12-0.361-0.11-0.44c0.006-0.039,0.019-0.144,0.092-0.144h6.096
		c0.075,0,0.088,0.107,0.093,0.147c0.01,0.079,0.022,0.403-0.104,0.435c-0.846,0.087-1.271,0.153-1.576,0.318
		c-0.229,0.134-0.456,0.625-0.456,4.925v3.334c0,3.898,0.175,4.783,0.458,4.947c0.265,0.123,0.621,0.219,1.566,0.316
		c0,0,0,0,0.001,0c0.044,0,0.078,0.042,0.098,0.124c0.013,0.052,0.02,0.121,0.02,0.193c0,0.265-0.075,0.265-0.1,0.265H529.421z"/>
	<path fill="#4D463A" d="M552.904,36.518c-2.009,0-3.095-0.227-4.007-0.836c-1.221-0.837-2.464-2.441-4.293-5.538
		c-0.439,0.036-0.8,0.043-1.123,0.043c-0.432,0-0.797-0.012-1.299-0.04l0.053,0.55c0,3.878,0.176,4.759,0.46,4.923
		c0.235,0.126,0.755,0.183,1.474,0.26l0.508,0.056c0.146,0.035,0.11,0.425,0.109,0.429c-0.005,0.042-0.018,0.153-0.094,0.153h-6.508
		c-0.058,0-0.092-0.064-0.104-0.198c-0.003-0.036-0.028-0.356,0.118-0.384c0.946-0.097,1.293-0.168,1.547-0.316
		c0.299-0.16,0.46-0.992,0.46-4.924v-3.357c0-3.934-0.161-4.766-0.458-4.925c-0.278-0.164-0.701-0.23-1.545-0.316
		c-0.156-0.032-0.123-0.378-0.121-0.393c0.013-0.128,0.047-0.191,0.104-0.191c0.528,0,1.101,0.012,1.648,0.024
		c0.501,0.011,0.98,0.021,1.387,0.021c0.404,0,0.824-0.01,1.266-0.021c0.486-0.012,0.998-0.024,1.541-0.024
		c3.415,0,5.201,1.865,5.201,3.708c0,1.698-0.988,3.241-2.782,4.343c3.068,4.488,4.982,6.347,6.62,6.347
		c1.042,0,1.512-0.183,1.698-0.292c0.284-0.164,0.46-1.045,0.46-4.924v-3.357c0-3.88-0.176-4.762-0.46-4.925
		c-0.261-0.155-0.835-0.223-1.749-0.316c-0.134-0.034-0.121-0.359-0.11-0.438c0.005-0.04,0.018-0.146,0.092-0.146h6.464
		c0.062,0,0.1,0.062,0.111,0.183c0.01,0.095,0.008,0.373-0.124,0.4c-0.902,0.093-1.467,0.16-1.733,0.316
		c-0.298,0.161-0.459,0.993-0.459,4.926v3.357c0,3.932,0.161,4.763,0.457,4.923c0.271,0.158,0.861,0.228,1.73,0.316
		c0.135,0.025,0.14,0.292,0.13,0.393c-0.015,0.156-0.069,0.189-0.112,0.189H552.904z M543.979,22.395
		c-0.814,0-1.443,0.124-1.502,0.188c-0.084,0.101-0.242,1.224-0.242,4.756c0,1.314,0.044,1.607,0.124,1.688
		c0.089,0.088,0.45,0.237,1.874,0.237c1.697,0,2.711-1.184,2.711-3.167C546.944,23.64,545.946,22.395,543.979,22.395z"/>
	<path fill="#4D463A" d="M565.989,36.818c-1.886,0-3.483-0.832-3.721-1.171c-0.042-0.083-0.26-2.505-0.147-3.647
		c0-0.102,0.175-0.139,0.324-0.139c0.084,0,0.283,0.013,0.305,0.135c0.047,0.887,0.496,2.059,0.798,2.512
		c0.613,0.934,1.625,1.427,2.925,1.427c1.51,0,2.411-0.997,2.411-2.665c0-1.727-1.381-2.658-2.842-3.645
		c-1.577-1.064-3.207-2.165-3.207-4.359c0-2.311,1.859-4.12,4.234-4.12c0.937,0,1.454,0.158,1.87,0.286
		c0.29,0.089,0.54,0.166,0.858,0.166c0.08,0,0.165-0.005,0.257-0.016c0.007,0,0.014,0,0.02,0c0.129,0,0.174,0.061,0.174,0.119
		c0,0.24,0.004,0.528,0.009,0.847c0.011,0.756,0.024,1.686-0.009,2.559c-0.021,0.068-0.109,0.095-0.267,0.095
		c-0.101,0-0.337-0.013-0.36-0.132c-0.077-1.017-0.313-1.757-0.703-2.208c-0.55-0.601-1.218-0.881-2.101-0.881
		c-1.217,0-2.135,1.057-2.135,2.458c0,1.43,1.343,2.365,2.764,3.354c1.661,1.156,3.378,2.351,3.378,4.492
		C570.824,35.229,568.333,36.818,565.989,36.818z"/>
	<path fill="#4D463A" d="M576.318,36.518c-0.08,0-0.091-0.123-0.095-0.164c-0.009-0.101-0.004-0.393,0.133-0.418
		c0.872-0.089,1.462-0.159,1.731-0.316c0.298-0.159,0.458-0.991,0.458-4.923v-5.613c0-1.637-0.03-2.568-0.09-2.769
		c-0.188-0.011-0.571-0.011-1.103-0.011c-2.058,0-2.85,0.2-3.388,0.855c-0.316,0.377-0.562,1.07-0.75,2.118
		c-0.012,0.084-0.101,0.134-0.243,0.134c-0.079,0-0.162-0.015-0.229-0.042c-0.115-0.047-0.133-0.111-0.133-0.146
		c0.104-0.915,0.209-2.142,0.284-3.022l0.062-0.71c0-0.083,0.1-0.143,0.249-0.143c0.812,0.131,2.124,0.259,6.356,0.259
		c5.504,0,6.002-0.165,6.401-0.296l0.104-0.018c0.118,0,0.214,0.071,0.214,0.157c0,0.757-0.038,2.529-0.185,3.824
		c-0.019,0.094-0.157,0.126-0.281,0.126c-0.149,0-0.324-0.046-0.324-0.176c0-0.372-0.032-1.62-0.446-2.062
		c-0.55-0.577-1.659-0.857-3.391-0.857c-0.532,0-0.8,0-1.025,0.046c-0.022,0.166-0.053,1.097-0.053,2.734v5.613
		c0,3.879,0.176,4.76,0.46,4.923c0.271,0.159,0.868,0.228,1.749,0.316c0.132,0.03,0.122,0.344,0.112,0.426
		c-0.005,0.042-0.018,0.156-0.095,0.156H576.318z"/>
	<path fill="#4D463A" d="M444.873,52.227c-2.276,0-4.06-1.688-4.06-3.843c0-1.94,1.692-4.017,4.212-4.017
		c2.277,0,4.061,1.688,4.061,3.843C449.086,50.15,447.394,52.227,444.873,52.227z M444.787,44.943c-2.488,0-2.682,2.384-2.682,3.114
		c0,1.785,1.032,3.593,3.006,3.593c2.489,0,2.683-2.385,2.683-3.116C447.794,46.75,446.761,44.943,444.787,44.943z"/>
	<path fill="#4D463A" d="M450.248,52.119l-0.032-0.096c-0.008-0.049-0.016-0.253,0.082-0.283c0.415-0.042,0.648-0.097,0.813-0.193
		c0.112-0.054,0.214-0.382,0.214-2.406V47.45c0-1.655-0.063-2.394-0.211-2.469c-0.121-0.068-0.31-0.143-0.807-0.19
		c-0.088-0.028-0.105-0.151-0.093-0.227l0.007-0.042l0.069-0.046c0.934,0.021,2.472,0.021,3.229,0.021
		c1.017,0,1.709-0.021,2.079-0.045l0.053-0.003l0.065,0.098c-0.021,0.392-0.065,0.915-0.131,1.544c0,0.071-0.122,0.071-0.162,0.071
		c-0.057,0-0.242-0.008-0.242-0.12c0-0.305-0.075-0.534-0.224-0.681c-0.155-0.173-0.528-0.376-1.438-0.376
		c-0.49,0-0.91,0.022-1.032,0.044c0.023,0.051-0.001,0.47-0.001,1.251v1.711l0.795-0.05c1.143,0,1.258-0.123,1.315-0.501
		c0.024-0.052,0.074-0.067,0.176-0.067c0.228,0,0.228,0.047,0.228,0.075c-0.021,0.329-0.064,1.499-0.064,1.822
		c0,0.06-0.07,0.064-0.162,0.064c-0.085,0-0.24,0-0.24-0.085c0-0.247-0.059-0.443-0.156-0.526c-0.092-0.092-0.23-0.16-1.117-0.16
		h-0.823l0.05,0.577c0,1.923,0.088,2.345,0.229,2.403c0.145,0.083,0.487,0.147,1.024,0.194c0.104,0.043,0.08,0.303,0.076,0.325
		l-0.058,0.056H450.248z"/>
	<path fill="#4D463A" d="M465.241,52.141c-0.341,0-0.709-0.009-1.106-0.019c-0.46-0.011-0.958-0.024-1.494-0.024
		c-0.781,0-1.344,0-2.211,0.021c-0.062-0.078-0.086-0.338,0.001-0.377c0.486-0.048,0.672-0.11,0.817-0.195
		c0.143-0.059,0.216-0.458,0.216-2.406V47.45c0-1.944-0.074-2.344-0.21-2.401c-0.146-0.084-0.33-0.148-0.81-0.215l0,0
		c-0.069,0-0.08-0.136-0.08-0.212v-0.05l0.064-0.095h3.301l0.015,0.147c0,0.076-0.009,0.21-0.085,0.21
		c-0.474,0.066-0.657,0.13-0.799,0.212c-0.14,0.06-0.213,0.459-0.213,2.404v1.691c0,1.67,0.154,2.095,0.246,2.199
		c0.111,0.112,0.254,0.2,0.96,0.2c0.642,0,1.091-0.157,1.372-0.479c0.265-0.312,0.451-0.814,0.53-1.15
		c0.012-0.035,0.045-0.071,0.144-0.071c0.085,0,0.259,0.03,0.259,0.125c-0.061,0.578-0.236,1.745-0.354,1.935
		C465.69,52.069,465.522,52.141,465.241,52.141z"/>
	<path fill="#4D463A" d="M471.483,52.119c-0.062-0.069-0.11-0.335-0.021-0.376c0.38-0.027,0.579-0.109,0.579-0.236
		c0-0.19-0.169-0.618-0.842-2.215l-2.339,0.03c-0.482,1.35-0.644,1.853-0.644,2.118c0,0.125,0.076,0.248,0.627,0.298
		c0.111,0.032,0.085,0.231,0.082,0.253l-0.006,0.043l-0.081,0.084h-2.554l-0.033-0.081c-0.006-0.029-0.031-0.258,0.053-0.296
		c0.369-0.027,0.581-0.087,0.748-0.211c0.236-0.174,0.527-0.649,1.177-2.407l0.76-1.982c0.335-0.884,0.679-1.79,0.951-2.609
		c0.021-0.082,0.181-0.1,0.311-0.1c0.084,0,0.283,0.009,0.325,0.093c0.314,0.926,0.61,1.687,0.968,2.607l0.788,1.99
		c0.894,2.148,1.032,2.303,1.237,2.425c0.202,0.123,0.369,0.167,0.713,0.19c0.108,0.044,0.061,0.307,0.061,0.309l-0.063,0.072
		H471.483z M469.125,48.747l1.926-0.067l-0.996-2.454L469.125,48.747z"/>
	<path fill="#4D463A" d="M475.625,52.119l-0.033-0.081c-0.006-0.029-0.031-0.258,0.053-0.296c0.484-0.048,0.783-0.111,0.928-0.195
		c0.141-0.058,0.213-0.458,0.213-2.406v-2.775c0-0.713,0-1.184-0.04-1.305c0.003,0.023-0.023,0.029-0.064,0.029
		c-0.019,0-0.041-0.001-0.065-0.003c-0.11-0.007-0.251-0.016-0.409-0.016c-1.208,0-1.552,0.123-1.829,0.379
		c-0.146,0.129-0.266,0.39-0.354,0.775l-0.009,0.039l-0.098,0.018c-0.1,0-0.274-0.014-0.274-0.113
		c0.039-0.355,0.179-1.739,0.179-1.739l0.11-0.043c0.589,0.087,1.746,0.131,3.446,0.131c2.883,0,3.287-0.067,3.492-0.149
		l0.068-0.027l0.065,0.117c0,0.45-0.019,1.12-0.109,1.763c0,0.057-0.085,0.057-0.154,0.057c-0.2,0-0.226-0.045-0.226-0.085
		c0-0.327-0.074-0.599-0.204-0.746c-0.216-0.196-0.52-0.376-1.828-0.376c-0.155,0-0.272,0.009-0.364,0.016
		c-0.062,0.004-0.111,0.008-0.155,0.008c0.019,0.05-0.016,0.345-0.016,1.271v2.775c0,1.922,0.088,2.345,0.229,2.403
		c0.151,0.087,0.45,0.15,0.919,0.194c0.1,0.042,0.074,0.271,0.068,0.3l-0.009,0.04l-0.064,0.041H475.625z"/>
	<path fill="#4D463A" d="M483.665,52.119l-0.033-0.081c-0.006-0.029-0.031-0.258,0.053-0.296c0.484-0.048,0.783-0.111,0.928-0.195
		c0.141-0.058,0.214-0.458,0.214-2.406v-2.775c0-0.712,0-1.183-0.041-1.304c0.003,0.023-0.023,0.029-0.063,0.029
		c-0.019,0-0.041-0.001-0.064-0.003c-0.111-0.007-0.253-0.016-0.41-0.016c-1.209,0-1.553,0.123-1.83,0.379
		c-0.146,0.129-0.265,0.39-0.353,0.775l-0.009,0.039l-0.099,0.018c-0.099,0-0.274-0.014-0.274-0.113
		c0.042-0.387,0.179-1.739,0.179-1.739l0.11-0.043c0.588,0.087,1.745,0.131,3.446,0.131c2.883,0,3.288-0.067,3.493-0.149
		l0.068-0.027l0.064,0.117c0,0.367-0.014,1.083-0.107,1.763c0,0.057-0.086,0.057-0.155,0.057c-0.201,0-0.228-0.043-0.228-0.085
		c0-0.327-0.074-0.599-0.204-0.747c-0.215-0.196-0.519-0.375-1.826-0.375c-0.156,0-0.272,0.009-0.364,0.016
		c-0.062,0.004-0.112,0.008-0.156,0.008c0.02,0.051-0.015,0.346-0.015,1.271v2.775c0,1.923,0.087,2.345,0.229,2.403
		c0.151,0.087,0.45,0.15,0.919,0.194c0.101,0.042,0.075,0.268,0.069,0.298l-0.009,0.04l-0.065,0.043H483.665z"/>
	<path fill="#4D463A" d="M494.801,52.141c-0.341,0-0.709-0.009-1.105-0.019c-0.46-0.011-0.958-0.024-1.494-0.024
		c-0.781,0-1.257,0-2.103,0.021l-0.041,0.001l-0.033-0.082c-0.006-0.029-0.031-0.258,0.053-0.296
		c0.439-0.044,0.679-0.101,0.816-0.193c0.15-0.063,0.237-0.485,0.237-2.408V47.45c0-1.918-0.088-2.341-0.229-2.401
		c-0.141-0.093-0.373-0.154-0.812-0.215c0,0,0,0-0.001,0c-0.048,0-0.074-0.058-0.074-0.178c0-0.121,0.026-0.179,0.082-0.179
		c0.934,0.021,2.406,0.021,3.187,0.021c0.995,0,1.558-0.021,1.904-0.045l0.053-0.004l0.087,0.099
		c-0.02,0.183-0.035,0.397-0.052,0.636c-0.02,0.283-0.042,0.6-0.077,0.928c-0.024,0.072-0.11,0.084-0.179,0.084
		c-0.083,0-0.226-0.026-0.226-0.109c0-0.328-0.076-0.58-0.226-0.748c-0.203-0.203-0.595-0.286-1.351-0.286
		c-0.313,0-0.561,0.009-0.729,0.015l-0.201,0.005c0.006,0.089,0.006,0.487,0.006,1.21v1.625l0.839-0.05
		c1.131,0,1.256-0.25,1.316-0.63c0.012-0.029,0.033-0.074,0.208-0.074c0.132,0,0.193,0.026,0.193,0.082
		c-0.021,0.329-0.064,1.713-0.064,2.016c0,0.057-0.062,0.082-0.201,0.082c-0.14,0-0.202-0.025-0.202-0.082
		c0-0.23-0.048-0.502-0.155-0.59c-0.094-0.077-0.253-0.206-1.115-0.206h-0.868l0.05,0.687c0,1.669,0.155,2.095,0.247,2.199
		c0.138,0.119,0.282,0.2,0.982,0.2c0.643,0,1.09-0.133,1.328-0.394c0.182-0.182,0.298-0.422,0.378-0.78l0.009-0.039l0.103-0.027
		c0.061,0,0.165,0.028,0.196,0.078c-0.036,0.667-0.147,1.34-0.235,1.517C495.198,52.051,495.114,52.141,494.801,52.141z"/>
	<path fill="#4D463A" d="M497.101,52.119l-0.034-0.099c-0.007-0.048-0.015-0.25,0.083-0.28c0.415-0.042,0.648-0.097,0.813-0.193
		c0.112-0.054,0.214-0.382,0.214-2.406V47.45c0-2.02-0.102-2.348-0.211-2.402c-0.159-0.092-0.393-0.153-0.809-0.214
		c-0.001,0-0.001,0-0.001,0c-0.057,0-0.094-0.073-0.094-0.196c0-0.133,0.044-0.161,0.081-0.161c0.282,0,0.588,0.006,0.882,0.011
		c0.269,0.005,0.525,0.01,0.743,0.01c0.204,0,0.417-0.005,0.644-0.01c0.253-0.006,0.522-0.012,0.81-0.012
		c1.863,0,2.868,1.008,2.868,1.956c0,1.14-0.98,1.888-1.564,2.232c1.607,2.23,2.456,3.007,3.378,3.007c0,0,0.347,0,0.348,0
		c0.109,0,0.12,0.282,0.12,0.285c-0.311,0.12-0.53,0.141-0.815,0.141c-0.866,0-1.412-0.126-1.828-0.421
		c-0.66-0.411-1.333-1.232-2.246-2.747c-0.128,0.03-0.267,0.033-0.388,0.033c-0.22,0-0.383-0.009-0.586-0.02l-0.22-0.011l0.052,0.21
		c0,1.923,0.087,2.345,0.228,2.403c0.146,0.083,0.488,0.147,1.025,0.194c0.104,0.043,0.08,0.301,0.075,0.324l-0.058,0.057H497.101z
		 M500.199,45.008c-0.446,0-0.646,0.075-0.671,0.125c-0.056,0.059-0.188,0.581-0.188,2.317c0,0.668,0.04,0.76,0.092,0.81
		c0.092,0.077,0.289,0.183,0.897,0.183c0.811,0,1.445-0.712,1.445-1.62C501.774,45.669,501.2,45.008,500.199,45.008z"/>
	<path fill="#4D463A" d="M505.329,49.142c-0.033,0-0.282-0.027-0.282-0.129c0.021-0.265,0.064-0.811,0.109-1.05l1.825-0.064
		c1.341,0,1.565-0.197,1.735-0.475c0.03-0.012,0.077-0.019,0.128-0.019c0.105,0,0.225,0.028,0.225,0.09l-0.015,0.186
		c-0.04,0.51-0.065,0.763-0.102,0.818c-0.055,0.077-0.148,0.108-0.323,0.108l-1.451,0.02c-1.435,0-1.644,0.213-1.756,0.47
		l-0.013,0.03L505.329,49.142z"/>
	<path fill="#4D463A" d="M513.896,52.119c-0.283,0-0.649-0.006-1-0.011c-0.319-0.005-0.625-0.01-0.843-0.01
		c-0.206,0-0.462,0.005-0.729,0.01c-0.294,0.005-0.603,0.011-0.875,0.011h-0.04l-0.033-0.08c-0.006-0.03-0.031-0.258,0.053-0.296
		c0.485-0.049,0.677-0.113,0.818-0.195c0.147-0.061,0.235-0.483,0.235-2.406V47.45c0-1.919-0.088-2.341-0.229-2.401
		c-0.146-0.084-0.329-0.148-0.811-0.215c0,0,0,0-0.001,0c-0.048,0-0.074-0.058-0.074-0.178c0-0.121,0.026-0.179,0.082-0.179
		c0.272,0,0.581,0.006,0.875,0.011c0.267,0.005,0.522,0.01,0.729,0.01c0.22,0,1.812-0.021,2.08-0.021
		c2.451,0,4.299,1.605,4.299,3.733c0,0.96-0.467,1.986-1.249,2.745C516.333,51.782,515.381,52.119,513.896,52.119z M513.788,45.008
		c-0.727,0-0.906,0.106-0.98,0.198c-0.056,0.076-0.163,0.636-0.163,2.201v1.734c0,1.549,0.135,2.028,0.248,2.156
		c0.203,0.203,0.365,0.267,0.98,0.267c2.274,0,3.289-0.975,3.289-3.159C517.162,46.769,516.106,45.008,513.788,45.008z"/>
	<path fill="#4D463A" d="M523.717,52.119c-0.062-0.073-0.112-0.336-0.021-0.377c0.379-0.027,0.578-0.109,0.578-0.235
		c0-0.19-0.169-0.618-0.842-2.215l-2.34,0.03c-0.481,1.348-0.643,1.851-0.643,2.118c0,0.125,0.076,0.249,0.628,0.298
		c0.11,0.033,0.083,0.236,0.079,0.259l-0.007,0.042l-0.077,0.079h-2.556l-0.033-0.081c-0.006-0.029-0.031-0.258,0.053-0.296
		c0.369-0.027,0.581-0.087,0.75-0.211c0.236-0.174,0.526-0.649,1.175-2.407l0.762-1.988c0.335-0.882,0.678-1.787,0.95-2.604
		c0.021-0.082,0.18-0.1,0.31-0.1c0.084,0,0.282,0.009,0.324,0.093c0.319,0.937,0.618,1.705,0.982,2.64l0.776,1.958
		c0.893,2.149,1.031,2.303,1.235,2.425c0.206,0.124,0.366,0.167,0.715,0.19c0.107,0.046,0.059,0.313,0.058,0.315l-0.061,0.065
		H523.717z M521.357,48.747l1.926-0.067l-0.995-2.454L521.357,48.747z"/>
	<path fill="#4D463A" d="M527.641,52.119l-0.033-0.081c-0.006-0.029-0.031-0.258,0.053-0.296c0.483-0.048,0.782-0.111,0.928-0.195
		c0.142-0.059,0.215-0.458,0.215-2.406v-0.346c-0.254-0.429-0.513-0.862-0.839-1.361l-0.672-1.041
		c-0.741-1.144-0.943-1.37-1.143-1.431c-0.194-0.085-0.431-0.106-0.769-0.129h-0.001c-0.052,0-0.079-0.062-0.079-0.19
		c0-0.128,0.027-0.19,0.083-0.19h2.883c0.082,0,0.091,0.148,0.091,0.211c0,0.064-0.026,0.169-0.091,0.169
		c-0.244,0.022-0.372,0.042-0.474,0.103c-0.06,0.096,0.536,0.999,0.732,1.295l1.171,1.931l1.129-1.907
		c0.433-0.688,0.661-1.089,0.627-1.237c-0.159-0.128-0.323-0.164-0.61-0.185l0,0c-0.055,0-0.071-0.1-0.071-0.158
		c0-0.223,0.049-0.223,0.075-0.223h2.536c0.056,0,0.083,0.062,0.083,0.19s-0.027,0.19-0.083,0.19
		c-0.369,0.025-0.649,0.069-0.806,0.128c-0.289,0.146-0.535,0.485-1.124,1.431l-0.652,1.041c-0.261,0.404-0.521,0.842-0.765,1.25
		l-0.057,0.094l0.007,0.363c0,2.025,0.101,2.352,0.21,2.404c0.148,0.086,0.447,0.148,0.916,0.192c0.1,0.042,0.074,0.271,0.068,0.3
		l-0.009,0.04l-0.064,0.041H527.641z"/>
	<path fill="#4D463A" d="M539.336,52.227c-1.106,0-1.947-0.55-1.979-0.733c-0.082-0.372-0.092-1.034-0.022-1.686
		c0-0.077,0.146-0.086,0.209-0.086c0.144,0,0.173,0.05,0.173,0.091c0.036,0.383,0.18,0.796,0.383,1.099
		c0.394,0.517,0.856,0.759,1.453,0.759c0.795,0,1.251-0.48,1.251-1.317c0-0.803-0.729-1.287-1.499-1.8
		c-0.829-0.553-1.688-1.124-1.688-2.146c0-1.247,1.18-2.085,2.282-2.085c0.478,0,0.771,0.087,1.006,0.157
		c0.152,0.045,0.271,0.081,0.399,0.081c0.055,0,0.109-0.007,0.165-0.021h0.051l0.099,0.093c-0.011,0.208-0.011,0.456-0.011,0.73
		c0,0.276,0,0.58-0.011,0.896c0,0.056-0.062,0.082-0.193,0.082c-0.115,0-0.185-0.021-0.205-0.061
		c-0.025-0.378-0.194-0.82-0.381-1.004c-0.238-0.238-0.65-0.398-1.026-0.398c-0.671,0-1.121,0.45-1.121,1.12
		c0,0.649,0.708,1.128,1.457,1.635c0.861,0.583,1.838,1.243,1.838,2.289C541.966,51.365,540.629,52.227,539.336,52.227z"/>
	<path fill="#4D463A" d="M547.421,52.119c-0.062-0.071-0.111-0.335-0.021-0.376c0.378-0.027,0.577-0.11,0.577-0.236
		c0-0.191-0.18-0.644-0.842-2.215l-2.338,0.03c-0.482,1.35-0.645,1.852-0.645,2.118c0,0.125,0.076,0.248,0.627,0.298
		c0.11,0.032,0.083,0.234,0.08,0.257l-0.006,0.042l-0.079,0.081h-2.555l-0.033-0.08c-0.006-0.03-0.031-0.258,0.053-0.296
		c0.369-0.027,0.581-0.087,0.75-0.211c0.235-0.174,0.526-0.649,1.176-2.407l0.779-2.032c0.328-0.868,0.665-1.756,0.932-2.56
		c0.021-0.083,0.181-0.1,0.311-0.1c0.104,0,0.284,0.012,0.323,0.094c0.319,0.934,0.618,1.701,0.981,2.635l0.778,1.962
		c0.892,2.149,1.03,2.303,1.234,2.425c0.206,0.124,0.366,0.167,0.715,0.19c0.109,0.045,0.06,0.308,0.06,0.311l-0.062,0.07H547.421z
		 M545.062,48.747l1.926-0.067l-0.996-2.454L545.062,48.747z"/>
	<path fill="#4D463A" d="M550.388,52.119c-0.061-0.074-0.085-0.337,0-0.376c0.486-0.048,0.784-0.112,0.904-0.193
		c0.15-0.062,0.238-0.485,0.238-2.408V47.45c0-1.919-0.088-2.341-0.229-2.401c-0.122-0.081-0.388-0.144-0.898-0.215l0,0
		c-0.069,0-0.078-0.136-0.078-0.212v-0.05l0.063-0.095h3.496l0.015,0.148c0,0.075-0.01,0.209-0.085,0.209
		c-0.504,0.071-0.771,0.134-0.883,0.21c-0.151,0.065-0.239,0.488-0.239,2.406v1.691c0,1.922,0.088,2.344,0.23,2.403
		c0.128,0.086,0.427,0.149,0.896,0.194c0.102,0.043,0.078,0.303,0.073,0.325l-0.058,0.056H550.388z"/>
	<path fill="#4D463A" d="M562.504,52.179c-0.079,0-0.183-0.009-0.228-0.052l-5.745-5.81l0.128,2.823
		c0.021,1.921,0.17,2.293,0.326,2.41c0.093,0.074,0.482,0.188,0.816,0.188c0.064,0,0.091,0.105,0.091,0.169
		c0,0.063-0.009,0.211-0.091,0.211h-2.945l-0.033-0.081c-0.006-0.029-0.031-0.258,0.053-0.296c0.494-0.049,0.76-0.113,0.879-0.21
		c0.109-0.087,0.215-0.438,0.176-2.39l-0.021-1.692c0-0.991,0-2.014-0.064-2.921c0-0.104,0.218-0.116,0.312-0.116
		c0.175,0,0.208,0.042,0.219,0.074l5.754,5.832L562,47.451c-0.02-1.969-0.172-2.32-0.303-2.406
		c-0.144-0.104-0.415-0.167-0.909-0.211l0,0c-0.057,0-0.086-0.099-0.086-0.161c0-0.046,0.007-0.196,0.091-0.196h2.926
		c0.085,0,0.092,0.152,0.092,0.199c0,0.061-0.03,0.159-0.092,0.159c-0.452,0.063-0.668,0.125-0.791,0.227
		c-0.109,0.089-0.219,0.443-0.198,2.389v1.692c0,0.991,0,2.016,0.064,2.924C562.794,52.165,562.612,52.179,562.504,52.179z"/>
	<path fill="#4D463A" d="M566.301,52.119l-0.033-0.081c-0.006-0.029-0.031-0.258,0.053-0.296c0.483-0.048,0.78-0.111,0.926-0.195
		c0.142-0.058,0.215-0.458,0.215-2.406v-2.775c0-0.712,0-1.183-0.041-1.305c0.003,0.023-0.023,0.029-0.063,0.029
		c-0.019,0-0.041-0.001-0.064-0.003c-0.111-0.007-0.252-0.016-0.41-0.016c-1.208,0-1.552,0.123-1.829,0.379
		c-0.146,0.129-0.262,0.383-0.354,0.776l-0.009,0.038l-0.098,0.018c-0.099,0-0.272-0.015-0.272-0.113l0.178-1.739l0.109-0.043
		c0.59,0.087,1.748,0.131,3.447,0.131c2.883,0,3.287-0.067,3.492-0.149l0.068-0.027l0.066,0.117c0,0.361-0.014,1.071-0.109,1.763
		c0,0.057-0.086,0.057-0.154,0.057c-0.201,0-0.227-0.045-0.227-0.085c0-0.327-0.075-0.599-0.205-0.746
		c-0.215-0.196-0.519-0.376-1.827-0.376c-0.156,0-0.272,0.009-0.364,0.016c-0.062,0.004-0.111,0.008-0.155,0.008
		c0.006,0.086-0.015,0.525-0.015,1.271v2.775c0,1.923,0.088,2.345,0.229,2.403c0.152,0.087,0.45,0.15,0.918,0.194
		c0.101,0.042,0.075,0.268,0.069,0.298l-0.009,0.04l-0.065,0.043H566.301z"/>
	<path fill="#4D463A" d="M574.337,52.227c-1.106,0-1.947-0.55-1.979-0.733c-0.083-0.373-0.092-1.036-0.021-1.686
		c0-0.077,0.146-0.086,0.209-0.086c0.143,0,0.172,0.05,0.172,0.091c0.037,0.385,0.181,0.797,0.383,1.099
		c0.394,0.517,0.856,0.759,1.454,0.759c0.794,0,1.25-0.48,1.25-1.317c0-0.803-0.729-1.287-1.499-1.8
		c-0.829-0.553-1.688-1.124-1.688-2.146c0-1.247,1.181-2.085,2.283-2.085c0.477,0,0.77,0.087,1.005,0.157
		c0.152,0.045,0.272,0.081,0.399,0.081c0.056,0,0.109-0.007,0.165-0.021h0.051l0.099,0.093c-0.011,0.208-0.011,0.456-0.011,0.73
		c0,0.276,0,0.58-0.012,0.896c0,0.055-0.062,0.082-0.193,0.082c-0.176,0-0.197-0.047-0.205-0.062
		c-0.025-0.377-0.193-0.819-0.38-1.003c-0.238-0.238-0.65-0.398-1.026-0.398c-0.67,0-1.12,0.45-1.12,1.12
		c0,0.649,0.708,1.128,1.457,1.635c0.861,0.583,1.837,1.243,1.837,2.289C576.967,51.365,575.63,52.227,574.337,52.227z"/>
</g>



<g id="byuh">
	<path fill="#4D463A" d="M183.499,30.521h-68.696c-0.049,0-0.09,0.041-0.09,0.09c0,0.049,0.041,0.089,0.09,0.089h68.696
		c0.05,0,0.09-0.04,0.09-0.089C183.589,30.562,183.548,30.521,183.499,30.521z"/>
	<path fill="#4D463A" d="M185.02,6.521h-9.872c-0.04,0-0.04,0.075-0.013,0.081c0.006,0.002,0.013,0.003,0.013,0.003
		c0.556,0.12,0.831,0.196,1.312,0.429c0.356,0.183,0.387,0.523,0.387,1.055v9.865c0,2.249-1.287,3.976-3.845,3.976
		s-3.847-1.726-3.847-3.976V8.092c0-0.53,0.032-0.875,0.389-1.056c0.479-0.235,0.757-0.309,1.312-0.432c0,0,0.006,0,0.011-0.001
		c0.025-0.008,0.027-0.082-0.014-0.082h-9.319c-0.039,0-0.039,0.076-0.012,0.082c0.005,0.001,0.011,0.003,0.011,0.003
		c0.312,0.073,0.524,0.175,0.763,0.38c0.308,0.263,0.387,0.571,0.387,1.103v9.695c0,4.675,2.556,8.644,10.319,8.644
		c7.761,0,10.318-3.97,10.318-8.644V8.086c0-0.53,0.032-0.869,0.389-1.051c0.48-0.234,0.757-0.308,1.312-0.431
		c0,0,0.008,0,0.012-0.001C185.059,6.596,185.06,6.521,185.02,6.521z"/>
	<path fill="#4D463A" d="M135.954,20.385c0-2.562-1.193-4.149-3.556-4.739c-0.014-0.002-0.015-0.034,0-0.04
		c1.505-0.471,2.89-1.573,2.89-4.242c0-3.619-2.444-4.843-7.776-4.843h-12.783c-0.04,0-0.039,0.075-0.012,0.081
		c0.005,0.003,0.012,0.003,0.012,0.003c0.554,0.12,0.832,0.196,1.312,0.431c0.357,0.182,0.384,0.52,0.384,1.049l-0.003,16.415
		c0,0.536-0.03,0.878-0.388,1.059c-0.48,0.234-0.756,0.309-1.311,0.432c0,0-0.008,0-0.013,0.001
		c-0.027,0.007-0.028,0.083,0.013,0.083c0.039,0,13.275,0,13.275,0C133.599,26.073,135.954,23.851,135.954,20.385z M122.655,10.209
		h2.999c1.956,0,3.105,0.303,3.105,2.08c0,1.154-0.713,2.185-3.023,2.185h-3.08V10.209z M125.549,22.295h-2.894v-4.797h2.602
		c1.733,0,3.854,0,3.854,2.399C129.111,21.673,127.592,22.295,125.549,22.295z"/>
	<path fill="#4D463A" d="M135.925,6.603c0.005,0.001,0.011,0.001,0.011,0.001c0.405,0.078,0.601,0.124,1.08,0.358
		c0.057,0.028,0.192,0.117,0.243,0.159c0.305,0.257,0.541,0.544,0.911,1.095l6.764,10.015l0.001,6.271
		c0,0.533-0.032,0.875-0.388,1.056c-0.481,0.234-0.757,0.309-1.313,0.432c0,0-0.006,0.001-0.011,0.002
		c-0.027,0.006-0.028,0.083,0.011,0.083h10.41c0.04,0,0.039-0.077,0.013-0.083c-0.005-0.001-0.012-0.002-0.012-0.002
		c-0.556-0.123-0.832-0.197-1.312-0.432c-0.356-0.181-0.387-0.522-0.387-1.056l0.001-6.229l6.771-10.056
		c0.372-0.552,0.609-0.839,0.913-1.096c0.051-0.042,0.165-0.137,0.241-0.185c0.281-0.182,0.425-0.256,0.765-0.333
		c0,0,0.005,0,0.012-0.003c0.027-0.006,0.027-0.08-0.013-0.08l-9.03-0.001c-0.039,0-0.037,0.075-0.012,0.081
		c0.006,0.002,0.013,0.003,0.013,0.003c0.333,0,0.846,0.024,0.812,0.804c-0.03,0.673-3.499,5.589-3.905,6.325
		c-1.217-1.844-3.883-5.593-3.909-6.325c-0.023-0.602,0.479-0.803,0.922-0.803c0,0,0.008-0.001,0.012-0.002
		c0.028-0.008,0.03-0.083-0.012-0.083h-9.589C135.898,6.521,135.899,6.596,135.925,6.603z"/>
	<path fill="#4D463A" d="M122.626,47.388l-0.064-0.137l-0.005-0.095l0.153-0.058c0.671-0.073,1.004-0.267,1.166-0.416
		c0.182-0.168,0.338-0.312,0.338-3.844v-1h-6.5v1c0,3.311,0.133,3.67,0.336,3.84c0.27,0.226,0.667,0.368,1.182,0.422l0.094,0.01
		l0.04,0.144l-0.005,0.095l-0.134,0.038h-4.598l-0.049-0.137l-0.005-0.094l0.138-0.061c0.662-0.067,0.986-0.272,1.172-0.419
		c0.213-0.167,0.334-0.427,0.334-3.839v-2.59c0-3.382-0.122-3.654-0.338-3.844c-0.247-0.216-0.638-0.357-1.165-0.418l-0.093-0.011
		l-0.046-0.14l0.005-0.095l0.142-0.043h4.6l0.046,0.138l0.004,0.096l-0.142,0.052c-0.758,0.083-1.078,0.339-1.183,0.424
		c-0.208,0.167-0.335,0.508-0.335,3.841v0.733h6.5v-0.733c0-3.308-0.127-3.659-0.337-3.844c-0.267-0.233-0.649-0.372-1.166-0.423
		l-0.095-0.01l-0.046-0.144l0.005-0.094l0.145-0.035h4.58l0.056,0.133l0.004,0.095l-0.145,0.056c-0.67,0.066-1.003,0.265-1.165,0.42
		c-0.176,0.168-0.342,0.326-0.342,3.847v2.59c0,3.519,0.158,3.67,0.341,3.845c0.151,0.146,0.476,0.337,1.162,0.416l0.095,0.011
		l0.046,0.148l-0.006,0.093l-0.144,0.037H122.626z"/>
	<path fill="#4D463A" d="M136.826,47.388l-0.047-0.141l-0.003-0.097l0.136-0.049c0.517-0.049,0.797-0.278,0.797-0.47
		c0-0.34-0.373-1.437-1.208-3.552h-3.531c-0.673,1.852-1.001,2.974-1.001,3.429c0,0.415,0.5,0.551,0.919,0.593l0.093,0.009
		l0.04,0.141l-0.003,0.097l-0.137,0.04h-3.729L129.1,47.25l-0.006-0.094l0.14-0.06c0.496-0.056,0.805-0.251,1.066-0.455
		c0.165-0.128,0.473-0.367,1.742-3.838l0.937-2.59l0.415-1.11c0.417-1.113,0.849-2.264,1.184-3.306
		c0.032-0.117,0.158-0.346,0.398-0.346c0.214,0,0.331,0.225,0.366,0.357c0.529,1.533,0.995,2.776,1.621,4.402l1.011,2.59
		c1.396,3.526,1.588,3.68,1.831,3.875c0.273,0.221,0.55,0.377,1.016,0.424l0.093,0.009l0.035,0.136l-0.003,0.097l-0.14,0.044
		H136.826z M136.158,42.153l-1.434-3.883l-1.417,3.883H136.158z"/>
	<path fill="#4D463A" d="M164.553,47.388l-0.049-0.142l-0.003-0.097l0.136-0.048c0.518-0.049,0.798-0.278,0.798-0.47
		c0-0.34-0.373-1.437-1.209-3.552h-3.532c-0.671,1.849-0.998,2.971-0.998,3.429c0,0.415,0.5,0.552,0.919,0.593l0.093,0.009
		l0.039,0.141l-0.003,0.096l-0.137,0.041h-3.728l-0.053-0.138l-0.006-0.094l0.14-0.06c0.496-0.056,0.806-0.251,1.066-0.455
		c0.166-0.128,0.473-0.368,1.742-3.838l0.937-2.59l0.421-1.127c0.416-1.107,0.846-2.252,1.178-3.289
		c0.032-0.117,0.159-0.346,0.4-0.346c0.191,0,0.313,0.184,0.364,0.355c0.535,1.549,1.017,2.834,1.621,4.404l1.01,2.59
		c1.395,3.524,1.588,3.679,1.833,3.875c0.281,0.228,0.549,0.377,1.015,0.424l0.093,0.009l0.036,0.137l-0.003,0.096l-0.14,0.044
		H164.553z M163.884,42.153l-1.434-3.883l-1.416,3.883H163.884z"/>
	<path fill="#4D463A" d="M151.577,47.569c-0.233,0-0.359-0.149-0.399-0.289c-0.562-1.48-1.054-2.737-1.769-4.402l-0.388-0.938
		l-0.404,0.938c-0.715,1.627-1.349,3.082-1.859,4.41c-0.037,0.083-0.146,0.266-0.408,0.266c-0.238,0-0.366-0.147-0.403-0.273
		c-0.481-1.495-0.905-2.755-1.524-4.407l-0.939-2.591c-1.145-3.054-1.425-3.616-1.738-3.854c-0.332-0.257-0.693-0.402-1.104-0.442
		l-0.095-0.009l-0.038-0.143l0.005-0.095l0.138-0.042h4.262l0.053,0.14l0.005,0.095l-0.143,0.053
		c-0.617,0.063-0.939,0.309-0.939,0.52c0,0.329,0.139,1.006,1.147,3.707l1.655,4.846l1.864-4.301l-0.23-0.472
		c-1.333-3.086-1.615-3.596-1.954-3.859c-0.324-0.253-0.701-0.402-1.121-0.444l-0.093-0.01l-0.039-0.137l0.004-0.096l0.139-0.042
		h7.666l0.051,0.14l0.004,0.095l-0.136,0.053c-0.499,0.047-0.774,0.259-0.993,0.454c-0.215,0.189-0.505,0.444-2.007,3.846
		c0.141,0.291,0.546,1.292,1.955,4.775l1.826-4.848c0.71-1.873,1.055-3.055,1.055-3.616c0-0.312-0.373-0.547-0.973-0.613
		l-0.093-0.011l-0.045-0.136l0.004-0.095l0.145-0.044h3.729l0.048,0.138l0.004,0.095l-0.139,0.056
		c-0.543,0.057-0.776,0.246-0.986,0.451c-0.201,0.193-0.531,0.51-1.802,3.847l-1.205,3.193c-0.492,1.284-1.001,2.611-1.401,3.807
		C151.944,47.38,151.826,47.569,151.577,47.569z M149.289,36.046c-0.512,0.049-0.806,0.217-0.806,0.461
		c0,0.333,0.138,0.892,0.809,2.533l0.065,0.161c0.51-1.295,0.769-2.17,0.769-2.604C150.127,36.292,149.822,36.091,149.289,36.046z"
		/>
	<path fill="#4D463A" d="M170.063,47.388l-0.043-0.136l-0.004-0.095l0.133-0.061c0.634-0.057,1.134-0.257,1.331-0.418
		c0.203-0.167,0.335-0.523,0.335-3.84v-2.59c0-3.33-0.138-3.691-0.333-3.839c-0.155-0.118-0.61-0.34-1.333-0.426l-0.094-0.011
		l-0.038-0.142l0.006-0.094l0.136-0.039h4.884l0.052,0.141l0.005,0.095l-0.143,0.054c-0.702,0.073-1.156,0.299-1.313,0.421
		c-0.219,0.171-0.352,0.516-0.352,3.84v2.59c0,3.32,0.133,3.666,0.353,3.838c0.189,0.15,0.669,0.338,1.316,0.422l0.093,0.012
		l0.039,0.141l-0.006,0.094l-0.139,0.042H170.063z"/>
	<path fill="#4D463A" d="M178.437,47.388l-0.043-0.136l-0.005-0.095l0.131-0.061c0.733-0.066,1.192-0.302,1.332-0.418
		c0.203-0.166,0.336-0.522,0.336-3.84v-2.59c0-3.33-0.138-3.691-0.333-3.839c-0.155-0.118-0.61-0.34-1.333-0.426l-0.094-0.011
		l-0.039-0.142l0.006-0.094l0.136-0.039h4.883l0.052,0.141l0.004,0.095l-0.143,0.054c-0.703,0.073-1.157,0.299-1.314,0.421
		c-0.218,0.172-0.35,0.516-0.35,3.84v2.59c0,3.322,0.132,3.667,0.351,3.838c0.19,0.15,0.671,0.338,1.318,0.422l0.093,0.012
		l0.039,0.141l-0.006,0.093l-0.14,0.043H178.437z"/>
</g>



<g id="byui">
	<g>
		<path fill="#4D463A" d="M86.836,15.38H76.308c-0.043,0-0.041,0.08-0.013,0.086c0.006,0,0.012,0.004,0.012,0.004
			c0.594,0.129,0.888,0.209,1.4,0.457c0.38,0.193,0.412,0.559,0.412,1.125v10.521c0,2.396-1.373,4.238-4.1,4.238
			c-2.726,0-4.102-1.842-4.102-4.238l0.001-10.516c0-0.568,0.033-0.934,0.413-1.129c0.511-0.25,0.807-0.328,1.4-0.459
			c0,0,0.006-0.002,0.011-0.004c0.028-0.006,0.028-0.086-0.014-0.086H61.79c-0.042,0-0.042,0.082-0.013,0.086
			c0.004,0.004,0.012,0.006,0.012,0.006c0.333,0.078,0.559,0.186,0.813,0.404c0.329,0.279,0.412,0.609,0.412,1.176V27.39
			c0,4.986,2.726,9.221,11.004,9.221c8.277,0,11.004-4.234,11.004-9.221V17.052c0-0.568,0.034-0.928,0.415-1.123
			c0.511-0.25,0.808-0.328,1.398-0.459c0,0,0.008-0.002,0.013-0.004C86.878,15.46,86.878,15.38,86.836,15.38z"/>
		<path fill="#4D463A" d="M34.511,30.165c0-2.733-1.272-4.426-3.792-5.053c-0.015-0.004-0.018-0.039,0-0.045
			c1.606-0.5,3.082-1.678,3.082-4.523c0-3.858-2.607-5.164-8.292-5.164H11.877c-0.042,0-0.041,0.08-0.013,0.086
			c0.006,0.002,0.011,0.004,0.011,0.004c0.593,0.129,0.889,0.209,1.4,0.459c0.381,0.195,0.411,0.555,0.411,1.119l-0.004,17.506
			c0,0.568-0.032,0.934-0.412,1.127c-0.513,0.25-0.807,0.328-1.398,0.463c0,0-0.008,0-0.014,0c-0.028,0.006-0.029,0.086,0.014,0.086
			c0.042,0,14.157,0,14.157,0C32,36.229,34.511,33.86,34.511,30.165z M20.329,19.312h3.2c2.084,0,3.31,0.324,3.31,2.221
			c0,1.233-0.76,2.33-3.224,2.33h-3.286V19.312z M23.415,32.202h-3.086v-5.115h2.776c1.848,0,4.108,0,4.108,2.557
			C27.213,31.536,25.595,32.202,23.415,32.202z"/>
		<path fill="#4D463A" d="M34.481,15.466c0.004,0.002,0.011,0.004,0.011,0.004c0.433,0.084,0.642,0.131,1.152,0.381
			c0.061,0.029,0.204,0.125,0.258,0.172c0.326,0.272,0.578,0.58,0.974,1.166l7.212,10.68l0.001,6.687
			c0,0.566-0.034,0.932-0.413,1.125c-0.513,0.25-0.808,0.33-1.401,0.463c0,0-0.007,0-0.012,0c-0.029,0.006-0.03,0.09,0.012,0.09
			h11.101c0.043,0,0.042-0.084,0.015-0.09c-0.006,0-0.015,0-0.015,0c-0.591-0.133-0.886-0.213-1.399-0.463
			c-0.379-0.193-0.412-0.559-0.412-1.125l0.001-6.643l7.221-10.723c0.396-0.588,0.65-0.896,0.972-1.168
			c0.056-0.047,0.176-0.146,0.257-0.199c0.301-0.191,0.455-0.272,0.818-0.354c0,0,0.005-0.002,0.011-0.004
			c0.029-0.006,0.029-0.086-0.013-0.086h-9.629c-0.043,0-0.04,0.08-0.013,0.086c0.005,0,0.015,0.004,0.015,0.004
			c0.354,0,0.901,0.025,0.864,0.855c-0.032,0.719-3.732,5.961-4.163,6.746c-1.299-1.967-4.142-5.965-4.169-6.746
			c-0.024-0.643,0.512-0.855,0.984-0.855c0,0,0.007-0.002,0.011-0.004c0.031-0.006,0.032-0.086-0.011-0.086H34.491
			C34.45,15.38,34.452,15.46,34.481,15.466z"/>
	</g>
</g>


<g id="ldsbc">
	<rect x="312.058" y="30.526" fill="#4D463A" width="58.202" height="0.171"/>
	<path fill="#4D463A" d="M318.304,20.215h8.548c0.67,0,1.059-0.166,1.169-1.187h0.124v5.251l-17.014,0.017v-0.081
		c1.543-0.067,1.655-0.673,1.655-1.434V8.085c0-0.596-0.112-1.247-1.645-1.313V6.698h8.791v0.073
		c-1.517,0.066-1.627,0.588-1.627,1.219V20.215z"/>
	<path fill="#4D463A" d="M336.815,10.648h2.63c3.901,0,5.484,2.007,5.484,4.85c0,2.845-1.582,4.85-5.484,4.85h-2.63V10.648z
		 M331.295,22.967c0,0.612-0.111,1.144-1.677,1.208v0.121h10.415c6.846,0,10.343-4.215,10.343-8.799
		c0-4.983-3.167-8.799-9.937-8.799h-10.822v0.1c1.566,0.063,1.677,0.583,1.677,1.374V22.967z"/>
	<path fill="#4D463A" d="M355.204,17.108l0.085,0.064c-0.198,0.397-0.146,0.729,0,1.126c0.431,1.171,2.785,2.301,6.613,2.319
		c3.333,0.014,4.495-0.919,4.006-2.276c-0.843-2.341-12.29,0.396-12.926-5.884c-0.336-3.33,2.963-6.099,8.373-6.13
		c5.373-0.035,7.654,1.464,8.644,1.546c0.406,0.032,0.722-0.01,0.993-0.433l0.078,0.025l-2.961,5.225l-0.07-0.037
		c0,0,0.162-0.305,0.102-0.642c-0.237-1.302-2.977-1.824-5.66-1.893c-2.789-0.069-3.989,0.56-3.904,1.6
		c0.241,2.968,12.91-0.974,12.91,6.724c0,2.875-2.635,6.054-9.473,6.054c-6.146,0-7.637-1.461-8.48-1.537
		c-0.807-0.076-1.003,0.281-1.191,0.561l-0.069-0.041L355.204,17.108z"/>
	<g>
		<path fill="#4D463A" d="M314.38,44.104c-0.24,0-0.417-0.006-0.587-0.011c-0.152-0.005-0.298-0.01-0.479-0.01
			s-0.382,0.005-0.591,0.01c-0.233,0.005-0.479,0.011-0.725,0.011h-0.13l-0.039-0.158c-0.014-0.095,0.028-0.208,0.137-0.24
			c0.409-0.041,0.634-0.072,0.731-0.13c0.145-0.078,0.145-1.69,0.145-2.22v-1.513c0-0.531,0-2.145-0.139-2.219
			c-0.107-0.064-0.361-0.093-0.71-0.126l-0.156-0.015l-0.008-0.231c0.013-0.093,0.083-0.158,0.169-0.158
			c0.245,0,0.49,0.005,0.725,0.011c0.209,0.005,0.409,0.01,0.591,0.01c0.181,0,0.323-0.005,0.474-0.009
			c0.169-0.006,0.347-0.011,0.593-0.011c1.555,0,2.119,0.969,2.119,1.62c0,0.555-0.312,1.066-0.865,1.441
			c0.949,0.311,1.486,0.957,1.486,1.812C317.12,42.952,316.402,44.104,314.38,44.104z M313.797,40.593
			c-0.012,0.207-0.013,0.812-0.013,1.341c0,1.313,0.086,1.509,0.096,1.527c0.049,0.042,0.361,0.125,0.8,0.125
			c0.688,0,1.383-0.421,1.383-1.363c0-0.981-0.726-1.64-1.806-1.64C314.005,40.583,313.868,40.588,313.797,40.593z M314.359,37.6
			c-0.303,0-0.534,0.036-0.579,0.055c0.019,0.038,0.004,0.59,0.004,1.588c0,0.561,0.009,0.768,0.017,0.844
			c0.012-0.007,0.04-0.009,0.09-0.009c0.086,0,0.236,0.007,0.479,0.007c0.951,0,1.093-0.729,1.093-1.164
			C315.462,38.014,314.891,37.6,314.359,37.6z"/>
		<path fill="#4D463A" d="M323.091,44.167c-1.619,0-2.751-1.054-2.751-2.563v-1.761c0-1.419-0.048-2.167-0.143-2.222
			c-0.095-0.057-0.24-0.084-0.652-0.124l-0.155-0.015l-0.011-0.23c0.013-0.094,0.082-0.159,0.169-0.159h2.703l0.04,0.172
			c0.012,0.11-0.053,0.207-0.153,0.229c-0.352,0.036-0.597,0.064-0.699,0.126c-0.146,0.078-0.146,1.692-0.146,2.223v1.575
			c0,1.243,0.799,2.045,2.036,2.045c1.098,0,1.807-0.759,1.807-1.934v-1.687c0-1.893-0.087-2.173-0.125-2.206
			c-0.086-0.081-0.389-0.111-0.681-0.14l-0.15-0.015l-0.016-0.207c0.011-0.106,0.087-0.183,0.181-0.183h2.336l0.044,0.168
			c0.015,0.109-0.04,0.205-0.134,0.231c-0.413,0.042-0.587,0.07-0.665,0.142c-0.041,0.036-0.128,0.316-0.128,2.209v1.739
			C325.798,42.835,324.849,44.167,323.091,44.167z"/>
		<path fill="#4D463A" d="M330.857,44.157c-1.055,0-1.654-0.558-1.729-0.667c-0.041-0.108-0.088-1.012-0.025-1.542l0.006-0.044
			l0.033-0.055l0.045-0.055l0.114-0.016c0.12,0,0.215,0.087,0.215,0.198c0.02,0.366,0.159,0.752,0.285,0.94
			c0.3,0.458,0.678,0.67,1.19,0.67c0.702,0,1.155-0.465,1.155-1.184c0-0.675-0.609-1.093-1.256-1.537
			c-0.731-0.502-1.489-1.022-1.489-1.977c0-1.072,0.831-1.88,1.933-1.88c0.437,0,0.69,0.083,0.876,0.145
			c0.109,0.036,0.189,0.062,0.273,0.062c0.035,0,0.071-0.004,0.109-0.014h0.149l0.099,0.176l0.004,0.363
			c0.005,0.302,0.01,0.657-0.005,1.042l-0.005,0.145l-0.201,0.029c-0.107,0-0.195-0.067-0.215-0.163
			c-0.023-0.355-0.15-0.708-0.312-0.879c-0.223-0.231-0.52-0.359-0.835-0.359c-0.569,0-0.999,0.421-0.999,0.98
			c0,0.527,0.595,0.947,1.224,1.391c0.767,0.541,1.636,1.154,1.636,2.132C333.133,43.437,331.988,44.157,330.857,44.157z"/>
		<path fill="#4D463A" d="M336.048,44.104l-0.036-0.163c-0.013-0.112,0.055-0.214,0.157-0.238c0.344-0.034,0.644-0.067,0.743-0.127
			c0.145-0.078,0.145-1.69,0.145-2.22v-1.513c0-0.531,0-2.146-0.138-2.219c-0.108-0.065-0.425-0.096-0.731-0.126l-0.151-0.015
			l-0.024-0.227c0.011-0.095,0.082-0.163,0.17-0.163h2.824l0.039,0.16c0.014,0.096-0.03,0.209-0.141,0.24
			c-0.338,0.036-0.66,0.068-0.761,0.128c-0.066,0.039-0.144,0.455-0.144,2.223v1.513c0,1.765,0.077,2.181,0.143,2.219
			c0.108,0.065,0.456,0.099,0.736,0.125l0.155,0.015l0.011,0.229c-0.013,0.094-0.083,0.16-0.17,0.16H336.048z"/>
		<path fill="#4D463A" d="M348.274,44.156l-0.133-0.073l-4.876-5.202l0.036,2.473c0.015,1.362,0.091,2.053,0.236,2.175
			c0.049,0.031,0.395,0.133,0.665,0.141l0.146,0.004l0.027,0.206c0,0.154-0.092,0.225-0.178,0.225h-2.516l-0.042-0.184
			c-0.014-0.125,0.043-0.224,0.142-0.247c0.386-0.04,0.616-0.095,0.704-0.167c0.094-0.092,0.137-0.798,0.122-2.149l-0.025-1.975
			c-0.007-0.726-0.015-1.467-0.057-2.13c-0.001-0.126,0.106-0.211,0.255-0.211h0.084l0.124,0.103l4.865,5.204l-0.037-2.502
			c-0.009-1.997-0.16-2.122-0.224-2.176c-0.088-0.066-0.336-0.115-0.733-0.141l-0.156-0.01l-0.009-0.238
			c0.015-0.138,0.104-0.187,0.175-0.187h2.538l0.041,0.187c0.013,0.125-0.045,0.225-0.145,0.246
			c-0.365,0.036-0.563,0.086-0.66,0.166c-0.094,0.091-0.14,0.797-0.133,2.152l0.016,2.188c0.004,0.655,0.008,1.316,0.046,1.914
			l0.004,0.06l-0.045,0.071c-0.043,0.052-0.114,0.081-0.196,0.081H348.274z"/>
		<path fill="#4D463A" d="M355.674,44.115c-0.286,0-0.509-0.007-0.751-0.014c-0.283-0.008-0.592-0.018-1.062-0.018
			c-0.464,0-0.765,0.005-1.155,0.012l-0.705,0.011l-0.039-0.162c-0.014-0.096,0.031-0.208,0.141-0.239
			c0.337-0.035,0.625-0.067,0.729-0.129c0.146-0.079,0.146-1.69,0.146-2.22v-1.513c0-0.53,0-2.145-0.14-2.219
			c-0.104-0.063-0.359-0.092-0.709-0.126l-0.155-0.016l-0.011-0.229c0.013-0.094,0.083-0.16,0.17-0.16
			c0.809,0.011,2,0.021,2.672,0.021c0.886,0,1.195-0.01,1.504-0.05l0.169-0.021l0.062,0.211l-0.031,0.396
			c-0.021,0.269-0.043,0.574-0.084,0.947l-0.015,0.133l-0.183,0.025h-0.044l-0.087-0.037l-0.069-0.044l-0.025-0.124
			c0-0.231-0.016-0.461-0.133-0.578c-0.173-0.195-0.536-0.287-1.115-0.287c-0.275,0-0.632,0-0.812,0.008
			c-0.012,0.135-0.022,0.438-0.022,1.113v1.385h0.761c0.968,0,0.991-0.14,1.032-0.393l0.021-0.125l0.179-0.028
			c0.124,0,0.214,0.075,0.214,0.178l-0.013,0.309c-0.017,0.393-0.04,0.973-0.04,1.191v0.15l-0.201,0.024
			c-0.094,0-0.213-0.091-0.213-0.185c0-0.19-0.053-0.337-0.105-0.384c-0.052-0.051-0.158-0.157-0.883-0.157h-0.752v0.584
			c0,1.812,0.117,2.056,0.13,2.078c0.005,0,0.141,0.081,0.953,0.081c0.627,0,0.935-0.183,1.082-0.337
			c0.121-0.12,0.217-0.331,0.305-0.669l0.029-0.112l0.154-0.031c0.107,0,0.227,0.087,0.227,0.211
			c-0.053,0.569-0.157,1.262-0.192,1.332C356.443,44.102,355.852,44.115,355.674,44.115z"/>
		<path fill="#4D463A" d="M361.266,44.157c-1.056,0-1.655-0.558-1.729-0.667c-0.041-0.108-0.088-1.012-0.025-1.542l0.006-0.044
			l0.033-0.055l0.045-0.054l0.114-0.016c0.121,0,0.216,0.087,0.216,0.198c0.018,0.363,0.157,0.75,0.285,0.941
			c0.299,0.458,0.677,0.67,1.189,0.67c0.702,0,1.155-0.465,1.155-1.184c0-0.675-0.609-1.093-1.255-1.537
			c-0.732-0.502-1.489-1.022-1.489-1.977c0-1.072,0.83-1.88,1.931-1.88c0.437,0,0.69,0.083,0.876,0.145
			c0.11,0.037,0.19,0.063,0.275,0.063c0.035,0,0.07-0.004,0.109-0.014h0.149l0.097,0.176l0.004,0.363
			c0.005,0.303,0.011,0.657-0.005,1.042l-0.005,0.144l-0.2,0.029c-0.108,0-0.197-0.068-0.215-0.165
			c-0.023-0.354-0.151-0.707-0.314-0.876c-0.222-0.232-0.518-0.359-0.834-0.359c-0.569,0-0.998,0.421-0.998,0.98
			c0,0.527,0.595,0.947,1.224,1.391c0.767,0.541,1.636,1.154,1.636,2.132C363.54,43.437,362.396,44.157,361.266,44.157z"/>
		<path fill="#4D463A" d="M368.06,44.157c-1.163,0-1.724-0.658-1.729-0.665c-0.043-0.119-0.086-1.026-0.027-1.544l0.006-0.045
			l0.034-0.056l0.045-0.053l0.115-0.016c0.123,0,0.216,0.085,0.216,0.198c0.018,0.364,0.156,0.751,0.284,0.941
			c0.3,0.458,0.678,0.67,1.19,0.67c0.691,0,1.155-0.476,1.155-1.184c0-0.675-0.609-1.093-1.256-1.537
			c-0.731-0.502-1.489-1.022-1.489-1.977c0-1.072,0.83-1.88,1.931-1.88c0.438,0,0.691,0.083,0.876,0.145
			c0.111,0.037,0.19,0.063,0.276,0.063c0.035,0,0.07-0.004,0.109-0.014h0.149l0.097,0.176l0.004,0.363
			c0.005,0.302,0.01,0.657-0.005,1.042l-0.005,0.145l-0.201,0.029c-0.107,0-0.196-0.067-0.216-0.163
			c-0.021-0.354-0.149-0.708-0.312-0.879c-0.222-0.231-0.518-0.358-0.833-0.358c-0.57,0-1,0.421-1,0.98
			c0,0.527,0.595,0.947,1.224,1.391c0.767,0.541,1.636,1.154,1.636,2.132C370.334,43.437,369.189,44.157,368.06,44.157z"/>
		<path fill="#4D463A" d="M324.827,54.15c-1.604,0-2.684-0.994-2.684-2.472c0-1.257,0.936-2.592,2.669-2.592
			c0.492,0,0.833,0.095,1.081,0.165c0.132,0.037,0.236,0.066,0.312,0.066c0.009,0,0.019-0.001,0.027-0.001
			c0.161,0,0.232,0.075,0.232,0.166l0.005,0.135c0.01,0.249,0.022,0.579,0.018,0.906l-0.003,0.147l-0.194,0.025
			c-0.091,0-0.205-0.089-0.205-0.181c-0.017-0.157-0.116-0.365-0.235-0.479c-0.211-0.209-0.637-0.418-1.116-0.418
			c-1.247,0-1.69,0.955-1.69,1.849c0,1.021,0.688,2.125,1.799,2.125c0.494,0,0.837-0.125,1.047-0.38
			c0.121-0.155,0.214-0.348,0.275-0.57l0.03-0.11l0.144-0.018c0.105,0,0.221,0.072,0.221,0.188c-0.025,0.346-0.11,0.89-0.204,1.04
			C326.211,53.935,325.73,54.15,324.827,54.15z"/>
		<path fill="#4D463A" d="M330.695,54.15c-1.427,0-2.504-1.063-2.504-2.472c0-1.247,0.996-2.592,2.604-2.592
			c1.427,0,2.504,1.064,2.504,2.476C333.3,52.834,332.325,54.15,330.695,54.15z M330.659,49.655c-1.456,0-1.568,1.387-1.568,1.812
			c0,1.04,0.654,2.116,1.749,2.116c1.448,0,1.561-1.388,1.561-1.813C332.4,50.745,331.79,49.655,330.659,49.655z"/>
		<path fill="#4D463A" d="M337.226,54.105c-0.258-0.006-0.538-0.012-0.865-0.012c-0.385,0-0.643,0.005-1.007,0.011l-0.389,0.007
			l-0.03-0.167l-0.014-0.135l0.154-0.094c0.289-0.032,0.388-0.071,0.448-0.105c0.074-0.108,0.074-1.13,0.074-1.465v-1.054
			c0-0.335,0-1.354-0.076-1.471c-0.061-0.031-0.161-0.071-0.431-0.098l-0.155-0.016v-0.224l0.018-0.13l0.146-0.026h1.964
			l0.031,0.154l0.018,0.13l-0.147,0.106c-0.303,0.033-0.405,0.074-0.464,0.108c-0.048,0.074-0.075,0.57-0.075,1.465v1.054
			c0,1.106,0.097,1.285,0.116,1.309c0.043,0.047,0.14,0.093,0.557,0.093c0.517,0,0.703-0.135,0.759-0.193
			c0.085-0.091,0.198-0.337,0.251-0.546l0.029-0.113l0.145-0.021h0.072l0.105,0.083l0.045,0.056l-0.011,0.087
			c-0.021,0.307-0.104,0.864-0.203,1.014c-0.068,0.13-0.213,0.198-0.434,0.198C337.653,54.114,337.447,54.109,337.226,54.105z"/>
		<path fill="#4D463A" d="M342.265,54.105c-0.258-0.006-0.537-0.012-0.863-0.012c-0.387,0-0.646,0.005-1.012,0.011l-0.388,0.007
			l-0.029-0.167l-0.013-0.135l0.155-0.093c0.287-0.032,0.386-0.071,0.446-0.105c0.074-0.108,0.074-1.13,0.074-1.465v-1.054
			c0-0.335,0-1.354-0.076-1.471c-0.061-0.031-0.161-0.071-0.43-0.098l-0.154-0.016l-0.002-0.223l0.018-0.13l0.146-0.026h1.965
			l0.031,0.154l0.018,0.13l-0.147,0.106c-0.303,0.033-0.405,0.074-0.464,0.108c-0.048,0.074-0.075,0.57-0.075,1.465v1.054
			c0,1.106,0.097,1.285,0.116,1.309c0.043,0.047,0.141,0.093,0.555,0.093c0.519,0,0.703-0.135,0.759-0.193
			c0.088-0.092,0.2-0.337,0.252-0.545l0.028-0.114l0.146-0.021h0.071l0.105,0.083l0.045,0.057l-0.011,0.087
			c-0.022,0.318-0.106,0.867-0.2,1.013c-0.071,0.131-0.216,0.2-0.437,0.2C342.691,54.114,342.486,54.109,342.265,54.105z"/>
		<path fill="#4D463A" d="M347.238,54.105c-0.258-0.006-0.538-0.012-0.864-0.012c-0.356,0-0.574,0.004-0.89,0.01l-0.451,0.008
			l-0.028-0.165l-0.014-0.135l0.154-0.095c0.293-0.031,0.391-0.069,0.455-0.105c0.047-0.072,0.074-0.567,0.074-1.465v-1.054
			c0-0.896-0.026-1.392-0.08-1.473c-0.061-0.03-0.16-0.069-0.434-0.096l-0.155-0.015v-0.226l0.018-0.13l0.145-0.024
			c0.564,0.007,1.394,0.016,1.862,0.016c0.597,0,0.847-0.008,1.065-0.034l0.168-0.02l0.044,0.195l-0.016,0.204
			c-0.016,0.208-0.033,0.441-0.073,0.74l-0.017,0.13l-0.166,0.019h-0.149l-0.062-0.189c0-0.188-0.023-0.292-0.082-0.354
			c-0.063-0.067-0.207-0.146-0.749-0.146c-0.185,0-0.364,0.002-0.482,0.007c-0.005,0.104-0.01,0.3-0.01,0.672v0.897h0.443
			c0.638,0,0.648-0.062,0.675-0.214l0.021-0.125l0.175-0.019h0.15l0.051,0.169l-0.016,0.384c-0.01,0.208-0.019,0.398-0.019,0.661
			v0.15l-0.197,0.017c-0.089,0-0.204-0.083-0.204-0.172c0-0.125-0.034-0.215-0.058-0.236c-0.054-0.053-0.248-0.077-0.586-0.077
			h-0.436v0.341c0,1.106,0.098,1.284,0.117,1.309c0.044,0.048,0.141,0.093,0.556,0.093c0.361,0,0.611-0.062,0.723-0.177
			c0.079-0.091,0.143-0.23,0.193-0.431l0.028-0.113l0.15-0.022h0.07l0.1,0.077l0.045,0.054l-0.006,0.09
			c-0.011,0.15-0.061,0.707-0.163,0.884c-0.115,0.184-0.312,0.205-0.449,0.205C347.664,54.114,347.459,54.109,347.238,54.105z"/>
		<path fill="#4D463A" d="M352.878,54.15c-1.509,0-2.691-1.086-2.691-2.472c0-1.257,0.934-2.592,2.662-2.592
			c0.438,0,0.78,0.084,1.03,0.146c0.141,0.035,0.263,0.064,0.345,0.064c0.012,0,0.023-0.001,0.034-0.001
			c0.172,0,0.242,0.074,0.242,0.166c0.02,0.314,0.043,0.68,0.036,1.042l-0.003,0.147l-0.192,0.026c-0.105,0-0.191-0.069-0.204-0.164
			c-0.021-0.173-0.119-0.377-0.237-0.488c-0.205-0.196-0.645-0.406-1.123-0.406c-1.247,0-1.69,0.955-1.69,1.849
			c0,1.051,0.699,2.116,2.036,2.116c0.231,0,0.466-0.042,0.672-0.117c-0.004-0.456-0.015-1.299-0.062-1.403
			c-0.001,0-0.002,0-0.003,0c-0.021,0-0.136-0.044-0.464-0.08l-0.135-0.014l-0.022-0.186v-0.15l0.166-0.042h1.905l0.014,0.191v0.15
			l-0.172,0.052c-0.263,0.029-0.321,0.053-0.383,0.096c-0.031,0.093-0.025,1.08-0.023,1.451l0.012,0.098l-0.078,0.095
			C354.096,53.991,353.472,54.15,352.878,54.15z"/>
		<path fill="#4D463A" d="M358.866,54.105c-0.258-0.006-0.538-0.012-0.864-0.012c-0.354,0-0.573,0.004-0.891,0.01l-0.449,0.008
			l-0.029-0.167l-0.013-0.135l0.155-0.093c0.293-0.032,0.391-0.071,0.45-0.105c0.051-0.073,0.078-0.567,0.078-1.466v-1.054
			c0-0.896-0.027-1.391-0.081-1.471c-0.059-0.03-0.158-0.07-0.433-0.097l-0.154-0.015l-0.002-0.223l0.018-0.13l0.146-0.026
			c0.562,0.007,1.393,0.016,1.861,0.016c0.597,0,0.845-0.008,1.066-0.034l0.168-0.02l0.042,0.195l-0.019,0.229
			c-0.015,0.202-0.032,0.429-0.07,0.716l-0.017,0.13l-0.165,0.019h-0.15l-0.06-0.189c0-0.185-0.024-0.291-0.083-0.354
			c-0.097-0.101-0.321-0.145-0.749-0.145c-0.186,0-0.365,0.002-0.482,0.007c-0.005,0.104-0.009,0.3-0.009,0.672v0.897h0.44
			c0.641,0,0.65-0.062,0.675-0.213l0.021-0.126l0.177-0.019c0.14,0,0.203,0.087,0.203,0.169l-0.017,0.359
			c-0.011,0.218-0.02,0.413-0.02,0.686v0.15l-0.197,0.017c-0.089,0-0.205-0.083-0.205-0.172c0-0.126-0.034-0.215-0.057-0.235
			c-0.056-0.055-0.245-0.078-0.587-0.078h-0.434v0.341c0,1.108,0.096,1.284,0.115,1.308c0.044,0.048,0.141,0.094,0.557,0.094
			c0.458,0,0.646-0.096,0.723-0.177c0.077-0.09,0.141-0.229,0.192-0.432l0.029-0.112l0.149-0.022h0.07l0.1,0.077l0.046,0.054
			l-0.007,0.09c-0.011,0.15-0.061,0.706-0.162,0.883c-0.092,0.143-0.232,0.206-0.447,0.206
			C359.293,54.114,359.088,54.109,358.866,54.105z"/>
	</g>
</g>


<g id="lds">
	<path fill="#4D463A" d="M227.679,47.259c-0.436,0-1.011-0.01-1.561-0.021c-0.502-0.009-0.982-0.018-1.316-0.018
		c-0.335,0-0.708,0.009-1.097,0.018c-0.426,0.01-0.871,0.021-1.306,0.021c-0.062,0-0.134-0.047-0.146-0.179
		c-0.013-0.138,0.045-0.245,0.146-0.264c0.778-0.081,1.07-0.202,1.253-0.31c0.206-0.109,0.349-0.466,0.349-4.096v-2.763
		c0-3.326-0.115-3.988-0.341-4.094c-0.193-0.112-0.486-0.232-1.253-0.311c-0.11-0.021-0.168-0.127-0.155-0.266
		c0.013-0.132,0.084-0.18,0.146-0.18c0.435,0,0.88,0.01,1.306,0.021c0.389,0.009,0.762,0.018,1.097,0.018
		c0.332,0,0.9-0.008,1.496-0.018c0.658-0.01,1.35-0.021,1.796-0.021c3.853,0,6.649,2.557,6.649,6.08c0,1.666-0.666,3.298-1.827,4.48
		C231.545,46.726,230.077,47.259,227.679,47.259z M227.507,35.623c-1.302,0-1.596,0.198-1.662,0.283
		c-0.026,0.034-0.262,0.441-0.262,3.686v2.819c0,2.087,0.131,3.287,0.389,3.566c0.326,0.343,0.752,0.459,1.688,0.459
		c3.624,0,5.311-1.658,5.311-5.218C232.972,38.437,231.095,35.623,227.507,35.623z"/>
	<path fill="#4D463A" d="M245.296,47.259c-0.029,0-0.126-0.013-0.146-0.178c-0.017-0.138,0.031-0.242,0.123-0.264
		c0.606-0.06,0.87-0.169,0.87-0.357c0-0.37-0.387-1.507-1.293-3.799h-3.778c-0.719,1.977-1.068,3.177-1.068,3.667
		c0,0.199,0.076,0.401,0.989,0.486c0.106,0.025,0.154,0.129,0.137,0.268c-0.021,0.165-0.117,0.177-0.146,0.177h-3.88
		c-0.083,0-0.145-0.079-0.156-0.201c-0.012-0.128,0.042-0.224,0.137-0.242c0.538-0.054,0.87-0.153,1.154-0.343
		c0.172-0.138,0.504-0.401,1.855-4.097l1.002-2.763l0.294-0.794c0.49-1.32,0.996-2.685,1.389-3.914
		c0.042-0.152,0.306-0.169,0.417-0.169s0.375,0.017,0.417,0.173c0.558,1.614,1.056,2.978,1.719,4.702l1.079,2.762
		c1.422,3.595,1.694,3.971,1.947,4.134c0.302,0.196,0.569,0.251,1.093,0.307c0.124,0.03,0.148,0.163,0.135,0.268
		c-0.02,0.164-0.117,0.177-0.146,0.177H245.296z M244.491,41.687l-1.54-4.173l-1.523,4.173H244.491z"/>
	<path fill="#4D463A" d="M260.667,47.259l-0.062-0.174c-0.012-0.117,0.038-0.247,0.153-0.269c0.78-0.081,1.072-0.202,1.255-0.31
		c0.184-0.107,0.348-0.5,0.348-4.096v-1.073h-6.955v1.073c0,3.594,0.165,3.988,0.348,4.095c0.197,0.114,0.485,0.23,1.249,0.309
		c0.127,0.024,0.177,0.162,0.165,0.286l-0.009,0.09l-0.128,0.069h-4.899l-0.054-0.179c-0.014-0.139,0.045-0.245,0.146-0.265
		c0.778-0.081,1.071-0.202,1.255-0.311c0.198-0.106,0.347-0.474,0.347-4.095v-2.763c0-3.326-0.114-3.988-0.339-4.094
		c-0.194-0.111-0.488-0.232-1.255-0.31c-0.109-0.021-0.168-0.128-0.154-0.267l0.008-0.09l0.137-0.089h4.899l0.046,0.16
		c0.012,0.124-0.038,0.262-0.156,0.285c-0.77,0.079-1.06,0.194-1.259,0.308c-0.177,0.091-0.347,0.481-0.347,4.098v0.789h6.955
		v-0.789c0-3.621-0.162-4.003-0.343-4.096c-0.19-0.11-0.483-0.23-1.252-0.309c-0.125-0.024-0.173-0.154-0.162-0.271l0.009-0.09
		l0.145-0.084h4.879l0.062,0.174c0.011,0.117-0.038,0.248-0.154,0.27c-0.772,0.079-1.06,0.195-1.257,0.308
		c-0.177,0.091-0.346,0.481-0.346,4.098v2.763c0,3.595,0.164,3.988,0.347,4.095c0.195,0.114,0.481,0.23,1.248,0.309
		c0.125,0.024,0.174,0.154,0.163,0.271l-0.009,0.09l-0.145,0.083H260.667z"/>
	<path fill="#4D463A" d="M275.688,47.374c-3.574,0-6.269-2.663-6.269-6.194c0-3.125,2.499-6.497,6.537-6.497
		c3.574,0,6.269,2.663,6.269,6.194C282.225,44.07,279.779,47.374,275.688,47.374z M275.593,35.583c-4.084,0-4.402,3.863-4.402,5.047
		c0,2.872,1.824,5.841,4.875,5.841c4.07,0,4.386-3.861,4.386-5.044C280.453,38.595,278.75,35.583,275.593,35.583z"/>
	<g>
		<path fill="#4D463A" d="M212.923,47.255l-0.049-0.155c-0.013-0.099,0.012-0.257,0.132-0.287c0.709-0.073,1.212-0.183,1.431-0.312
			c0.184-0.106,0.348-0.499,0.348-4.095v-2.761c0-3.62-0.162-4.002-0.343-4.095c-0.224-0.129-0.728-0.238-1.422-0.309
			c-0.133-0.032-0.159-0.189-0.147-0.289l0.011-0.088l0.127-0.069h5.107c0.062,0,0.133,0.047,0.146,0.18
			c0.014,0.138-0.044,0.244-0.144,0.264c-0.879,0.09-1.25,0.217-1.407,0.308c-0.197,0.093-0.367,0.474-0.367,4.097v2.761
			c0,3.605,0.165,3.986,0.364,4.092c0.161,0.095,0.53,0.224,1.4,0.311c0.11,0.022,0.168,0.129,0.154,0.267l-0.009,0.09l-0.137,0.088
			H212.923z"/>
	</g>
	<path fill="#4D463A" d="M220.971,14.064c0-0.183,0-2.439,0-3.398c0-0.263-0.038-0.467-0.038-0.467s0.237,0.038,0.468,0.038
		c0.231,0,2.562,0,2.562,0c1.951,0,3.096,0.303,3.096,2.074c0,1.151-0.711,2.18-3.016,2.18c0,0-2.411,0-2.643,0
		c-0.23,0-0.459,0.031-0.459,0.031S220.971,14.301,220.971,14.064z M220.971,21.867c0-0.054,0-2.844,0-3.933
		c0-0.264-0.032-0.459-0.032-0.459s0.23,0.032,0.461,0.032c0.229,0,2.167,0,2.167,0c1.73,0,3.845,0,3.845,2.394
		c0,1.771-1.516,2.393-3.554,2.393c0,0-2.398,0-2.458,0c-0.233,0-0.454,0.035-0.454,0.035S220.971,22.093,220.971,21.867z
		 M214.757,8.124l-0.003,16.369c0,0.531,0.032,0.722-0.345,0.954c-0.368,0.229-0.745,0.267-1.352,0.369c0,0-0.005,0.001-0.011,0.004
		c-0.061,0.015-0.05,0.241,0.011,0.241c0.04,0,13.244,0,13.244,0c5.584,0,7.935-2.216,7.935-5.672c0-2.557-1.19-4.119-3.547-4.708
		c-0.041-0.01-0.043-0.063,0-0.074c1.501-0.47,2.882-1.557,2.882-4.217c0-3.61-2.438-4.832-7.757-4.832h-12.751
		c-0.062,0-0.073,0.228-0.013,0.243c0.005,0.001,0.011,0.004,0.011,0.004c0.607,0.102,0.982,0.141,1.352,0.368
		C214.79,7.405,214.757,7.593,214.757,8.124z"/>
	<path fill="#4D463A" d="M281.486,8.124c0-0.531-0.031-0.719,0.343-0.95c0.369-0.227,0.746-0.266,1.353-0.368
		c0,0,0.006-0.003,0.012-0.004c0.061-0.015,0.05-0.243-0.012-0.243h-9.768c-0.062,0-0.073,0.228-0.014,0.243
		c0.006,0.001,0.013,0.004,0.013,0.004c0.617,0.074,0.902,0.14,1.271,0.368c0.376,0.232,0.345,0.42,0.345,0.952v9.836
		c0,2.244-1.285,3.969-3.837,3.969c-2.551,0-3.835-1.725-3.835-3.969V8.127c0-0.531-0.031-0.722,0.345-0.953
		c0.368-0.227,0.675-0.285,1.271-0.368c0,0,0.006-0.003,0.012-0.004c0.06-0.014,0.049-0.243-0.012-0.243h-9.219
		c-0.069,0-0.055,0.229,0.003,0.243c0.005,0,0.011,0.004,0.011,0.004c0.337,0.019,0.568,0.038,0.776,0.214
		c0.307,0.262,0.355,0.573,0.355,1.104v9.672c0,4.662,2.551,8.621,10.292,8.621c7.743,0,10.295-3.959,10.295-8.621V8.124z"/>
	<path fill="#4D463A" d="M251.883,26.062c0.061,0,0.074-0.226,0.014-0.241c-0.005-0.003-0.013-0.004-0.013-0.004
		c-0.604-0.103-0.981-0.14-1.351-0.369c-0.375-0.232-0.346-0.421-0.346-0.953v-6.212l6.757-10.03c0.37-0.55,0.606-0.838,0.909-1.093
		c0.052-0.042,0.176-0.126,0.253-0.174c0.278-0.14,0.386-0.173,0.729-0.183c0,0,0.007-0.001,0.012-0.002
		c0.062-0.008,0.081-0.242,0.011-0.242h-9.111c-0.074,0-0.06,0.237,0.005,0.244c0.006,0,0.011,0.003,0.011,0.003
		c0.442,0,0.987,0.004,0.898,0.639c-0.051,0.615-2.677,4.413-3.61,5.854c-0.134,0.206-0.24,0.418-0.284,0.679
		c-0.034-0.257-0.193-0.516-0.302-0.676c-1.304-1.941-3.534-5.088-3.597-5.858c-0.056-0.659,0.454-0.641,0.896-0.641
		c0,0,0.006-0.002,0.012-0.003c0.062-0.006,0.086-0.241,0.012-0.241h-9.566c-0.058,0-0.052,0.221,0.005,0.241
		c0.005,0.002,0.012,0.003,0.012,0.003c0.409,0.042,0.631,0.015,1.11,0.247c0.056,0.027,0.19,0.115,0.242,0.16
		c0.304,0.254,0.489,0.492,0.859,1.041l6.746,9.99v6.253c0,0.531,0.032,0.722-0.344,0.953c-0.368,0.229-0.746,0.267-1.353,0.369
		c0,0-0.006,0.001-0.011,0.004c-0.061,0.016-0.049,0.241,0.011,0.241H251.883z"/>
	<path fill="#4D463A" d="M281.465,30.521H212.95c-0.05,0-0.09,0.041-0.09,0.09c0,0.049,0.04,0.089,0.09,0.089h68.516
		c0.049,0,0.089-0.04,0.089-0.089C281.554,30.562,281.514,30.521,281.465,30.521z"/>
</g>


</svg>
